<svg xmlns="http://www.w3.org/2000/svg" width="656" height="376"><rect width="100%" height="100%" fill="#0a0f1e"/><text x="10" y="20" fill="#f8fafc" font-size="14" font-weight="bold" font-family="sans-serif">Q1 — Profile Dimensions: GI 1.5mm C-section (60×40mm)</text><text x="10" y="35" fill="#64748b" font-size="11" font-family="monospace">Source: manual-mode inputs (auto) + theoretical calculations | flange_web_lip_engine: BROKEN in manual mode</text><path d="M 226.0,120 L 430.0,120 L 430.0,256.0 L 424.9,256.0 L 424.9,125.1 L 231.1,125.1 L 231.1,256.0 L 226.0,256.0 Z" fill="#1e3a5f" fill-opacity="0.5" stroke="#60a5fa" stroke-width="2.5"/><line x1="226.0" y1="95" x2="430.0" y2="95" stroke="#fbbf24" stroke-width="1.5" stroke-dasharray="4,2"/><line x1="226.0" y1="90" x2="226.0" y2="100" stroke="#fbbf24" stroke-width="1"/><line x1="430.0" y1="90" x2="430.0" y2="100" stroke="#fbbf24" stroke-width="1"/><text x="328.0" y="88" text-anchor="middle" fill="#fbbf24" font-size="13" font-family="monospace">Web = 60 mm</text><line x1="196.0" y1="120" x2="196.0" y2="256.0" stroke="#4ade80" stroke-width="1.5" stroke-dasharray="4,2"/><line x1="191.0" y1="120" x2="201.0" y2="120" stroke="#4ade80" stroke-width="1"/><line x1="191.0" y1="256.0" x2="201.0" y2="256.0" stroke="#4ade80" stroke-width="1"/><text x="171.0" y="193.0" text-anchor="middle" fill="#4ade80" font-size="13" font-family="monospace" transform="rotate(-90,161.0,188.0)">Flange = 40 mm</text><line x1="226.0" y1="188.0" x2="231.1" y2="188.0" stroke="#f87171" stroke-width="2.5"/><text x="237.1" y="184.0" fill="#f87171" font-size="12" font-family="monospace">t = 1.5 mm</text><circle cx="231.1" cy="125.1" r="5.1" fill="none" stroke="#c084fc" stroke-width="1.5"/><text x="242.2" y="129.1" fill="#c084fc" font-size="12" font-family="monospace">Ri = 1.5 mm</text><text x="438.0" y="236.0" fill="#60a5fa" font-size="12" font-family="monospace">∠ = 90°</text><line x1="95.1" y1="296.0" x2="560.9" y2="296.0" stroke="#fbbf24" stroke-width="2"/><line x1="95.1" y1="290.0" x2="95.1" y2="302.0" stroke="#fbbf24" stroke-width="1.5"/><line x1="560.9" y1="290.0" x2="560.9" y2="302.0" stroke="#fbbf24" stroke-width="1.5"/><text x="328.0" y="312.0" text-anchor="middle" fill="#fbbf24" font-size="11" font-family="monospace">Flat strip CORRECT = 147.1 mm  (engine reported 65.24 mm)</text><text x="328.0" y="326.0" text-anchor="middle" fill="#ef4444" font-size="11" font-family="monospace">⚠ Engine bug: flat_strip = section_width + bend_arcs only. Missing 2×flange=80mm in formula.</text><text x="10" y="368" fill="#475569" font-size="10" font-family="monospace">Files: flange_web_lip_engine.py (broken) · roll_contour_engine.py (flat-strip formula wrong) · profile dimensions auto from inputs ✓</text></svg>