<svg xmlns="http://www.w3.org/2000/svg" width="280" height="220" viewBox="0 0 280 220">
  <rect width="100%" height="100%" fill="#0a0f1e"/>
  <path d="M -57.86 82.89 L -57.86 29.16 L 337.86 29.16 L 337.86 82.89 L 328.59 82.89 L -48.59 82.89 L -57.86 82.89 Z M 247.38 89.85 L 328.59 82.89 L 328.91 86.64 L 247.54 93.61 L 32.46 93.61 L -48.91 86.64 L -48.59 82.89 L 32.62 89.85 L 247.38 89.85 Z" fill="#1e3a5f" fill-opacity="0.7" stroke="#60a5fa" stroke-width="1.8"/>
  <path d="M 337.86 93.61 L 337.86 147.34 L -57.86 147.34 L -57.86 93.61 L -11.42 93.61 L 32.46 89.85 L 247.54 89.85 L 291.42 93.61 L 337.86 93.61 Z" fill="#14532d" fill-opacity="0.5" stroke="#4ade80" stroke-width="1.5" stroke-dasharray="4,2"/>
  <line x1="18.2" y1="90.7" x2="261.8" y2="90.7" stroke="#fbbf24" stroke-width="1" stroke-dasharray="3,2"/>
  <line x1="257.46268656716416" y1="91.7" x2="257.46268656716416" y2="89.8" stroke="#f59e0b" stroke-width="1.2"/>
  <text x="261.46268656716416" y="90.7" fill="#f59e0b" font-size="9" font-family="monospace">gap=1.10mm</text>
  <text x="140" y="14" text-anchor="middle" fill="#94a3b8" font-size="10" font-weight="bold" font-family="monospace">Stn 1</text>
  <text x="140" y="26" text-anchor="middle" fill="#a78bfa" font-size="10" font-family="monospace">4.9° · pre_bend</text>
  <text x="6" y="172" fill="#60a5fa" font-size="9" font-family="monospace">Upper Ø 175mm (r=87.5mm)</text>
  <text x="6" y="184" fill="#4ade80" font-size="9" font-family="monospace">Lower Ø 130mm (r=65.2mm)</text>
  <text x="6" y="196" fill="#94a3b8" font-size="9" font-family="monospace">Roll W=228.2mm  Depth=3.0mm</text>
</svg>