<svg xmlns="http://www.w3.org/2000/svg" width="900" height="340" viewBox="0 0 900 340">
  <rect width="100%" height="100%" fill="#0a0f1e"/>
  <text x="10" y="20" fill="#f8fafc" font-size="14" font-weight="bold" font-family="sans-serif">Flower Pattern — complex_section (190×90 mm) · 26 stations · shapely-computed 2D polygons</text>
  <path d="M 65.87 229.47 L 251.47 230.77 L 648.53 230.77 L 834.10 229.47 L 833.88 198.13 L 838.89 198.09 L 839.15 234.45 L 648.55 235.78 L 251.45 235.78 L 60.89 234.45 L 60.64 198.13 L 65.65 198.09 L 65.87 229.47 Z" fill="#6b7280" fill-opacity="0.55" stroke="#6b7280" stroke-width="0.8" stroke-opacity="0.9"/>
  <path d="M 65.89 225.26 L 251.50 230.77 L 648.50 230.77 L 833.96 225.26 L 833.03 193.93 L 838.04 193.78 L 839.12 230.13 L 648.57 235.78 L 251.43 235.78 L 61.02 230.13 L 59.95 193.93 L 64.96 193.78 L 65.89 225.26 Z" fill="#6b7280" fill-opacity="0.55" stroke="#6b7280" stroke-width="0.8" stroke-opacity="0.9"/>
  <path d="M 66.13 218.78 L 251.54 230.77 L 648.46 230.77 L 833.57 218.80 L 831.55 187.51 L 836.55 187.19 L 838.90 223.48 L 648.62 235.78 L 251.38 235.78 L 61.41 223.50 L 59.08 187.51 L 64.08 187.19 L 66.13 218.78 Z" fill="#6b7280" fill-opacity="0.55" stroke="#6b7280" stroke-width="0.8" stroke-opacity="0.9"/>
  <path d="M 66.82 210.04 L 251.60 230.77 L 648.40 230.77 L 832.68 210.10 L 829.19 178.94 L 834.17 178.39 L 838.22 214.52 L 648.68 235.78 L 251.32 235.78 L 62.28 214.58 L 58.28 178.94 L 63.27 178.39 L 66.82 210.04 Z" fill="#6b7280" fill-opacity="0.55" stroke="#6b7280" stroke-width="0.8" stroke-opacity="0.9"/>
  <path d="M 68.29 199.09 L 251.68 230.77 L 648.32 230.77 L 830.98 199.22 L 825.65 168.33 L 830.59 167.47 L 836.78 203.31 L 648.75 235.78 L 251.25 235.78 L 63.95 203.43 L 57.89 168.33 L 62.83 167.47 L 68.29 199.09 Z" fill="#7c3aed" fill-opacity="0.70" stroke="#7c3aed" stroke-width="0.8" stroke-opacity="0.9"/>
  <path d="M 70.73 186.97 L 251.76 230.77 L 648.24 230.77 L 828.32 187.20 L 820.95 156.73 L 825.83 155.55 L 834.38 190.90 L 648.84 235.78 L 251.16 235.78 L 66.57 191.13 L 58.25 156.73 L 63.13 155.55 L 70.73 186.97 Z" fill="#7c3aed" fill-opacity="0.70" stroke="#7c3aed" stroke-width="0.8" stroke-opacity="0.9"/>
  <path d="M 74.57 173.16 L 251.86 230.77 L 648.14 230.77 L 824.26 173.54 L 814.57 143.73 L 819.34 142.18 L 830.58 176.76 L 648.93 235.78 L 251.07 235.78 L 70.59 177.14 L 59.73 143.73 L 64.50 142.18 L 74.57 173.16 Z" fill="#7c3aed" fill-opacity="0.70" stroke="#7c3aed" stroke-width="0.8" stroke-opacity="0.9"/>
  <path d="M 79.86 158.77 L 251.97 230.77 L 648.03 230.77 L 818.77 159.35 L 806.68 130.43 L 811.30 128.49 L 825.34 162.04 L 649.04 235.78 L 250.96 235.78 L 76.03 162.61 L 62.57 130.43 L 67.19 128.49 L 79.86 158.77 Z" fill="#7c3aed" fill-opacity="0.70" stroke="#7c3aed" stroke-width="0.8" stroke-opacity="0.9"/>
  <path d="M 86.94 143.70 L 252.08 230.77 L 647.92 230.77 L 811.53 144.51 L 796.91 116.78 L 801.34 114.44 L 818.30 146.60 L 649.16 235.78 L 250.84 235.78 L 83.23 147.41 L 67.08 116.78 L 71.51 114.44 L 86.94 143.70 Z" fill="#7c3aed" fill-opacity="0.70" stroke="#7c3aed" stroke-width="0.8" stroke-opacity="0.9"/>
  <path d="M 95.71 128.75 L 252.21 230.77 L 647.79 230.77 L 802.63 129.83 L 785.51 103.57 L 789.71 100.83 L 809.57 131.29 L 649.28 235.78 L 250.72 235.78 L 92.09 132.37 L 73.31 103.57 L 77.51 100.83 L 95.71 128.75 Z" fill="#7c3aed" fill-opacity="0.70" stroke="#7c3aed" stroke-width="0.8" stroke-opacity="0.9"/>
  <path d="M 106.25 114.15 L 252.34 230.77 L 647.66 230.77 L 792.01 115.54 L 772.45 91.04 L 776.37 87.91 L 799.06 116.33 L 649.42 235.78 L 250.58 235.78 L 102.68 117.72 L 81.39 91.04 L 85.31 87.91 L 106.25 114.15 Z" fill="#7c3aed" fill-opacity="0.70" stroke="#7c3aed" stroke-width="0.8" stroke-opacity="0.9"/>
  <path d="M 118.39 100.37 L 252.48 230.77 L 647.52 230.77 L 779.83 102.10 L 757.98 79.62 L 761.57 76.13 L 786.93 102.20 L 649.56 235.78 L 250.44 235.78 L 114.85 103.92 L 91.22 79.62 L 94.82 76.13 L 118.39 100.37 Z" fill="#7c3aed" fill-opacity="0.70" stroke="#7c3aed" stroke-width="0.8" stroke-opacity="0.9"/>
  <path d="M 131.84 87.84 L 252.63 230.77 L 647.37 230.77 L 766.41 89.91 L 742.46 69.68 L 745.70 65.85 L 773.47 89.32 L 649.70 235.78 L 250.30 235.78 L 128.28 91.39 L 102.58 69.68 L 105.82 65.85 L 131.84 87.84 Z" fill="#6366f1" fill-opacity="0.80" stroke="#6366f1" stroke-width="0.8" stroke-opacity="0.9"/>
  <path d="M 146.46 76.65 L 252.78 230.77 L 647.22 230.77 L 751.85 79.09 L 726.05 61.29 L 728.90 57.16 L 758.83 77.81 L 649.85 235.78 L 250.15 235.78 L 142.86 80.26 L 115.37 61.29 L 118.21 57.16 L 146.46 76.65 Z" fill="#6366f1" fill-opacity="0.80" stroke="#6366f1" stroke-width="0.8" stroke-opacity="0.9"/>
  <path d="M 161.83 67.09 L 252.94 230.77 L 647.06 230.77 L 736.60 69.90 L 709.21 54.66 L 711.65 50.27 L 743.42 67.96 L 650.01 235.78 L 249.99 235.78 L 158.15 70.77 L 129.19 54.66 L 131.63 50.27 L 161.83 67.09 Z" fill="#6366f1" fill-opacity="0.80" stroke="#6366f1" stroke-width="0.8" stroke-opacity="0.9"/>
  <path d="M 177.46 59.28 L 253.10 230.77 L 646.90 230.77 L 721.13 62.47 L 692.45 49.82 L 694.47 45.23 L 727.75 59.90 L 650.17 235.78 L 249.83 235.78 L 173.66 63.09 L 143.57 49.82 L 145.60 45.23 L 177.46 59.28 Z" fill="#6366f1" fill-opacity="0.80" stroke="#6366f1" stroke-width="0.8" stroke-opacity="0.9"/>
  <path d="M 193.14 53.14 L 253.26 230.77 L 646.74 230.77 L 705.66 56.69 L 675.97 46.64 L 677.58 41.89 L 712.02 53.55 L 650.34 235.78 L 249.66 235.78 L 189.18 57.10 L 158.29 46.64 L 159.90 41.89 L 193.14 53.14 Z" fill="#6366f1" fill-opacity="0.80" stroke="#6366f1" stroke-width="0.8" stroke-opacity="0.9"/>
  <path d="M 208.03 48.71 L 253.42 230.77 L 646.58 230.77 L 691.00 52.60 L 660.58 45.02 L 661.80 40.15 L 697.08 48.95 L 650.50 235.78 L 249.50 235.78 L 203.89 52.84 L 172.50 45.02 L 173.72 40.15 L 208.03 48.71 Z" fill="#6366f1" fill-opacity="0.80" stroke="#6366f1" stroke-width="0.8" stroke-opacity="0.9"/>
  <path d="M 222.27 45.65 L 253.58 230.77 L 646.42 230.77 L 677.01 49.88 L 646.10 44.65 L 646.94 39.70 L 682.80 45.77 L 650.66 235.78 L 249.34 235.78 L 217.92 50.00 L 186.30 44.65 L 187.13 39.70 L 222.27 45.65 Z" fill="#6366f1" fill-opacity="0.80" stroke="#6366f1" stroke-width="0.8" stroke-opacity="0.9"/>
  <path d="M 234.74 43.86 L 253.73 230.77 L 646.27 230.77 L 664.80 48.39 L 633.61 45.22 L 634.12 40.23 L 670.29 43.91 L 650.80 235.78 L 249.20 235.78 L 230.17 48.44 L 198.52 45.22 L 199.03 40.23 L 234.74 43.86 Z" fill="#6366f1" fill-opacity="0.80" stroke="#6366f1" stroke-width="0.8" stroke-opacity="0.9"/>
  <path d="M 246.00 42.94 L 253.87 230.77 L 646.13 230.77 L 653.80 47.75 L 622.48 46.44 L 622.69 41.43 L 659.02 42.95 L 650.94 235.78 L 249.06 235.78 L 241.18 47.76 L 209.66 46.44 L 209.87 41.43 L 246.00 42.94 Z" fill="#3b82f6" fill-opacity="0.90" stroke="#3b82f6" stroke-width="0.8" stroke-opacity="0.9"/>
  <path d="M 253.97 42.68 L 253.97 230.77 L 646.03 230.77 L 646.03 47.70 L 614.68 47.70 L 614.68 42.68 L 651.04 42.68 L 651.04 235.78 L 248.96 235.78 L 248.96 47.70 L 217.61 47.70 L 217.61 42.68 L 253.97 42.68 Z" fill="#3b82f6" fill-opacity="0.90" stroke="#3b82f6" stroke-width="0.8" stroke-opacity="0.9"/>
  <path d="M 253.97 42.68 L 253.97 230.77 L 646.03 230.77 L 646.03 47.70 L 614.68 47.70 L 614.68 42.68 L 651.04 42.68 L 651.04 235.78 L 248.96 235.78 L 248.96 47.70 L 217.61 47.70 L 217.61 42.68 L 253.97 42.68 Z" fill="#3b82f6" fill-opacity="0.90" stroke="#3b82f6" stroke-width="0.8" stroke-opacity="0.9"/>
  <path d="M 253.97 42.68 L 253.97 230.77 L 646.03 230.77 L 646.03 47.70 L 614.68 47.70 L 614.68 42.68 L 651.04 42.68 L 651.04 235.78 L 248.96 235.78 L 248.96 47.70 L 217.61 47.70 L 217.61 42.68 L 253.97 42.68 Z" fill="#3b82f6" fill-opacity="0.90" stroke="#3b82f6" stroke-width="0.8" stroke-opacity="0.9"/>
  <path d="M 253.97 42.68 L 253.97 230.77 L 646.03 230.77 L 646.03 47.70 L 614.68 47.70 L 614.68 42.68 L 651.04 42.68 L 651.04 235.78 L 248.96 235.78 L 248.96 47.70 L 217.61 47.70 L 217.61 42.68 L 253.97 42.68 Z" fill="#3b82f6" fill-opacity="0.90" stroke="#3b82f6" stroke-width="0.8" stroke-opacity="0.9"/>
  <path d="M 253.97 42.68 L 253.97 230.77 L 646.03 230.77 L 646.03 47.70 L 614.68 47.70 L 614.68 42.68 L 651.04 42.68 L 651.04 235.78 L 248.96 235.78 L 248.96 47.70 L 217.61 47.70 L 217.61 42.68 L 253.97 42.68 Z" fill="#22c55e" fill-opacity="0.85" stroke="#22c55e" stroke-width="0.8" stroke-opacity="0.9"/>
  <line x1="43.9" y1="251.3" x2="856.1" y2="251.3" stroke="#fbbf24" stroke-width="1.5" stroke-dasharray="5,3"/>
  <text x="450.0" y="265.3" text-anchor="middle" fill="#fbbf24" font-size="10" font-family="monospace">Flat strip = 388.6 mm</text>
  <rect x="50" y="308" width="12" height="8" fill="#6b7280" rx="2"/>
  <text x="66" y="316" fill="#94a3b8" font-size="10" font-family="monospace">Flat / pre-bend</text>
  <rect x="210" y="308" width="12" height="8" fill="#7c3aed" rx="2"/>
  <text x="226" y="316" fill="#94a3b8" font-size="10" font-family="monospace">Early forming</text>
  <rect x="370" y="308" width="12" height="8" fill="#6366f1" rx="2"/>
  <text x="386" y="316" fill="#94a3b8" font-size="10" font-family="monospace">Mid forming</text>
  <rect x="530" y="308" width="12" height="8" fill="#3b82f6" rx="2"/>
  <text x="546" y="316" fill="#94a3b8" font-size="10" font-family="monospace">Final form</text>
  <rect x="690" y="308" width="12" height="8" fill="#22c55e" rx="2"/>
  <text x="706" y="316" fill="#94a3b8" font-size="10" font-family="monospace">Calibration</text>
  <text x="50" y="62" fill="#f8fafc" font-size="11" font-family="monospace">Profile: complex_section</text>
  <text x="185" y="62" fill="#fbbf24" font-size="11" font-family="monospace">Web = 190 mm</text>
  <text x="320" y="62" fill="#4ade80" font-size="11" font-family="monospace">Flange = 90 mm</text>
  <text x="455" y="62" fill="#f87171" font-size="11" font-family="monospace">t = 2.4 mm</text>
  <text x="590" y="62" fill="#94a3b8" font-size="11" font-family="monospace">Material = SS</text>
  <text x="725" y="62" fill="#c084fc" font-size="11" font-family="monospace">Stations = 26</text>
</svg>