<svg xmlns="http://www.w3.org/2000/svg" width="280" height="220" viewBox="0 0 280 220">
  <rect width="100%" height="100%" fill="#0a0f1e"/>
  <path d="M 21.30 66.99 L 21.30 36.22 L 258.70 36.22 L 258.70 66.99 L 245.70 66.99 L 253.57 67.54 L 253.40 70.09 L 245.61 69.55 L 203.62 69.55 L 196.41 70.05 L 189.20 69.55 L 147.21 69.55 L 140.00 70.05 L 132.79 69.55 L 90.80 69.55 L 83.59 70.05 L 76.38 69.55 L 34.39 69.55 L 26.60 70.09 L 26.43 67.54 L 34.30 66.99 L 21.30 66.99 Z" fill="#1e3a5f" fill-opacity="0.7" stroke="#60a5fa" stroke-width="1.8"/>
  <path d="M 258.70 70.09 L 258.70 100.86 L 21.30 100.86 L 21.30 70.09 L 27.76 70.09 L 26.43 70.00 L 26.60 67.44 L 34.39 67.99 L 76.38 67.99 L 83.59 67.48 L 90.80 67.99 L 132.79 67.99 L 140.00 67.48 L 147.21 67.99 L 189.20 67.99 L 196.41 67.48 L 203.62 67.99 L 245.61 67.99 L 253.40 67.44 L 253.57 70.00 L 252.24 70.09 L 258.70 70.09 Z" fill="#14532d" fill-opacity="0.5" stroke="#4ade80" stroke-width="1.5" stroke-dasharray="4,2"/>
  <line x1="19.0" y1="68.1" x2="261.0" y2="68.1" stroke="#fbbf24" stroke-width="1" stroke-dasharray="3,2"/>
  <line x1="262.8205128205128" y1="68.8" x2="262.8205128205128" y2="67.4" stroke="#f59e0b" stroke-width="1.2"/>
  <text x="266.8205128205128" y="68.1" fill="#f59e0b" font-size="9" font-family="monospace">gap=1.30mm</text>
  <text x="140" y="14" text-anchor="middle" fill="#94a3b8" font-size="10" font-weight="bold" font-family="monospace">Stn 1</text>
  <text x="140" y="26" text-anchor="middle" fill="#a78bfa" font-size="10" font-family="monospace">4.0° · pre_bend</text>
  <text x="6" y="172" fill="#60a5fa" font-size="9" font-family="monospace">Upper Ø 146mm (r=73.0mm)</text>
  <text x="6" y="184" fill="#4ade80" font-size="9" font-family="monospace">Lower Ø 143mm (r=71.3mm)</text>
  <text x="6" y="196" fill="#94a3b8" font-size="9" font-family="monospace">Roll W=236.1mm  Depth=0.8mm</text>
</svg>