<svg xmlns="http://www.w3.org/2000/svg" width="900" height="340" viewBox="0 0 900 340">
  <rect width="100%" height="100%" fill="#0a0f1e"/>
  <text x="10" y="20" fill="#f8fafc" font-size="14" font-weight="bold" font-family="sans-serif">Flower Pattern — shutter_slat (260×16 mm) · 22 stations · shapely-computed 2D polygons</text>
  <path d="M 127.59 193.43 L 257.22 193.43 L 278.27 194.64 L 299.32 193.43 L 428.95 193.43 L 450.00 194.64 L 471.05 193.43 L 600.68 193.43 L 621.73 194.64 L 642.78 193.43 L 772.41 193.43 L 793.57 194.65 L 793.35 198.34 L 772.31 197.13 L 642.88 197.13 L 621.73 198.35 L 600.58 197.13 L 471.15 197.13 L 450.00 198.35 L 428.85 197.13 L 299.42 197.13 L 278.27 198.35 L 257.12 197.13 L 127.69 197.13 L 106.65 198.34 L 106.43 194.65 L 127.59 193.43 Z" fill="#6b7280" fill-opacity="0.55" stroke="#6b7280" stroke-width="0.8" stroke-opacity="0.9"/>
  <path d="M 127.43 192.25 L 257.37 192.25 L 278.27 194.63 L 299.16 192.25 L 429.10 192.25 L 450.00 194.63 L 470.90 192.25 L 600.84 192.25 L 621.73 194.63 L 642.63 192.25 L 772.57 192.25 L 793.67 194.66 L 793.25 198.33 L 772.36 195.95 L 642.84 195.95 L 621.73 198.35 L 600.63 195.95 L 471.11 195.95 L 450.00 198.35 L 428.89 195.95 L 299.37 195.95 L 278.27 198.35 L 257.16 195.95 L 127.64 195.95 L 106.75 198.33 L 106.33 194.66 L 127.43 192.25 Z" fill="#6b7280" fill-opacity="0.55" stroke="#6b7280" stroke-width="0.8" stroke-opacity="0.9"/>
  <path d="M 127.21 191.05 L 257.60 191.05 L 278.27 194.62 L 298.94 191.05 L 429.33 191.05 L 450.00 194.62 L 470.67 191.05 L 601.06 191.05 L 621.73 194.62 L 642.40 191.05 L 772.79 191.05 L 793.78 194.67 L 793.15 198.32 L 772.47 194.74 L 642.72 194.74 L 621.73 198.37 L 600.74 194.74 L 470.99 194.74 L 450.00 198.37 L 429.01 194.74 L 299.26 194.74 L 278.27 198.37 L 257.28 194.74 L 127.53 194.74 L 106.85 198.32 L 106.22 194.67 L 127.21 191.05 Z" fill="#6b7280" fill-opacity="0.55" stroke="#6b7280" stroke-width="0.8" stroke-opacity="0.9"/>
  <path d="M 126.91 189.85 L 257.90 189.85 L 278.27 194.59 L 298.64 189.85 L 429.63 189.85 L 450.00 194.59 L 470.37 189.85 L 601.36 189.85 L 621.73 194.59 L 642.10 189.85 L 773.09 189.85 L 793.88 194.69 L 793.04 198.29 L 772.66 193.55 L 642.53 193.55 L 621.73 198.39 L 600.93 193.55 L 470.80 193.55 L 450.00 198.39 L 429.20 193.55 L 299.07 193.55 L 278.27 198.39 L 257.47 193.55 L 127.34 193.55 L 106.96 198.29 L 106.12 194.69 L 126.91 189.85 Z" fill="#6b7280" fill-opacity="0.55" stroke="#6b7280" stroke-width="0.8" stroke-opacity="0.9"/>
  <path d="M 126.56 188.71 L 258.25 188.71 L 278.27 194.57 L 298.29 188.71 L 429.98 188.71 L 450.00 194.57 L 470.02 188.71 L 601.71 188.71 L 621.73 194.57 L 641.75 188.71 L 773.44 188.71 L 793.98 194.72 L 792.94 198.27 L 772.91 192.41 L 642.28 192.41 L 621.73 198.42 L 601.18 192.41 L 470.55 192.41 L 450.00 198.42 L 429.45 192.41 L 298.82 192.41 L 278.27 198.42 L 257.72 192.41 L 127.09 192.41 L 107.06 198.27 L 106.02 194.72 L 126.56 188.71 Z" fill="#7c3aed" fill-opacity="0.70" stroke="#7c3aed" stroke-width="0.8" stroke-opacity="0.9"/>
  <path d="M 126.13 187.55 L 258.68 187.55 L 278.27 194.53 L 297.86 187.55 L 430.41 187.55 L 450.00 194.53 L 469.59 187.55 L 602.14 187.55 L 621.73 194.53 L 641.32 187.55 L 773.87 187.55 L 794.08 194.75 L 792.84 198.23 L 773.23 191.25 L 641.96 191.25 L 621.73 198.46 L 601.50 191.25 L 470.23 191.25 L 450.00 198.46 L 429.77 191.25 L 298.50 191.25 L 278.27 198.46 L 258.04 191.25 L 126.77 191.25 L 107.16 198.23 L 105.92 194.75 L 126.13 187.55 Z" fill="#7c3aed" fill-opacity="0.70" stroke="#7c3aed" stroke-width="0.8" stroke-opacity="0.9"/>
  <path d="M 125.63 186.42 L 259.17 186.42 L 278.27 194.49 L 297.37 186.42 L 430.90 186.42 L 450.00 194.49 L 469.10 186.42 L 602.63 186.42 L 621.73 194.49 L 640.83 186.42 L 774.37 186.42 L 794.18 194.79 L 792.74 198.20 L 773.62 190.12 L 641.58 190.12 L 621.73 198.50 L 601.89 190.12 L 469.84 190.12 L 450.00 198.50 L 430.16 190.12 L 298.11 190.12 L 278.27 198.50 L 258.42 190.12 L 126.38 190.12 L 107.26 198.20 L 105.82 194.79 L 125.63 186.42 Z" fill="#7c3aed" fill-opacity="0.70" stroke="#7c3aed" stroke-width="0.8" stroke-opacity="0.9"/>
  <path d="M 125.09 185.34 L 259.72 185.34 L 278.27 194.43 L 296.82 185.34 L 431.45 185.34 L 450.00 194.43 L 468.55 185.34 L 603.18 185.34 L 621.73 194.43 L 640.28 185.34 L 774.91 185.34 L 794.27 194.83 L 792.65 198.15 L 774.05 189.04 L 641.14 189.04 L 621.73 198.55 L 602.32 189.04 L 469.41 189.04 L 450.00 198.55 L 430.59 189.04 L 297.68 189.04 L 278.27 198.55 L 258.86 189.04 L 125.95 189.04 L 107.35 198.15 L 105.73 194.83 L 125.09 185.34 Z" fill="#7c3aed" fill-opacity="0.70" stroke="#7c3aed" stroke-width="0.8" stroke-opacity="0.9"/>
  <path d="M 124.76 184.75 L 260.05 184.75 L 278.27 194.40 L 296.49 184.75 L 431.78 184.75 L 450.00 194.40 L 468.22 184.75 L 603.51 184.75 L 621.73 194.40 L 639.95 184.75 L 775.24 184.75 L 794.33 194.86 L 792.60 198.13 L 774.32 188.45 L 640.87 188.45 L 621.73 198.59 L 602.59 188.45 L 469.14 188.45 L 450.00 198.59 L 430.86 188.45 L 297.41 188.45 L 278.27 198.59 L 259.13 188.45 L 125.68 188.45 L 107.40 198.13 L 105.67 194.86 L 124.76 184.75 Z" fill="#7c3aed" fill-opacity="0.70" stroke="#7c3aed" stroke-width="0.8" stroke-opacity="0.9"/>
  <path d="M 124.29 183.98 L 260.52 183.98 L 278.27 194.35 L 296.02 183.98 L 432.25 183.98 L 450.00 194.35 L 467.75 183.98 L 603.98 183.98 L 621.73 194.35 L 639.48 183.98 L 775.71 183.98 L 794.39 194.90 L 792.53 198.09 L 774.71 187.68 L 640.48 187.68 L 621.73 198.63 L 602.98 187.68 L 468.75 187.68 L 450.00 198.63 L 431.25 187.68 L 297.02 187.68 L 278.27 198.63 L 259.52 187.68 L 125.29 187.68 L 107.47 198.09 L 105.61 194.90 L 124.29 183.98 Z" fill="#7c3aed" fill-opacity="0.70" stroke="#7c3aed" stroke-width="0.8" stroke-opacity="0.9"/>
  <path d="M 123.38 182.67 L 261.42 182.67 L 278.27 194.25 L 295.11 182.67 L 433.16 182.67 L 450.00 194.25 L 466.84 182.67 L 604.89 182.67 L 621.73 194.25 L 638.58 182.67 L 776.62 182.67 L 794.51 194.97 L 792.41 198.02 L 775.47 186.37 L 639.72 186.37 L 621.73 198.74 L 603.74 186.37 L 467.99 186.37 L 450.00 198.74 L 432.01 186.37 L 296.26 186.37 L 278.27 198.74 L 260.28 186.37 L 124.53 186.37 L 107.59 198.02 L 105.49 194.97 L 123.38 182.67 Z" fill="#6366f1" fill-opacity="0.80" stroke="#6366f1" stroke-width="0.8" stroke-opacity="0.9"/>
  <path d="M 122.03 181.03 L 262.78 181.03 L 278.27 194.07 L 293.76 181.03 L 434.51 181.03 L 450.00 194.07 L 465.49 181.03 L 606.24 181.03 L 621.73 194.07 L 637.22 181.03 L 777.97 181.03 L 794.65 195.08 L 792.27 197.91 L 776.62 184.73 L 638.57 184.73 L 621.73 198.91 L 604.89 184.73 L 466.84 184.73 L 450.00 198.91 L 433.16 184.73 L 295.11 184.73 L 278.27 198.91 L 261.43 184.73 L 123.38 184.73 L 107.73 197.91 L 105.35 195.08 L 122.03 181.03 Z" fill="#6366f1" fill-opacity="0.80" stroke="#6366f1" stroke-width="0.8" stroke-opacity="0.9"/>
  <path d="M 120.21 179.24 L 264.60 179.24 L 278.27 193.79 L 291.94 179.24 L 436.33 179.24 L 450.00 193.79 L 463.67 179.24 L 608.06 179.24 L 621.73 193.79 L 635.40 179.24 L 779.79 179.24 L 794.81 195.23 L 792.11 197.76 L 778.19 182.93 L 637.00 182.93 L 621.73 199.19 L 606.46 182.93 L 465.27 182.93 L 450.00 199.19 L 434.73 182.93 L 293.54 182.93 L 278.27 199.19 L 263.00 182.93 L 121.81 182.93 L 107.89 197.76 L 105.19 195.23 L 120.21 179.24 Z" fill="#6366f1" fill-opacity="0.80" stroke="#6366f1" stroke-width="0.8" stroke-opacity="0.9"/>
  <path d="M 117.96 177.50 L 266.85 177.50 L 278.27 193.33 L 289.69 177.50 L 438.58 177.50 L 450.00 193.33 L 461.42 177.50 L 610.31 177.50 L 621.73 193.33 L 633.15 177.50 L 782.04 177.50 L 794.96 195.41 L 791.96 197.57 L 780.15 181.20 L 635.04 181.20 L 621.73 199.65 L 608.42 181.20 L 463.31 181.20 L 450.00 199.65 L 436.69 181.20 L 291.58 181.20 L 278.27 199.65 L 264.96 181.20 L 119.85 181.20 L 108.04 197.57 L 105.04 195.41 L 117.96 177.50 Z" fill="#6366f1" fill-opacity="0.80" stroke="#6366f1" stroke-width="0.8" stroke-opacity="0.9"/>
  <path d="M 115.42 176.02 L 269.39 176.02 L 278.27 192.58 L 287.15 176.02 L 441.12 176.02 L 450.00 192.58 L 458.88 176.02 L 612.85 176.02 L 621.73 192.58 L 630.61 176.02 L 784.58 176.02 L 795.09 195.62 L 791.83 197.37 L 782.37 179.71 L 632.83 179.71 L 621.73 200.41 L 610.64 179.71 L 461.09 179.71 L 450.00 200.41 L 438.91 179.71 L 289.36 179.71 L 278.27 200.41 L 267.17 179.71 L 117.63 179.71 L 108.17 197.37 L 104.91 195.62 L 115.42 176.02 Z" fill="#6366f1" fill-opacity="0.80" stroke="#6366f1" stroke-width="0.8" stroke-opacity="0.9"/>
  <path d="M 112.77 174.88 L 272.04 174.88 L 278.27 191.28 L 284.50 174.88 L 443.77 174.88 L 450.00 191.28 L 456.23 174.88 L 615.50 174.88 L 621.73 191.28 L 627.96 174.88 L 787.23 174.88 L 795.19 195.84 L 791.73 197.15 L 784.68 178.58 L 630.51 178.58 L 621.73 201.70 L 612.95 178.58 L 458.78 178.58 L 450.00 201.70 L 441.22 178.58 L 287.05 178.58 L 278.27 201.70 L 269.49 178.58 L 115.32 178.58 L 108.27 197.15 L 104.81 195.84 L 112.77 174.88 Z" fill="#6366f1" fill-opacity="0.80" stroke="#6366f1" stroke-width="0.8" stroke-opacity="0.9"/>
  <path d="M 110.13 174.12 L 274.68 174.12 L 278.27 188.74 L 281.86 174.12 L 446.41 174.12 L 450.00 188.74 L 453.59 174.12 L 618.14 174.12 L 621.73 188.74 L 625.32 174.12 L 789.87 174.12 L 795.26 196.05 L 791.67 196.93 L 786.97 177.82 L 628.22 177.82 L 621.73 204.25 L 615.24 177.82 L 456.49 177.82 L 450.00 204.25 L 443.51 177.82 L 284.76 177.82 L 278.27 204.25 L 271.78 177.82 L 113.03 177.82 L 108.33 196.93 L 104.74 196.05 L 110.13 174.12 Z" fill="#6366f1" fill-opacity="0.80" stroke="#6366f1" stroke-width="0.8" stroke-opacity="0.9"/>
  <path d="M 107.75 173.70 L 277.05 173.70 L 278.27 182.69 L 279.49 173.70 L 448.78 173.70 L 450.00 182.69 L 451.22 173.70 L 620.51 173.70 L 621.73 182.69 L 622.95 173.70 L 792.25 173.70 L 795.29 196.24 L 791.63 196.74 L 789.01 177.40 L 626.18 177.40 L 622.35 205.74 L 621.11 205.74 L 617.28 177.40 L 454.45 177.40 L 450.62 205.74 L 449.38 205.74 L 445.55 177.40 L 282.72 177.40 L 278.89 205.74 L 277.65 205.74 L 273.82 177.40 L 110.99 177.40 L 108.37 196.74 L 104.71 196.24 L 107.75 173.70 Z" fill="#3b82f6" fill-opacity="0.90" stroke="#3b82f6" stroke-width="0.8" stroke-opacity="0.9"/>
  <path d="M 105.81 173.53 L 277.54 173.53 L 279.00 173.53 L 449.27 173.53 L 450.73 173.53 L 621.00 173.53 L 622.46 173.53 L 794.19 173.53 L 795.31 196.40 L 791.61 196.58 L 790.67 177.23 L 624.52 177.23 L 623.13 205.74 L 620.33 205.74 L 618.94 177.23 L 452.79 177.23 L 451.40 205.74 L 448.60 205.74 L 447.21 177.23 L 281.06 177.23 L 279.67 205.74 L 276.87 205.74 L 275.48 177.23 L 109.33 177.23 L 108.39 196.58 L 104.69 196.40 L 105.81 173.53 Z" fill="#3b82f6" fill-opacity="0.90" stroke="#3b82f6" stroke-width="0.8" stroke-opacity="0.9"/>
  <path d="M 104.69 173.51 L 276.42 173.51 L 280.12 173.51 L 448.15 173.51 L 451.85 173.51 L 619.88 173.51 L 623.58 173.51 L 795.31 173.51 L 795.31 196.49 L 791.61 196.49 L 791.61 177.21 L 623.58 177.21 L 623.58 196.49 L 619.88 196.49 L 619.88 177.21 L 451.85 177.21 L 451.85 196.23 L 451.85 196.49 L 451.85 205.74 L 448.15 205.74 L 448.15 196.49 L 448.15 177.21 L 280.12 177.21 L 280.12 196.49 L 276.42 196.49 L 276.42 177.21 L 108.39 177.21 L 108.39 196.49 L 104.69 196.49 L 104.69 173.51 Z" fill="#3b82f6" fill-opacity="0.90" stroke="#3b82f6" stroke-width="0.8" stroke-opacity="0.9"/>
  <path d="M 104.69 173.51 L 276.42 173.51 L 280.12 173.51 L 448.15 173.51 L 451.85 173.51 L 619.88 173.51 L 623.58 173.51 L 795.31 173.51 L 795.31 196.49 L 791.61 196.49 L 791.61 177.21 L 623.58 177.21 L 623.58 196.49 L 619.88 196.49 L 619.88 177.21 L 451.85 177.21 L 451.85 196.23 L 451.85 196.49 L 451.85 205.74 L 448.15 205.74 L 448.15 196.49 L 448.15 177.21 L 280.12 177.21 L 280.12 196.49 L 276.42 196.49 L 276.42 177.21 L 108.39 177.21 L 108.39 196.49 L 104.69 196.49 L 104.69 173.51 Z" fill="#3b82f6" fill-opacity="0.90" stroke="#3b82f6" stroke-width="0.8" stroke-opacity="0.9"/>
  <path d="M 104.69 173.51 L 276.42 173.51 L 280.12 173.51 L 448.15 173.51 L 451.85 173.51 L 619.88 173.51 L 623.58 173.51 L 795.31 173.51 L 795.31 196.49 L 791.61 196.49 L 791.61 177.21 L 623.58 177.21 L 623.58 196.49 L 619.88 196.49 L 619.88 177.21 L 451.85 177.21 L 451.85 196.23 L 451.85 196.49 L 451.85 205.74 L 448.15 205.74 L 448.15 196.49 L 448.15 177.21 L 280.12 177.21 L 280.12 196.49 L 276.42 196.49 L 276.42 177.21 L 108.39 177.21 L 108.39 196.49 L 104.69 196.49 L 104.69 173.51 Z" fill="#22c55e" fill-opacity="0.85" stroke="#22c55e" stroke-width="0.8" stroke-opacity="0.9"/>
  <line x1="-39.2" y1="214.5" x2="939.2" y2="214.5" stroke="#fbbf24" stroke-width="1.5" stroke-dasharray="5,3"/>
  <text x="450.0" y="228.5" text-anchor="middle" fill="#fbbf24" font-size="10" font-family="monospace">Flat strip = 370.4 mm</text>
  <rect x="50" y="308" width="12" height="8" fill="#6b7280" rx="2"/>
  <text x="66" y="316" fill="#94a3b8" font-size="10" font-family="monospace">Flat / pre-bend</text>
  <rect x="210" y="308" width="12" height="8" fill="#7c3aed" rx="2"/>
  <text x="226" y="316" fill="#94a3b8" font-size="10" font-family="monospace">Early forming</text>
  <rect x="370" y="308" width="12" height="8" fill="#6366f1" rx="2"/>
  <text x="386" y="316" fill="#94a3b8" font-size="10" font-family="monospace">Mid forming</text>
  <rect x="530" y="308" width="12" height="8" fill="#3b82f6" rx="2"/>
  <text x="546" y="316" fill="#94a3b8" font-size="10" font-family="monospace">Final form</text>
  <rect x="690" y="308" width="12" height="8" fill="#22c55e" rx="2"/>
  <text x="706" y="316" fill="#94a3b8" font-size="10" font-family="monospace">Calibration</text>
  <text x="50" y="62" fill="#f8fafc" font-size="11" font-family="monospace">Profile: shutter_slat</text>
  <text x="185" y="62" fill="#fbbf24" font-size="11" font-family="monospace">Web = 260 mm</text>
  <text x="320" y="62" fill="#4ade80" font-size="11" font-family="monospace">Flange = 16 mm</text>
  <text x="455" y="62" fill="#f87171" font-size="11" font-family="monospace">t = 1.4 mm</text>
  <text x="590" y="62" fill="#94a3b8" font-size="11" font-family="monospace">Material = GI</text>
  <text x="725" y="62" fill="#c084fc" font-size="11" font-family="monospace">Stations = 22</text>
</svg>