<svg xmlns="http://www.w3.org/2000/svg" width="900" height="340" viewBox="0 0 900 340">
  <rect width="100%" height="100%" fill="#0a0f1e"/>
  <text x="10" y="20" fill="#f8fafc" font-size="14" font-weight="bold" font-family="sans-serif">Flower Pattern — lipped_channel (130×55 mm) · 16 stations · shapely-computed 2D polygons</text>
  <path d="M 70.81 213.05 L 243.10 227.52 L 656.90 227.52 L 828.80 213.08 L 826.37 184.20 L 831.45 183.78 L 834.30 217.73 L 657.11 232.61 L 242.89 232.61 L 66.09 217.77 L 63.27 184.20 L 68.35 183.78 L 70.81 213.05 Z" fill="#6b7280" fill-opacity="0.55" stroke="#6b7280" stroke-width="0.8" stroke-opacity="0.9"/>
  <path d="M 77.01 178.56 L 243.36 227.52 L 656.64 227.52 L 821.88 178.88 L 813.69 151.08 L 818.58 149.64 L 828.20 182.33 L 657.37 232.61 L 242.63 232.61 L 72.91 182.66 L 63.61 151.08 L 68.50 149.64 L 77.01 178.56 Z" fill="#6b7280" fill-opacity="0.55" stroke="#6b7280" stroke-width="0.8" stroke-opacity="0.9"/>
  <path d="M 94.24 138.78 L 243.69 227.52 L 656.31 227.52 L 804.13 139.75 L 789.33 114.83 L 793.71 112.23 L 811.11 141.53 L 657.71 232.61 L 242.29 232.61 L 90.52 142.50 L 74.10 114.83 L 78.48 112.23 L 94.24 138.78 Z" fill="#6b7280" fill-opacity="0.55" stroke="#6b7280" stroke-width="0.8" stroke-opacity="0.9"/>
  <path d="M 117.53 107.91 L 244.01 227.52 L 655.99 227.52 L 780.67 109.61 L 760.76 88.56 L 764.46 85.06 L 787.87 109.81 L 658.02 232.61 L 241.98 232.61 L 113.93 111.52 L 92.21 88.56 L 95.92 85.06 L 117.53 107.91 Z" fill="#7c3aed" fill-opacity="0.70" stroke="#7c3aed" stroke-width="0.8" stroke-opacity="0.9"/>
  <path d="M 132.92 93.49 L 244.19 227.52 L 655.81 227.52 L 765.30 95.63 L 743.01 77.12 L 746.26 73.20 L 772.48 94.96 L 658.20 232.61 L 241.80 232.61 L 129.30 97.11 L 105.22 77.12 L 108.48 73.20 L 132.92 93.49 Z" fill="#7c3aed" fill-opacity="0.70" stroke="#7c3aed" stroke-width="0.8" stroke-opacity="0.9"/>
  <path d="M 135.29 91.55 L 244.22 227.52 L 655.78 227.52 L 762.94 93.76 L 740.32 75.64 L 743.51 71.66 L 770.10 92.97 L 658.23 232.61 L 241.77 232.61 L 131.66 95.18 L 107.28 75.64 L 110.46 71.66 L 135.29 91.55 Z" fill="#7c3aed" fill-opacity="0.70" stroke="#7c3aed" stroke-width="0.8" stroke-opacity="0.9"/>
  <path d="M 142.11 86.35 L 244.29 227.52 L 655.71 227.52 L 756.16 88.75 L 732.68 71.75 L 735.67 67.63 L 763.27 87.61 L 658.31 232.61 L 241.69 232.61 L 138.46 90.00 L 113.25 71.75 L 116.24 67.63 L 142.11 86.35 Z" fill="#7c3aed" fill-opacity="0.70" stroke="#7c3aed" stroke-width="0.8" stroke-opacity="0.9"/>
  <path d="M 153.59 78.70 L 244.42 227.52 L 655.58 227.52 L 744.76 81.40 L 720.03 66.30 L 722.68 61.96 L 751.77 79.71 L 658.44 232.61 L 241.56 232.61 L 149.88 82.41 L 123.50 66.30 L 126.15 61.96 L 153.59 78.70 Z" fill="#6366f1" fill-opacity="0.80" stroke="#6366f1" stroke-width="0.8" stroke-opacity="0.9"/>
  <path d="M 168.94 70.32 L 244.59 227.52 L 655.41 227.52 L 729.57 73.42 L 703.45 60.85 L 705.66 56.26 L 736.37 71.04 L 658.61 232.61 L 241.39 232.61 L 165.13 74.14 L 137.52 60.85 L 139.73 56.26 L 168.94 70.32 Z" fill="#6366f1" fill-opacity="0.80" stroke="#6366f1" stroke-width="0.8" stroke-opacity="0.9"/>
  <path d="M 186.52 62.96 L 244.79 227.52 L 655.21 227.52 L 712.22 66.50 L 684.91 56.83 L 686.61 52.03 L 718.73 63.40 L 658.81 232.61 L 241.19 232.61 L 182.53 66.95 L 153.95 56.83 L 155.65 52.03 L 186.52 62.96 Z" fill="#6366f1" fill-opacity="0.80" stroke="#6366f1" stroke-width="0.8" stroke-opacity="0.9"/>
  <path d="M 205.12 57.41 L 245.01 227.52 L 654.99 227.52 L 693.94 61.43 L 665.73 54.81 L 666.89 49.85 L 700.07 57.63 L 659.03 232.61 L 240.97 232.61 L 200.88 61.65 L 171.72 54.81 L 172.88 49.85 L 205.12 57.41 Z" fill="#6366f1" fill-opacity="0.80" stroke="#6366f1" stroke-width="0.8" stroke-opacity="0.9"/>
  <path d="M 223.01 54.05 L 245.24 227.52 L 654.76 227.52 L 676.41 58.53 L 647.67 54.85 L 648.31 49.79 L 682.11 54.12 L 659.25 232.61 L 240.75 232.61 L 218.46 58.60 L 189.14 54.85 L 189.79 49.79 L 223.01 54.05 Z" fill="#6366f1" fill-opacity="0.80" stroke="#6366f1" stroke-width="0.8" stroke-opacity="0.9"/>
  <path d="M 237.80 52.63 L 245.43 227.52 L 654.57 227.52 L 661.99 57.51 L 633.04 56.24 L 633.26 51.15 L 667.30 52.64 L 659.45 232.61 L 240.55 232.61 L 232.91 57.51 L 203.74 56.24 L 203.97 51.15 L 237.80 52.63 Z" fill="#3b82f6" fill-opacity="0.90" stroke="#3b82f6" stroke-width="0.8" stroke-opacity="0.9"/>
  <path d="M 245.54 52.36 L 245.54 227.52 L 654.46 227.52 L 654.46 57.45 L 625.48 57.45 L 625.48 52.36 L 659.55 52.36 L 659.55 232.61 L 240.45 232.61 L 240.45 57.45 L 211.46 57.45 L 211.46 52.36 L 245.54 52.36 Z" fill="#3b82f6" fill-opacity="0.90" stroke="#3b82f6" stroke-width="0.8" stroke-opacity="0.9"/>
  <path d="M 245.54 52.36 L 245.54 227.52 L 654.46 227.52 L 654.46 57.45 L 625.48 57.45 L 625.48 52.36 L 659.55 52.36 L 659.55 232.61 L 240.45 232.61 L 240.45 57.45 L 211.46 57.45 L 211.46 52.36 L 245.54 52.36 Z" fill="#3b82f6" fill-opacity="0.90" stroke="#3b82f6" stroke-width="0.8" stroke-opacity="0.9"/>
  <path d="M 245.54 52.36 L 245.54 227.52 L 654.46 227.52 L 654.46 57.45 L 625.48 57.45 L 625.48 52.36 L 659.55 52.36 L 659.55 232.61 L 240.45 232.61 L 240.45 57.45 L 211.46 57.45 L 211.46 52.36 L 245.54 52.36 Z" fill="#22c55e" fill-opacity="0.85" stroke="#22c55e" stroke-width="0.8" stroke-opacity="0.9"/>
  <line x1="-15.1" y1="248.1" x2="915.1" y2="248.1" stroke="#fbbf24" stroke-width="1.5" stroke-dasharray="5,3"/>
  <text x="450.0" y="262.1" text-anchor="middle" fill="#fbbf24" font-size="10" font-family="monospace">Flat strip = 292.1 mm</text>
  <rect x="50" y="308" width="12" height="8" fill="#6b7280" rx="2"/>
  <text x="66" y="316" fill="#94a3b8" font-size="10" font-family="monospace">Flat / pre-bend</text>
  <rect x="210" y="308" width="12" height="8" fill="#7c3aed" rx="2"/>
  <text x="226" y="316" fill="#94a3b8" font-size="10" font-family="monospace">Early forming</text>
  <rect x="370" y="308" width="12" height="8" fill="#6366f1" rx="2"/>
  <text x="386" y="316" fill="#94a3b8" font-size="10" font-family="monospace">Mid forming</text>
  <rect x="530" y="308" width="12" height="8" fill="#3b82f6" rx="2"/>
  <text x="546" y="316" fill="#94a3b8" font-size="10" font-family="monospace">Final form</text>
  <rect x="690" y="308" width="12" height="8" fill="#22c55e" rx="2"/>
  <text x="706" y="316" fill="#94a3b8" font-size="10" font-family="monospace">Calibration</text>
  <text x="50" y="62" fill="#f8fafc" font-size="11" font-family="monospace">Profile: lipped_channel</text>
  <text x="185" y="62" fill="#fbbf24" font-size="11" font-family="monospace">Web = 130 mm</text>
  <text x="320" y="62" fill="#4ade80" font-size="11" font-family="monospace">Flange = 55 mm</text>
  <text x="455" y="62" fill="#f87171" font-size="11" font-family="monospace">t = 1.6 mm</text>
  <text x="590" y="62" fill="#94a3b8" font-size="11" font-family="monospace">Material = CR</text>
  <text x="725" y="62" fill="#c084fc" font-size="11" font-family="monospace">Stations = 16</text>
</svg>