<svg xmlns="http://www.w3.org/2000/svg" width="280" height="220" viewBox="0 0 280 220">
  <rect width="100%" height="100%" fill="#0a0f1e"/>
  <path d="M 62.81 1.12 L 62.81 -40.72 L 217.19 -40.72 L 217.19 1.12 L 210.22 1.12 L 210.22 83.81 L 77.72 83.81 L 77.72 158.56 L 69.78 158.56 L 69.78 75.87 L 202.28 75.87 L 202.28 1.12 L 62.81 1.12 Z" fill="#1e3a5f" fill-opacity="0.7" stroke="#60a5fa" stroke-width="1.8"/>
  <path d="M 217.19 158.56 L 217.19 200.41 L 62.81 200.41 L 62.81 158.56 L 202.28 158.56 L 202.28 83.81 L 69.78 83.81 L 69.78 1.12 L 77.72 1.12 L 77.72 75.87 L 210.22 75.87 L 210.22 158.56 L 217.19 158.56 Z" fill="#14532d" fill-opacity="0.5" stroke="#4ade80" stroke-width="1.5" stroke-dasharray="4,2"/>
  <line x1="62.6" y1="77.8" x2="217.4" y2="77.8" stroke="#fbbf24" stroke-width="1" stroke-dasharray="3,2"/>
  <line x1="216.24771312073904" y1="79.8" x2="216.24771312073904" y2="75.8" stroke="#f59e0b" stroke-width="1.2"/>
  <text x="220.24771312073904" y="77.8" fill="#f59e0b" font-size="9" font-family="monospace">gap=2.89mm</text>
  <text x="140" y="14" text-anchor="middle" fill="#22c55e" font-size="10" font-weight="bold" font-family="monospace">Stn 12 (Calibration)</text>
  <text x="140" y="26" text-anchor="middle" fill="#a78bfa" font-size="10" font-family="monospace">90.0° · calibration</text>
  <text x="6" y="172" fill="#60a5fa" font-size="9" font-family="monospace">Upper Ø 478mm (r=239.2mm)</text>
  <text x="6" y="184" fill="#4ade80" font-size="9" font-family="monospace">Lower Ø 258mm (r=129.2mm)</text>
  <text x="6" y="196" fill="#94a3b8" font-size="9" font-family="monospace">Roll W=113.8mm  Depth=55.0mm</text>
</svg>