<svg xmlns="http://www.w3.org/2000/svg" width="280" height="220" viewBox="0 0 280 220">
  <rect width="100%" height="100%" fill="#0a0f1e"/>
  <path d="M 20.35 32.49 L 20.35 4.14 L 259.65 4.14 L 259.65 32.49 L 254.93 32.49 L 254.93 67.89 L 25.07 67.89 L 25.07 32.49 L 20.35 32.49 Z" fill="#1e3a5f" fill-opacity="0.7" stroke="#60a5fa" stroke-width="1.8"/>
  <path d="M 259.65 67.89 L 259.65 96.24 L 254.93 96.24 L 254.93 100.20 L 251.84 100.20 L 251.84 96.24 L 28.16 96.24 L 28.16 100.20 L 25.07 100.20 L 25.07 96.24 L 20.35 96.24 L 20.35 67.89 L 25.07 67.89 L 25.07 64.80 L 254.93 64.80 L 254.93 67.89 L 259.65 67.89 Z" fill="#14532d" fill-opacity="0.5" stroke="#4ade80" stroke-width="1.5" stroke-dasharray="4,2"/>
  <line x1="19.1" y1="65.6" x2="260.9" y2="65.6" stroke="#fbbf24" stroke-width="1" stroke-dasharray="3,2"/>
  <line x1="263.38582677165357" y1="66.3" x2="263.38582677165357" y2="64.8" stroke="#f59e0b" stroke-width="1.2"/>
  <text x="267.38582677165357" y="65.6" fill="#f59e0b" font-size="9" font-family="monospace">gap=1.67mm</text>
  <text x="140" y="14" text-anchor="middle" fill="#22c55e" font-size="10" font-weight="bold" font-family="monospace">Stn 14 (Calibration)</text>
  <text x="140" y="26" text-anchor="middle" fill="#a78bfa" font-size="10" font-family="monospace">90.0° · calibration</text>
  <text x="6" y="172" fill="#60a5fa" font-size="9" font-family="monospace">Upper Ø 175mm (r=87.6mm)</text>
  <text x="6" y="184" fill="#4ade80" font-size="9" font-family="monospace">Lower Ø 102mm (r=51.0mm)</text>
  <text x="6" y="196" fill="#94a3b8" font-size="9" font-family="monospace">Roll W=263.8mm  Depth=35.0mm</text>
</svg>