<svg xmlns="http://www.w3.org/2000/svg" width="280" height="220" viewBox="0 0 280 220">
  <rect width="100%" height="100%" fill="#0a0f1e"/>
  <path d="M 20.94 12.47 L 20.94 -24.64 L 259.06 -24.64 L 259.06 12.47 L 252.87 12.47 L 252.87 76.64 L 27.13 76.64 L 27.13 12.47 L 20.94 12.47 Z" fill="#1e3a5f" fill-opacity="0.7" stroke="#60a5fa" stroke-width="1.8"/>
  <path d="M 259.06 76.64 L 259.06 113.76 L 252.87 113.76 L 252.87 137.76 L 249.81 137.76 L 249.81 113.76 L 30.19 113.76 L 30.19 137.76 L 27.13 137.76 L 27.13 113.76 L 20.94 113.76 L 20.94 76.64 L 27.13 76.64 L 27.13 73.58 L 252.87 73.58 L 252.87 76.64 L 259.06 76.64 Z" fill="#14532d" fill-opacity="0.5" stroke="#4ade80" stroke-width="1.5" stroke-dasharray="4,2"/>
  <line x1="18.8" y1="74.3" x2="261.2" y2="74.3" stroke="#fbbf24" stroke-width="1" stroke-dasharray="3,2"/>
  <line x1="261.340206185567" y1="75.1" x2="261.340206185567" y2="73.5" stroke="#f59e0b" stroke-width="1.2"/>
  <text x="265.340206185567" y="74.3" fill="#f59e0b" font-size="9" font-family="monospace">gap=1.27mm</text>
  <text x="140" y="14" text-anchor="middle" fill="#22c55e" font-size="10" font-weight="bold" font-family="monospace">Stn 10 (Calibration)</text>
  <text x="140" y="26" text-anchor="middle" fill="#a78bfa" font-size="10" font-family="monospace">90.0° · calibration</text>
  <text x="6" y="172" fill="#60a5fa" font-size="9" font-family="monospace">Upper Ø 228mm (r=114.0mm)</text>
  <text x="6" y="184" fill="#4ade80" font-size="9" font-family="monospace">Lower Ø 127mm (r=63.4mm)</text>
  <text x="6" y="196" fill="#94a3b8" font-size="9" font-family="monospace">Roll W=197.2mm  Depth=50.0mm</text>
</svg>