<svg xmlns="http://www.w3.org/2000/svg" width="280" height="220" viewBox="0 0 280 220">
  <rect width="100%" height="100%" fill="#0a0f1e"/>
  <path d="M -97.32 71.33 L -97.32 27.43 L 377.32 27.43 L 377.32 71.33 L 369.55 71.33 L -89.55 71.33 L -97.32 71.33 Z M 249.64 75.94 L 369.55 71.33 L 370.01 83.25 L 249.87 87.87 L 30.13 87.87 L -90.01 83.25 L -89.55 71.33 L 30.36 75.94 L 249.64 75.94 Z" fill="#1e3a5f" fill-opacity="0.7" stroke="#60a5fa" stroke-width="1.8"/>
  <path d="M 377.32 87.87 L 377.32 131.77 L -97.32 131.77 L -97.32 87.87 L -89.73 87.87 L -90.01 80.55 L 30.13 75.94 L 249.87 75.94 L 370.01 80.55 L 369.73 87.87 L 377.32 87.87 Z" fill="#14532d" fill-opacity="0.5" stroke="#4ade80" stroke-width="1.5" stroke-dasharray="4,2"/>
  <line x1="18.5" y1="78.9" x2="261.5" y2="78.9" stroke="#fbbf24" stroke-width="1" stroke-dasharray="3,2"/>
  <line x1="259.7560975609756" y1="81.9" x2="259.7560975609756" y2="75.8" stroke="#f59e0b" stroke-width="1.2"/>
  <text x="263.7560975609756" y="78.9" fill="#f59e0b" font-size="9" font-family="monospace">gap=4.15mm</text>
  <text x="140" y="14" text-anchor="middle" fill="#94a3b8" font-size="10" font-weight="bold" font-family="monospace">Stn 1</text>
  <text x="140" y="26" text-anchor="middle" fill="#a78bfa" font-size="10" font-family="monospace">2.2° · pre_bend</text>
  <text x="6" y="172" fill="#60a5fa" font-size="9" font-family="monospace">Upper Ø 240mm (r=120.0mm)</text>
  <text x="6" y="184" fill="#4ade80" font-size="9" font-family="monospace">Lower Ø 186mm (r=92.9mm)</text>
  <text x="6" y="196" fill="#94a3b8" font-size="9" font-family="monospace">Roll W=330.8mm  Depth=3.4mm</text>
</svg>