<svg xmlns="http://www.w3.org/2000/svg" width="280" height="220" viewBox="0 0 280 220">
  <rect width="100%" height="100%" fill="#0a0f1e"/>
  <path d="M -74.76 85.96 L -74.76 27.89 L 354.76 27.89 L 354.76 85.96 L 344.61 85.96 L -64.61 85.96 L -74.76 85.96 Z M 246.33 92.48 L 344.61 85.96 L 345.09 93.10 L 246.57 99.65 L 33.43 99.65 L -65.09 93.10 L -64.61 85.96 L 33.67 92.48 L 246.33 92.48 Z" fill="#1e3a5f" fill-opacity="0.7" stroke="#60a5fa" stroke-width="1.8"/>
  <path d="M 354.76 99.65 L 354.76 157.71 L -74.76 157.71 L -74.76 99.65 L -65.04 99.65 L -65.09 99.03 L 33.43 92.48 L 246.57 92.48 L 345.09 99.03 L 345.04 99.65 L 354.76 99.65 Z" fill="#14532d" fill-opacity="0.5" stroke="#4ade80" stroke-width="1.5" stroke-dasharray="4,2"/>
  <line x1="18.1" y1="94.2" x2="261.9" y2="94.2" stroke="#fbbf24" stroke-width="1" stroke-dasharray="3,2"/>
  <line x1="256.4516129032258" y1="96.1" x2="256.4516129032258" y2="92.4" stroke="#f59e0b" stroke-width="1.2"/>
  <text x="260.4516129032258" y="94.2" fill="#f59e0b" font-size="9" font-family="monospace">gap=1.90mm</text>
  <text x="140" y="14" text-anchor="middle" fill="#94a3b8" font-size="10" font-weight="bold" font-family="monospace">Stn 1</text>
  <text x="140" y="26" text-anchor="middle" fill="#a78bfa" font-size="10" font-family="monospace">3.8° · pre_bend</text>
  <text x="6" y="172" fill="#60a5fa" font-size="9" font-family="monospace">Upper Ø 188mm (r=94.0mm)</text>
  <text x="6" y="184" fill="#4ade80" font-size="9" font-family="monospace">Lower Ø 150mm (r=74.8mm)</text>
  <text x="6" y="196" fill="#94a3b8" font-size="9" font-family="monospace">Roll W=228.6mm  Depth=3.0mm</text>
</svg>