<svg xmlns="http://www.w3.org/2000/svg" width="280" height="220" viewBox="0 0 280 220">
  <rect width="100%" height="100%" fill="#0a0f1e"/>
  <path d="M -130.67 46.90 L -130.67 -19.16 L 410.67 -19.16 L 410.67 46.90 L 394.62 46.90 L -114.62 46.90 L -130.67 46.90 Z M 35.72 98.39 L 244.28 98.39 L 387.15 82.61 L 383.34 48.14 L 394.62 46.90 L 399.67 92.64 L 244.90 109.72 L 35.10 109.72 L -119.67 92.64 L -114.62 46.90 L -103.34 48.14 L -107.15 82.61 L 35.72 98.39 Z" fill="#1e3a5f" fill-opacity="0.7" stroke="#60a5fa" stroke-width="1.8"/>
  <path d="M 410.67 109.72 L 410.67 175.78 L -130.67 175.78 L -130.67 109.72 L -67.61 109.72 L 35.10 98.39 L 244.90 98.39 L 347.61 109.72 L 410.67 109.72 Z" fill="#14532d" fill-opacity="0.5" stroke="#4ade80" stroke-width="1.5" stroke-dasharray="4,2"/>
  <line x1="17.8" y1="101.1" x2="262.2" y2="101.1" stroke="#fbbf24" stroke-width="1" stroke-dasharray="3,2"/>
  <line x1="254.58715596330276" y1="104.1" x2="254.58715596330276" y2="98.2" stroke="#f59e0b" stroke-width="1.2"/>
  <text x="258.58715596330273" y="101.1" fill="#f59e0b" font-size="9" font-family="monospace">gap=2.65mm</text>
  <text x="140" y="14" text-anchor="middle" fill="#94a3b8" font-size="10" font-weight="bold" font-family="monospace">Stn 1</text>
  <text x="140" y="26" text-anchor="middle" fill="#a78bfa" font-size="10" font-family="monospace">6.3° · pre_bend</text>
  <text x="6" y="172" fill="#60a5fa" font-size="9" font-family="monospace">Upper Ø 213mm (r=106.5mm)</text>
  <text x="6" y="184" fill="#4ade80" font-size="9" font-family="monospace">Lower Ø 168mm (r=84.1mm)</text>
  <text x="6" y="196" fill="#94a3b8" font-size="9" font-family="monospace">Roll W=248.9mm  Depth=5.2mm</text>
</svg>