<svg xmlns="http://www.w3.org/2000/svg" width="280" height="220" viewBox="0 0 280 220">
  <rect width="100%" height="100%" fill="#0a0f1e"/>
  <path d="M -69.65 77.47 L -69.65 27.47 L 349.65 27.47 L 349.65 77.47 L 340.86 77.47 L -60.86 77.47 L -69.65 77.47 Z M 248.22 85.25 L 340.86 77.47 L 341.32 82.95 L 248.45 90.75 L 31.55 90.75 L -61.32 82.95 L -60.86 77.47 L 31.78 85.25 L 248.22 85.25 Z" fill="#1e3a5f" fill-opacity="0.7" stroke="#60a5fa" stroke-width="1.8"/>
  <path d="M 349.65 90.75 L 349.65 140.75 L -69.65 140.75 L -69.65 90.75 L -33.95 90.75 L 31.55 85.25 L 248.45 85.25 L 313.95 90.75 L 349.65 90.75 Z" fill="#14532d" fill-opacity="0.5" stroke="#4ade80" stroke-width="1.5" stroke-dasharray="4,2"/>
  <line x1="18.3" y1="86.6" x2="261.7" y2="86.6" stroke="#fbbf24" stroke-width="1" stroke-dasharray="3,2"/>
  <line x1="258.33333333333337" y1="88.0" x2="258.33333333333337" y2="85.2" stroke="#f59e0b" stroke-width="1.2"/>
  <text x="262.33333333333337" y="86.6" fill="#f59e0b" font-size="9" font-family="monospace">gap=1.70mm</text>
  <text x="140" y="14" text-anchor="middle" fill="#94a3b8" font-size="10" font-weight="bold" font-family="monospace">Stn 1</text>
  <text x="140" y="26" text-anchor="middle" fill="#a78bfa" font-size="10" font-family="monospace">4.8° · pre_bend</text>
  <text x="6" y="172" fill="#60a5fa" font-size="9" font-family="monospace">Upper Ø 191mm (r=95.5mm)</text>
  <text x="6" y="184" fill="#4ade80" font-size="9" font-family="monospace">Lower Ø 156mm (r=78.1mm)</text>
  <text x="6" y="196" fill="#94a3b8" font-size="9" font-family="monospace">Roll W=258.3mm  Depth=3.7mm</text>
</svg>