<svg xmlns="http://www.w3.org/2000/svg" width="280" height="220" viewBox="0 0 280 220">
  <rect width="100%" height="100%" fill="#0a0f1e"/>
  <path d="M -127.08 93.20 L -127.08 24.16 L 407.08 24.16 L 407.08 93.20 L 395.05 93.20 L -115.05 93.20 L -127.08 93.20 Z M 231.92 102.32 L 395.05 93.20 L 395.57 102.62 L 232.19 111.76 L 47.81 111.76 L -115.57 102.62 L -115.05 93.20 L 48.08 102.32 L 231.92 102.32 Z" fill="#1e3a5f" fill-opacity="0.7" stroke="#60a5fa" stroke-width="1.8"/>
  <path d="M 407.08 111.76 L 407.08 180.80 L -127.08 180.80 L -127.08 111.76 L -115.56 111.76 L -115.57 111.46 L 47.81 102.32 L 232.19 102.32 L 395.57 111.46 L 395.56 111.76 L 407.08 111.76 Z" fill="#14532d" fill-opacity="0.5" stroke="#4ade80" stroke-width="1.5" stroke-dasharray="4,2"/>
  <line x1="29.5" y1="104.6" x2="250.5" y2="104.6" stroke="#fbbf24" stroke-width="1" stroke-dasharray="3,2"/>
  <line x1="242.0536076891837" y1="107.0" x2="242.0536076891837" y2="102.2" stroke="#f59e0b" stroke-width="1.2"/>
  <text x="246.0536076891837" y="104.6" fill="#f59e0b" font-size="9" font-family="monospace">gap=2.10mm</text>
  <text x="140" y="14" text-anchor="middle" fill="#94a3b8" font-size="10" font-weight="bold" font-family="monospace">Stn 1</text>
  <text x="140" y="26" text-anchor="middle" fill="#a78bfa" font-size="10" font-family="monospace">3.2° · pre_bend</text>
  <text x="6" y="172" fill="#60a5fa" font-size="9" font-family="monospace">Upper Ø 210mm (r=105.0mm)</text>
  <text x="6" y="184" fill="#4ade80" font-size="9" font-family="monospace">Lower Ø 198mm (r=99.1mm)</text>
  <text x="6" y="196" fill="#94a3b8" font-size="9" font-family="monospace">Roll W=235.9mm  Depth=7.8mm</text>
</svg>