<svg xmlns="http://www.w3.org/2000/svg" width="900" height="340" viewBox="0 0 900 340">
  <rect width="100%" height="100%" fill="#0a0f1e"/>
  <text x="10" y="20" fill="#f8fafc" font-size="14" font-weight="bold" font-family="sans-serif">Flower Pattern — door_frame (85×70 mm) · 18 stations · shapely-computed 2D polygons</text>
  <path d="M 158.92 217.12 L 338.81 229.38 L 561.19 229.38 L 741.08 217.12 L 738.16 174.28 L 743.91 173.88 L 747.22 222.47 L 561.38 235.14 L 338.62 235.14 L 152.78 222.47 L 156.09 173.88 L 161.84 174.28 L 158.92 217.12 Z" fill="#6b7280" fill-opacity="0.55" stroke="#6b7280" stroke-width="0.8" stroke-opacity="0.9"/>
  <path d="M 164.04 187.04 L 339.06 229.38 L 560.94 229.38 L 735.96 187.04 L 725.86 145.30 L 731.46 143.95 L 742.91 191.29 L 561.63 235.14 L 338.37 235.14 L 157.09 191.29 L 168.54 143.95 L 174.14 145.30 L 164.04 187.04 Z" fill="#6b7280" fill-opacity="0.55" stroke="#6b7280" stroke-width="0.8" stroke-opacity="0.9"/>
  <path d="M 178.11 150.03 L 339.39 229.38 L 560.61 229.38 L 721.89 150.03 L 702.93 111.50 L 708.10 108.95 L 729.60 152.65 L 561.95 235.14 L 338.05 235.14 L 170.40 152.65 L 191.90 108.95 L 197.07 111.50 L 178.11 150.03 Z" fill="#6b7280" fill-opacity="0.55" stroke="#6b7280" stroke-width="0.8" stroke-opacity="0.9"/>
  <path d="M 199.72 117.21 L 339.73 229.38 L 560.27 229.38 L 700.28 117.21 L 673.43 83.70 L 677.93 80.10 L 708.38 118.11 L 562.30 235.14 L 337.70 235.14 L 191.62 118.11 L 222.07 80.10 L 226.57 83.70 L 199.72 117.21 Z" fill="#7c3aed" fill-opacity="0.70" stroke="#7c3aed" stroke-width="0.8" stroke-opacity="0.9"/>
  <path d="M 220.61 95.85 L 340.00 229.38 L 560.00 229.38 L 679.39 95.85 L 647.37 67.23 L 651.21 62.93 L 687.52 95.40 L 562.57 235.14 L 337.43 235.14 L 212.48 95.40 L 248.79 62.93 L 252.63 67.23 L 220.61 95.85 Z" fill="#7c3aed" fill-opacity="0.70" stroke="#7c3aed" stroke-width="0.8" stroke-opacity="0.9"/>
  <path d="M 229.16 88.90 L 340.11 229.38 L 559.89 229.38 L 670.84 88.90 L 637.14 62.28 L 640.71 57.76 L 678.93 87.94 L 562.68 235.14 L 337.32 235.14 L 221.07 87.94 L 259.29 57.76 L 262.86 62.28 L 229.16 88.90 Z" fill="#7c3aed" fill-opacity="0.70" stroke="#7c3aed" stroke-width="0.8" stroke-opacity="0.9"/>
  <path d="M 231.93 86.82 L 340.15 229.38 L 559.85 229.38 L 668.07 86.82 L 633.86 60.86 L 637.34 56.27 L 676.14 85.71 L 562.71 235.14 L 337.29 235.14 L 223.86 85.71 L 262.66 56.27 L 266.14 60.86 L 231.93 86.82 Z" fill="#7c3aed" fill-opacity="0.70" stroke="#7c3aed" stroke-width="0.8" stroke-opacity="0.9"/>
  <path d="M 238.90 81.95 L 340.23 229.38 L 559.77 229.38 L 661.10 81.95 L 625.71 57.63 L 628.97 52.88 L 669.11 80.47 L 562.80 235.14 L 337.20 235.14 L 230.89 80.47 L 271.03 52.88 L 274.29 57.63 L 238.90 81.95 Z" fill="#7c3aed" fill-opacity="0.70" stroke="#7c3aed" stroke-width="0.8" stroke-opacity="0.9"/>
  <path d="M 249.91 75.20 L 340.37 229.38 L 559.63 229.38 L 650.09 75.20 L 613.06 53.47 L 615.97 48.50 L 657.98 73.14 L 562.93 235.14 L 337.07 235.14 L 242.02 73.14 L 284.03 48.50 L 286.94 53.47 L 249.91 75.20 Z" fill="#6366f1" fill-opacity="0.80" stroke="#6366f1" stroke-width="0.8" stroke-opacity="0.9"/>
  <path d="M 263.93 68.06 L 340.54 229.38 L 559.46 229.38 L 636.07 68.06 L 597.28 49.64 L 599.75 44.43 L 643.74 65.32 L 563.11 235.14 L 336.89 235.14 L 256.26 65.32 L 300.25 44.43 L 302.72 49.64 L 263.93 68.06 Z" fill="#6366f1" fill-opacity="0.80" stroke="#6366f1" stroke-width="0.8" stroke-opacity="0.9"/>
  <path d="M 280.02 61.64 L 340.74 229.38 L 559.26 229.38 L 619.98 61.64 L 579.61 47.03 L 581.57 41.61 L 627.36 58.19 L 563.30 235.14 L 336.70 235.14 L 272.64 58.19 L 318.43 41.61 L 320.39 47.03 L 280.02 61.64 Z" fill="#6366f1" fill-opacity="0.80" stroke="#6366f1" stroke-width="0.8" stroke-opacity="0.9"/>
  <path d="M 297.56 56.59 L 340.96 229.38 L 559.04 229.38 L 602.44 56.59 L 560.79 46.12 L 562.20 40.54 L 609.43 52.40 L 563.53 235.14 L 336.47 235.14 L 290.57 52.40 L 337.80 40.54 L 339.21 46.12 L 297.56 56.59 Z" fill="#6366f1" fill-opacity="0.80" stroke="#6366f1" stroke-width="0.8" stroke-opacity="0.9"/>
  <path d="M 314.59 53.45 L 341.19 229.38 L 558.81 229.38 L 585.41 53.45 L 542.95 47.03 L 543.82 41.33 L 591.97 48.61 L 563.76 235.14 L 336.24 235.14 L 308.03 48.61 L 356.18 41.33 L 357.05 47.03 L 314.59 53.45 Z" fill="#6366f1" fill-opacity="0.80" stroke="#6366f1" stroke-width="0.8" stroke-opacity="0.9"/>
  <path d="M 329.95 52.04 L 341.42 229.38 L 558.58 229.38 L 570.05 52.04 L 527.20 49.27 L 527.57 43.52 L 576.17 46.66 L 563.98 235.14 L 336.02 235.14 L 323.83 46.66 L 372.43 43.52 L 372.80 49.27 L 329.95 52.04 Z" fill="#6366f1" fill-opacity="0.80" stroke="#6366f1" stroke-width="0.8" stroke-opacity="0.9"/>
  <path d="M 341.60 51.85 L 341.60 229.38 L 558.40 229.38 L 558.40 51.85 L 515.46 51.85 L 515.46 46.09 L 564.16 46.09 L 564.16 235.14 L 335.84 235.14 L 335.84 46.09 L 384.54 46.09 L 384.54 51.85 L 341.60 51.85 Z" fill="#3b82f6" fill-opacity="0.90" stroke="#3b82f6" stroke-width="0.8" stroke-opacity="0.9"/>
  <path d="M 341.60 51.85 L 341.60 229.38 L 558.40 229.38 L 558.40 51.85 L 515.46 51.85 L 515.46 46.09 L 564.16 46.09 L 564.16 235.14 L 335.84 235.14 L 335.84 46.09 L 384.54 46.09 L 384.54 51.85 L 341.60 51.85 Z" fill="#3b82f6" fill-opacity="0.90" stroke="#3b82f6" stroke-width="0.8" stroke-opacity="0.9"/>
  <path d="M 341.60 51.85 L 341.60 229.38 L 558.40 229.38 L 558.40 51.85 L 515.46 51.85 L 515.46 46.09 L 564.16 46.09 L 564.16 235.14 L 335.84 235.14 L 335.84 46.09 L 384.54 46.09 L 384.54 51.85 L 341.60 51.85 Z" fill="#3b82f6" fill-opacity="0.90" stroke="#3b82f6" stroke-width="0.8" stroke-opacity="0.9"/>
  <path d="M 341.60 51.85 L 341.60 229.38 L 558.40 229.38 L 558.40 51.85 L 515.46 51.85 L 515.46 46.09 L 564.16 46.09 L 564.16 235.14 L 335.84 235.14 L 335.84 46.09 L 384.54 46.09 L 384.54 51.85 L 341.60 51.85 Z" fill="#22c55e" fill-opacity="0.85" stroke="#22c55e" stroke-width="0.8" stroke-opacity="0.9"/>
  <line x1="77.0" y1="250.3" x2="823.0" y2="250.3" stroke="#fbbf24" stroke-width="1.5" stroke-dasharray="5,3"/>
  <text x="450.0" y="264.3" text-anchor="middle" fill="#fbbf24" font-size="10" font-family="monospace">Flat strip = 284.9 mm</text>
  <rect x="50" y="308" width="12" height="8" fill="#6b7280" rx="2"/>
  <text x="66" y="316" fill="#94a3b8" font-size="10" font-family="monospace">Flat / pre-bend</text>
  <rect x="210" y="308" width="12" height="8" fill="#7c3aed" rx="2"/>
  <text x="226" y="316" fill="#94a3b8" font-size="10" font-family="monospace">Early forming</text>
  <rect x="370" y="308" width="12" height="8" fill="#6366f1" rx="2"/>
  <text x="386" y="316" fill="#94a3b8" font-size="10" font-family="monospace">Mid forming</text>
  <rect x="530" y="308" width="12" height="8" fill="#3b82f6" rx="2"/>
  <text x="546" y="316" fill="#94a3b8" font-size="10" font-family="monospace">Final form</text>
  <rect x="690" y="308" width="12" height="8" fill="#22c55e" rx="2"/>
  <text x="706" y="316" fill="#94a3b8" font-size="10" font-family="monospace">Calibration</text>
  <text x="50" y="62" fill="#f8fafc" font-size="11" font-family="monospace">Profile: door_frame</text>
  <text x="185" y="62" fill="#fbbf24" font-size="11" font-family="monospace">Web = 85 mm</text>
  <text x="320" y="62" fill="#4ade80" font-size="11" font-family="monospace">Flange = 70 mm</text>
  <text x="455" y="62" fill="#f87171" font-size="11" font-family="monospace">t = 2.2 mm</text>
  <text x="590" y="62" fill="#94a3b8" font-size="11" font-family="monospace">Material = SS</text>
  <text x="725" y="62" fill="#c084fc" font-size="11" font-family="monospace">Stations = 18</text>
</svg>