<svg xmlns="http://www.w3.org/2000/svg" width="280" height="220" viewBox="0 0 280 220">
  <rect width="100%" height="100%" fill="#0a0f1e"/>
  <path d="M 20.49 56.01 L 20.49 29.74 L 259.51 29.74 L 259.51 56.01 L 255.13 56.01 L 255.13 64.92 L 252.61 64.92 L 252.61 58.53 L 198.19 58.53 L 198.19 64.92 L 195.68 64.92 L 195.68 58.53 L 141.26 58.53 L 141.26 64.19 L 141.26 64.28 L 141.26 67.99 L 138.74 67.99 L 138.74 58.53 L 84.32 58.53 L 84.32 64.92 L 81.81 64.92 L 81.81 58.53 L 27.39 58.53 L 27.39 64.92 L 24.87 64.92 L 24.87 56.01 L 20.49 56.01 Z" fill="#1e3a5f" fill-opacity="0.7" stroke="#60a5fa" stroke-width="1.8"/>
  <path d="M 259.51 67.99 L 259.51 94.26 L 20.49 94.26 L 20.49 67.99 L 24.87 67.99 L 24.87 63.63 L 27.39 63.63 L 27.39 67.99 L 81.81 67.99 L 81.81 63.63 L 84.32 63.63 L 84.32 67.99 L 138.74 67.99 L 138.74 60.57 L 141.26 60.57 L 141.26 64.28 L 141.26 64.36 L 141.26 67.99 L 195.68 67.99 L 195.68 63.63 L 198.19 63.63 L 198.19 67.99 L 252.61 67.99 L 252.61 63.63 L 255.13 63.63 L 255.13 67.99 L 259.51 67.99 Z" fill="#14532d" fill-opacity="0.5" stroke="#4ade80" stroke-width="1.5" stroke-dasharray="4,2"/>
  <line x1="19.1" y1="63.6" x2="260.9" y2="63.6" stroke="#fbbf24" stroke-width="1" stroke-dasharray="3,2"/>
  <line x1="263.86861313868616" y1="64.3" x2="263.86861313868616" y2="63.0" stroke="#f59e0b" stroke-width="1.2"/>
  <text x="267.86861313868616" y="63.6" fill="#f59e0b" font-size="9" font-family="monospace">gap=1.47mm</text>
  <text x="140" y="14" text-anchor="middle" fill="#22c55e" font-size="10" font-weight="bold" font-family="monospace">Stn 22 (Calibration)</text>
  <text x="140" y="26" text-anchor="middle" fill="#a78bfa" font-size="10" font-family="monospace">90.0° · calibration</text>
  <text x="6" y="172" fill="#60a5fa" font-size="9" font-family="monospace">Upper Ø 150mm (r=75.0mm)</text>
  <text x="6" y="184" fill="#4ade80" font-size="9" font-family="monospace">Lower Ø 126mm (r=62.8mm)</text>
  <text x="6" y="196" fill="#94a3b8" font-size="9" font-family="monospace">Roll W=277.4mm  Depth=16.0mm</text>
</svg>