<svg xmlns="http://www.w3.org/2000/svg" width="280" height="220" viewBox="0 0 280 220">
  <rect width="100%" height="100%" fill="#0a0f1e"/>
  <path d="M 20.51 66.66 L 20.51 34.52 L 259.49 34.52 L 259.49 66.66 L 241.89 66.66 L 254.14 67.37 L 253.81 73.09 L 241.72 72.39 L 207.03 72.39 L 196.25 73.01 L 185.47 72.39 L 150.78 72.39 L 140.00 73.01 L 129.22 72.39 L 94.53 72.39 L 83.75 73.01 L 72.97 72.39 L 38.28 72.39 L 26.19 73.09 L 25.86 67.37 L 38.11 66.66 L 20.51 66.66 Z" fill="#1e3a5f" fill-opacity="0.7" stroke="#60a5fa" stroke-width="1.8"/>
  <path d="M 259.49 73.09 L 259.49 105.23 L 20.51 105.23 L 20.51 73.09 L 28.81 73.09 L 25.86 72.92 L 26.19 67.20 L 38.28 67.89 L 72.97 67.89 L 83.75 67.27 L 94.53 67.89 L 129.22 67.89 L 140.00 67.27 L 150.78 67.89 L 185.47 67.89 L 196.25 67.27 L 207.03 67.89 L 241.72 67.89 L 253.81 67.20 L 254.14 72.92 L 251.19 73.09 L 259.49 73.09 Z" fill="#14532d" fill-opacity="0.5" stroke="#4ade80" stroke-width="1.5" stroke-dasharray="4,2"/>
  <line x1="18.9" y1="68.7" x2="261.1" y2="68.7" stroke="#fbbf24" stroke-width="1" stroke-dasharray="3,2"/>
  <line x1="262.5" y1="70.1" x2="262.5" y2="67.2" stroke="#f59e0b" stroke-width="1.2"/>
  <text x="266.5" y="68.7" fill="#f59e0b" font-size="9" font-family="monospace">gap=2.75mm</text>
  <text x="140" y="14" text-anchor="middle" fill="#94a3b8" font-size="10" font-weight="bold" font-family="monospace">Stn 1</text>
  <text x="140" y="26" text-anchor="middle" fill="#a78bfa" font-size="10" font-family="monospace">3.3° · pre_bend</text>
  <text x="6" y="172" fill="#60a5fa" font-size="9" font-family="monospace">Upper Ø 166mm (r=83.0mm)</text>
  <text x="6" y="184" fill="#4ade80" font-size="9" font-family="monospace">Lower Ø 160mm (r=79.8mm)</text>
  <text x="6" y="196" fill="#94a3b8" font-size="9" font-family="monospace">Roll W=226.2mm  Depth=1.0mm</text>
</svg>