<svg xmlns="http://www.w3.org/2000/svg" width="280" height="220" viewBox="0 0 280 220">
  <rect width="100%" height="100%" fill="#0a0f1e"/>
  <path d="M -11.95 61.14 L -11.95 32.79 L 291.95 32.79 L 291.95 61.14 L 286.89 61.14 L -6.89 61.14 L -11.95 61.14 Z M 253.30 64.79 L 286.89 61.14 L 287.23 64.24 L 253.47 67.91 L 26.53 67.91 L -7.23 64.24 L -6.89 61.14 L 26.70 64.79 L 253.30 64.79 Z" fill="#1e3a5f" fill-opacity="0.7" stroke="#60a5fa" stroke-width="1.8"/>
  <path d="M 291.95 67.91 L 291.95 96.25 L -11.95 96.25 L -11.95 67.91 L -2.17 67.91 L 26.53 64.79 L 253.47 64.79 L 282.17 67.91 L 291.95 67.91 Z" fill="#14532d" fill-opacity="0.5" stroke="#4ade80" stroke-width="1.5" stroke-dasharray="4,2"/>
  <line x1="19.1" y1="65.5" x2="260.9" y2="65.5" stroke="#fbbf24" stroke-width="1" stroke-dasharray="3,2"/>
  <line x1="263.38582677165357" y1="66.3" x2="263.38582677165357" y2="64.7" stroke="#f59e0b" stroke-width="1.2"/>
  <text x="267.38582677165357" y="65.5" fill="#f59e0b" font-size="9" font-family="monospace">gap=1.70mm</text>
  <text x="140" y="14" text-anchor="middle" fill="#94a3b8" font-size="10" font-weight="bold" font-family="monospace">Stn 1</text>
  <text x="140" y="26" text-anchor="middle" fill="#a78bfa" font-size="10" font-family="monospace">6.2° · pre_bend</text>
  <text x="6" y="172" fill="#60a5fa" font-size="9" font-family="monospace">Upper Ø 171mm (r=85.5mm)</text>
  <text x="6" y="184" fill="#4ade80" font-size="9" font-family="monospace">Lower Ø 148mm (r=73.9mm)</text>
  <text x="6" y="196" fill="#94a3b8" font-size="9" font-family="monospace">Roll W=328.0mm  Depth=2.7mm</text>
</svg>