<svg xmlns="http://www.w3.org/2000/svg" width="280" height="220" viewBox="0 0 280 220">
  <rect width="100%" height="100%" fill="#0a0f1e"/>
  <path d="M 77.95 -14.70 L 77.95 -52.11 L 202.05 -52.11 L 202.05 -14.70 L 195.82 -14.70 L 195.82 78.22 L 84.18 78.22 L 84.18 -14.70 L 77.95 -14.70 Z" fill="#1e3a5f" fill-opacity="0.7" stroke="#60a5fa" stroke-width="1.8"/>
  <path d="M 202.05 78.22 L 202.05 115.64 L 195.82 115.64 L 195.82 165.53 L 169.74 165.53 L 169.74 159.91 L 190.20 159.91 L 190.20 115.64 L 89.80 115.64 L 89.80 159.91 L 110.26 159.91 L 110.26 165.53 L 84.18 165.53 L 84.18 115.64 L 77.95 115.64 L 77.95 78.22 L 84.18 78.22 L 84.18 72.61 L 195.82 72.61 L 195.82 78.22 L 202.05 78.22 Z" fill="#14532d" fill-opacity="0.5" stroke="#4ade80" stroke-width="1.5" stroke-dasharray="4,2"/>
  <line x1="77.0" y1="74.0" x2="203.0" y2="74.0" stroke="#fbbf24" stroke-width="1" stroke-dasharray="3,2"/>
  <line x1="203.00690373652816" y1="75.4" x2="203.00690373652816" y2="72.5" stroke="#f59e0b" stroke-width="1.2"/>
  <text x="207.00690373652816" y="74.0" fill="#f59e0b" font-size="9" font-family="monospace">gap=2.30mm</text>
  <text x="140" y="14" text-anchor="middle" fill="#22c55e" font-size="10" font-weight="bold" font-family="monospace">Stn 18 (Calibration)</text>
  <text x="140" y="26" text-anchor="middle" fill="#a78bfa" font-size="10" font-family="monospace">90.0° · calibration</text>
  <text x="6" y="172" fill="#60a5fa" font-size="9" font-family="monospace">Upper Ø 322mm (r=161.2mm)</text>
  <text x="6" y="184" fill="#4ade80" font-size="9" font-family="monospace">Lower Ø 178mm (r=89.0mm)</text>
  <text x="6" y="196" fill="#94a3b8" font-size="9" font-family="monospace">Roll W=103.2mm  Depth=70.0mm</text>
</svg>