<svg xmlns="http://www.w3.org/2000/svg" width="280" height="220" viewBox="0 0 280 220">
  <rect width="100%" height="100%" fill="#0a0f1e"/>
  <path d="M -51.57 94.79 L -51.57 24.02 L 331.57 24.02 L 331.57 94.79 L 318.82 94.79 L -38.82 94.79 L -51.57 94.79 Z M 222.32 103.40 L 318.82 94.79 L 319.78 105.48 L 222.80 114.13 L 57.20 114.13 L -39.78 105.48 L -38.82 94.79 L 57.68 103.40 L 222.32 103.40 Z" fill="#1e3a5f" fill-opacity="0.7" stroke="#60a5fa" stroke-width="1.8"/>
  <path d="M 331.57 114.13 L 331.57 184.90 L -51.57 184.90 L -51.57 114.13 L -39.59 114.13 L -39.78 112.05 L 57.20 103.40 L 222.80 103.40 L 319.78 112.05 L 319.59 114.13 L 331.57 114.13 Z" fill="#14532d" fill-opacity="0.5" stroke="#4ade80" stroke-width="1.5" stroke-dasharray="4,2"/>
  <line x1="38.6" y1="106.0" x2="241.4" y2="106.0" stroke="#fbbf24" stroke-width="1" stroke-dasharray="3,2"/>
  <line x1="232.55862356042735" y1="108.8" x2="232.55862356042735" y2="103.2" stroke="#f59e0b" stroke-width="1.2"/>
  <text x="236.55862356042735" y="106.0" fill="#f59e0b" font-size="9" font-family="monospace">gap=2.35mm</text>
  <text x="140" y="14" text-anchor="middle" fill="#94a3b8" font-size="10" font-weight="bold" font-family="monospace">Stn 1</text>
  <text x="140" y="26" text-anchor="middle" fill="#a78bfa" font-size="10" font-family="monospace">5.1° · pre_bend</text>
  <text x="6" y="172" fill="#60a5fa" font-size="9" font-family="monospace">Upper Ø 182mm (r=91.0mm)</text>
  <text x="6" y="184" fill="#4ade80" font-size="9" font-family="monospace">Lower Ø 170mm (r=85.2mm)</text>
  <text x="6" y="196" fill="#94a3b8" font-size="9" font-family="monospace">Roll W=165.9mm  Depth=5.7mm</text>
</svg>