<svg xmlns="http://www.w3.org/2000/svg" width="280" height="220" viewBox="0 0 280 220">
  <rect width="100%" height="100%" fill="#0a0f1e"/>
  <path d="M 81.24 -13.26 L 81.24 -50.75 L 198.76 -50.75 L 198.76 -13.26 L 192.51 -13.26 L 192.51 78.02 L 87.49 78.02 L 87.49 -13.26 L 81.24 -13.26 Z" fill="#1e3a5f" fill-opacity="0.7" stroke="#60a5fa" stroke-width="1.8"/>
  <path d="M 198.76 78.02 L 198.76 115.50 L 192.51 115.50 L 192.51 164.23 L 187.44 164.23 L 187.44 115.50 L 92.56 115.50 L 92.56 164.23 L 87.49 164.23 L 87.49 115.50 L 81.24 115.50 L 81.24 78.02 L 87.49 78.02 L 87.49 72.95 L 192.51 72.95 L 192.51 78.02 L 198.76 78.02 Z" fill="#14532d" fill-opacity="0.5" stroke="#4ade80" stroke-width="1.5" stroke-dasharray="4,2"/>
  <line x1="80.0" y1="74.2" x2="200.0" y2="74.2" stroke="#fbbf24" stroke-width="1" stroke-dasharray="3,2"/>
  <line x1="199.97868556056977" y1="75.5" x2="199.97868556056977" y2="72.9" stroke="#f59e0b" stroke-width="1.2"/>
  <text x="203.97868556056977" y="74.2" fill="#f59e0b" font-size="9" font-family="monospace">gap=2.06mm</text>
  <text x="140" y="14" text-anchor="middle" fill="#22c55e" font-size="10" font-weight="bold" font-family="monospace">Stn 10 (Calibration)</text>
  <text x="140" y="26" text-anchor="middle" fill="#a78bfa" font-size="10" font-family="monospace">90.0° · calibration</text>
  <text x="6" y="172" fill="#60a5fa" font-size="9" font-family="monospace">Upper Ø 316mm (r=158.0mm)</text>
  <text x="6" y="184" fill="#4ade80" font-size="9" font-family="monospace">Lower Ø 174mm (r=87.0mm)</text>
  <text x="6" y="196" fill="#94a3b8" font-size="9" font-family="monospace">Roll W=98.0mm  Depth=70.0mm</text>
</svg>