<svg xmlns="http://www.w3.org/2000/svg" width="280" height="220" viewBox="0 0 280 220">
  <rect width="100%" height="100%" fill="#0a0f1e"/>
  <path d="M -62.90 74.72 L -62.90 35.59 L 342.90 35.59 L 342.90 74.72 L 336.35 74.72 L -56.35 74.72 L -62.90 74.72 Z M 250.86 75.76 L 336.35 74.72 L 336.38 77.46 L 250.88 78.50 L 29.12 78.50 L -56.38 77.46 L -56.35 74.72 L 29.14 75.76 L 250.86 75.76 Z" fill="#1e3a5f" fill-opacity="0.7" stroke="#60a5fa" stroke-width="1.8"/>
  <path d="M 342.90 78.50 L 342.90 117.63 L -62.90 117.63 L -62.90 78.50 L -56.36 78.50 L -56.38 76.81 L 29.12 75.76 L 250.88 75.76 L 336.38 76.81 L 336.36 78.50 L 342.90 78.50 Z" fill="#14532d" fill-opacity="0.5" stroke="#4ade80" stroke-width="1.5" stroke-dasharray="4,2"/>
  <line x1="18.7" y1="76.4" x2="261.3" y2="76.4" stroke="#fbbf24" stroke-width="1" stroke-dasharray="3,2"/>
  <line x1="260.8695652173913" y1="77.1" x2="260.8695652173913" y2="75.7" stroke="#f59e0b" stroke-width="1.2"/>
  <text x="264.8695652173913" y="76.4" fill="#f59e0b" font-size="9" font-family="monospace">gap=1.10mm</text>
  <text x="140" y="14" text-anchor="middle" fill="#94a3b8" font-size="10" font-weight="bold" font-family="monospace">Stn 1</text>
  <text x="140" y="26" text-anchor="middle" fill="#a78bfa" font-size="10" font-family="monospace">0.7° · pre_bend</text>
  <text x="6" y="172" fill="#60a5fa" font-size="9" font-family="monospace">Upper Ø 195mm (r=97.5mm)</text>
  <text x="6" y="184" fill="#4ade80" font-size="9" font-family="monospace">Lower Ø 172mm (r=86.2mm)</text>
  <text x="6" y="196" fill="#94a3b8" font-size="9" font-family="monospace">Roll W=317.1mm  Depth=3.4mm</text>
</svg>