<svg xmlns="http://www.w3.org/2000/svg" width="280" height="220" viewBox="0 0 280 220">
  <rect width="100%" height="100%" fill="#0a0f1e"/>
  <path d="M 20.78 60.32 L 20.78 29.55 L 259.22 29.55 L 259.22 60.32 L 254.09 60.32 L 254.09 69.42 L 251.55 69.42 L 251.55 62.86 L 197.68 62.86 L 197.68 69.42 L 195.14 69.42 L 195.14 62.86 L 141.27 62.86 L 141.27 68.63 L 141.27 68.77 L 141.27 72.50 L 138.73 72.50 L 138.73 62.86 L 84.86 62.86 L 84.86 69.42 L 82.32 69.42 L 82.32 62.86 L 28.45 62.86 L 28.45 69.42 L 25.91 69.42 L 25.91 60.32 L 20.78 60.32 Z" fill="#1e3a5f" fill-opacity="0.7" stroke="#60a5fa" stroke-width="1.8"/>
  <path d="M 259.22 72.50 L 259.22 103.27 L 20.78 103.27 L 20.78 72.50 L 25.91 72.50 L 25.91 68.12 L 28.45 68.12 L 28.45 72.50 L 82.32 72.50 L 82.32 68.12 L 84.86 68.12 L 84.86 72.50 L 138.73 72.50 L 138.73 65.04 L 141.27 65.04 L 141.27 68.77 L 141.27 68.91 L 141.27 72.50 L 195.14 72.50 L 195.14 68.12 L 197.68 68.12 L 197.68 72.50 L 251.55 72.50 L 251.55 68.12 L 254.09 68.12 L 254.09 72.50 L 259.22 72.50 Z" fill="#14532d" fill-opacity="0.5" stroke="#4ade80" stroke-width="1.5" stroke-dasharray="4,2"/>
  <line x1="19.0" y1="68.1" x2="261.0" y2="68.1" stroke="#fbbf24" stroke-width="1" stroke-dasharray="3,2"/>
  <line x1="262.8205128205128" y1="68.8" x2="262.8205128205128" y2="67.5" stroke="#f59e0b" stroke-width="1.2"/>
  <text x="266.8205128205128" y="68.1" fill="#f59e0b" font-size="9" font-family="monospace">gap=1.27mm</text>
  <text x="140" y="14" text-anchor="middle" fill="#22c55e" font-size="10" font-weight="bold" font-family="monospace">Stn 18 (Calibration)</text>
  <text x="140" y="26" text-anchor="middle" fill="#a78bfa" font-size="10" font-family="monospace">90.0° · calibration</text>
  <text x="6" y="172" fill="#60a5fa" font-size="9" font-family="monospace">Upper Ø 146mm (r=73.0mm)</text>
  <text x="6" y="184" fill="#4ade80" font-size="9" font-family="monospace">Lower Ø 125mm (r=62.4mm)</text>
  <text x="6" y="196" fill="#94a3b8" font-size="9" font-family="monospace">Roll W=237.2mm  Depth=14.0mm</text>
</svg>