<svg xmlns="http://www.w3.org/2000/svg" width="280" height="220" viewBox="0 0 280 220">
  <rect width="100%" height="100%" fill="#0a0f1e"/>
  <path d="M -40.17 70.07 L -40.17 32.96 L 320.17 32.96 L 320.17 70.07 L 313.82 70.07 L -33.82 70.07 L -40.17 70.07 Z M 251.30 73.57 L 313.82 70.07 L 313.99 73.16 L 251.38 76.66 L 28.62 76.66 L -33.99 73.16 L -33.82 70.07 L 28.70 73.57 L 251.30 73.57 Z" fill="#1e3a5f" fill-opacity="0.7" stroke="#60a5fa" stroke-width="1.8"/>
  <path d="M 320.17 76.66 L 320.17 113.77 L -40.17 113.77 L -40.17 76.66 L -26.70 76.66 L 28.62 73.57 L 251.38 73.57 L 306.70 76.66 L 320.17 76.66 Z" fill="#14532d" fill-opacity="0.5" stroke="#4ade80" stroke-width="1.5" stroke-dasharray="4,2"/>
  <line x1="18.8" y1="74.3" x2="261.2" y2="74.3" stroke="#fbbf24" stroke-width="1" stroke-dasharray="3,2"/>
  <line x1="261.340206185567" y1="75.1" x2="261.340206185567" y2="73.5" stroke="#f59e0b" stroke-width="1.2"/>
  <text x="265.340206185567" y="74.3" fill="#f59e0b" font-size="9" font-family="monospace">gap=1.30mm</text>
  <text x="140" y="14" text-anchor="middle" fill="#94a3b8" font-size="10" font-weight="bold" font-family="monospace">Stn 1</text>
  <text x="140" y="26" text-anchor="middle" fill="#a78bfa" font-size="10" font-family="monospace">3.2° · pre_bend</text>
  <text x="6" y="172" fill="#60a5fa" font-size="9" font-family="monospace">Upper Ø 182mm (r=91.0mm)</text>
  <text x="6" y="184" fill="#4ade80" font-size="9" font-family="monospace">Lower Ø 174mm (r=87.0mm)</text>
  <text x="6" y="196" fill="#94a3b8" font-size="9" font-family="monospace">Roll W=295.9mm  Depth=5.5mm</text>
</svg>