<svg xmlns="http://www.w3.org/2000/svg" width="280" height="220" viewBox="0 0 280 220">
  <rect width="100%" height="100%" fill="#0a0f1e"/>
  <path d="M 71.41 -18.52 L 71.41 -54.72 L 208.59 -54.72 L 208.59 -18.52 L 202.55 -18.52 L 202.55 76.42 L 77.45 76.42 L 77.45 -18.52 L 71.41 -18.52 Z" fill="#1e3a5f" fill-opacity="0.7" stroke="#60a5fa" stroke-width="1.8"/>
  <path d="M 208.59 76.42 L 208.59 112.62 L 202.55 112.62 L 202.55 166.93 L 176.59 166.93 L 176.59 162.51 L 198.13 162.51 L 198.13 112.62 L 81.87 112.62 L 81.87 162.51 L 103.41 162.51 L 103.41 166.93 L 77.45 166.93 L 77.45 112.62 L 71.41 112.62 L 71.41 76.42 L 77.45 76.42 L 77.45 72.00 L 202.55 72.00 L 202.55 76.42 L 208.59 76.42 Z" fill="#14532d" fill-opacity="0.5" stroke="#4ade80" stroke-width="1.5" stroke-dasharray="4,2"/>
  <line x1="70.0" y1="73.1" x2="210.0" y2="73.1" stroke="#fbbf24" stroke-width="1" stroke-dasharray="3,2"/>
  <line x1="210.34274680183444" y1="74.2" x2="210.34274680183444" y2="72.0" stroke="#f59e0b" stroke-width="1.2"/>
  <text x="214.34274680183444" y="73.1" fill="#f59e0b" font-size="9" font-family="monospace">gap=1.86mm</text>
  <text x="140" y="14" text-anchor="middle" fill="#22c55e" font-size="10" font-weight="bold" font-family="monospace">Stn 16 (Calibration)</text>
  <text x="140" y="26" text-anchor="middle" fill="#a78bfa" font-size="10" font-family="monospace">90.0° · calibration</text>
  <text x="6" y="172" fill="#60a5fa" font-size="9" font-family="monospace">Upper Ø 338mm (r=168.8mm)</text>
  <text x="6" y="184" fill="#4ade80" font-size="9" font-family="monospace">Lower Ø 184mm (r=92.0mm)</text>
  <text x="6" y="196" fill="#94a3b8" font-size="9" font-family="monospace">Roll W=117.8mm  Depth=75.0mm</text>
</svg>