<svg xmlns="http://www.w3.org/2000/svg" width="900" height="340" viewBox="0 0 900 340">
  <rect width="100%" height="100%" fill="#0a0f1e"/>
  <text x="10" y="20" fill="#f8fafc" font-size="14" font-weight="bold" font-family="sans-serif">Flower Pattern — shutter_slat (210×20 mm) · 22 stations · shapely-computed 2D polygons</text>
  <path d="M 161.08 196.47 L 260.19 196.47 L 290.43 198.22 L 320.66 196.47 L 419.77 196.47 L 450.00 198.22 L 480.23 196.47 L 579.34 196.47 L 609.57 198.22 L 639.81 196.47 L 738.92 196.47 L 769.38 198.23 L 768.92 206.12 L 738.69 204.37 L 640.03 204.37 L 609.57 206.13 L 579.12 204.37 L 480.46 204.37 L 450.00 206.13 L 419.54 204.37 L 320.88 204.37 L 290.43 206.13 L 259.97 204.37 L 161.31 204.37 L 131.08 206.12 L 130.62 198.23 L 161.08 196.47 Z" fill="#6b7280" fill-opacity="0.55" stroke="#6b7280" stroke-width="0.8" stroke-opacity="0.9"/>
  <path d="M 160.82 194.73 L 260.46 194.73 L 290.43 198.20 L 320.39 194.73 L 420.03 194.73 L 450.00 198.20 L 479.97 194.73 L 579.61 194.73 L 609.57 198.20 L 639.54 194.73 L 739.18 194.73 L 769.60 198.25 L 768.69 206.10 L 738.73 202.63 L 640.00 202.63 L 609.57 206.15 L 579.15 202.63 L 480.42 202.63 L 450.00 206.15 L 419.58 202.63 L 320.85 202.63 L 290.43 206.15 L 260.00 202.63 L 161.27 202.63 L 131.31 206.10 L 130.40 198.25 L 160.82 194.73 Z" fill="#6b7280" fill-opacity="0.55" stroke="#6b7280" stroke-width="0.8" stroke-opacity="0.9"/>
  <path d="M 160.45 193.00 L 260.83 193.00 L 290.43 198.16 L 320.03 193.00 L 420.40 193.00 L 450.00 198.16 L 479.60 193.00 L 579.97 193.00 L 609.57 198.16 L 639.17 193.00 L 739.55 193.00 L 769.83 198.28 L 768.47 206.07 L 738.86 200.90 L 639.86 200.90 L 609.57 206.18 L 579.29 200.90 L 480.28 200.90 L 450.00 206.18 L 419.72 200.90 L 320.71 200.90 L 290.43 206.18 L 260.14 200.90 L 161.14 200.90 L 131.53 206.07 L 130.17 198.28 L 160.45 193.00 Z" fill="#6b7280" fill-opacity="0.55" stroke="#6b7280" stroke-width="0.8" stroke-opacity="0.9"/>
  <path d="M 160.00 191.33 L 261.28 191.33 L 290.43 198.12 L 319.58 191.33 L 420.85 191.33 L 450.00 198.12 L 479.15 191.33 L 580.42 191.33 L 609.57 198.12 L 638.72 191.33 L 740.00 191.33 L 770.04 198.32 L 768.25 206.02 L 739.09 199.24 L 639.63 199.24 L 609.57 206.23 L 579.52 199.24 L 480.06 199.24 L 450.00 206.23 L 419.94 199.24 L 320.48 199.24 L 290.43 206.23 L 260.37 199.24 L 160.91 199.24 L 131.75 206.02 L 129.96 198.32 L 160.00 191.33 Z" fill="#6b7280" fill-opacity="0.55" stroke="#6b7280" stroke-width="0.8" stroke-opacity="0.9"/>
  <path d="M 159.44 189.64 L 261.84 189.64 L 290.43 198.05 L 319.01 189.64 L 421.41 189.64 L 450.00 198.05 L 478.59 189.64 L 580.99 189.64 L 609.57 198.05 L 638.16 189.64 L 740.56 189.64 L 770.26 198.38 L 768.03 205.96 L 739.42 197.54 L 639.30 197.54 L 609.57 206.29 L 579.85 197.54 L 479.73 197.54 L 450.00 206.29 L 420.27 197.54 L 320.15 197.54 L 290.43 206.29 L 260.70 197.54 L 160.58 197.54 L 131.97 205.96 L 129.74 198.38 L 159.44 189.64 Z" fill="#7c3aed" fill-opacity="0.70" stroke="#7c3aed" stroke-width="0.8" stroke-opacity="0.9"/>
  <path d="M 158.78 187.98 L 262.50 187.98 L 290.43 197.98 L 318.36 187.98 L 422.07 187.98 L 450.00 197.98 L 477.93 187.98 L 581.64 187.98 L 609.57 197.98 L 637.50 187.98 L 741.22 187.98 L 770.48 198.45 L 767.82 205.89 L 739.85 195.88 L 638.88 195.88 L 609.57 206.37 L 580.27 195.88 L 479.30 195.88 L 450.00 206.37 L 420.70 195.88 L 319.73 195.88 L 290.43 206.37 L 261.12 195.88 L 160.15 195.88 L 132.18 205.89 L 129.52 198.45 L 158.78 187.98 Z" fill="#7c3aed" fill-opacity="0.70" stroke="#7c3aed" stroke-width="0.8" stroke-opacity="0.9"/>
  <path d="M 158.03 186.35 L 263.25 186.35 L 290.43 197.88 L 317.60 186.35 L 422.83 186.35 L 450.00 197.88 L 477.17 186.35 L 582.40 186.35 L 609.57 197.88 L 636.75 186.35 L 741.97 186.35 L 770.69 198.54 L 767.61 205.81 L 740.37 194.25 L 638.36 194.25 L 609.57 206.47 L 580.79 194.25 L 478.78 194.25 L 450.00 206.47 L 421.22 194.25 L 319.21 194.25 L 290.43 206.47 L 261.64 194.25 L 159.63 194.25 L 132.39 205.81 L 129.31 198.54 L 158.03 186.35 Z" fill="#7c3aed" fill-opacity="0.70" stroke="#7c3aed" stroke-width="0.8" stroke-opacity="0.9"/>
  <path d="M 157.18 184.75 L 264.10 184.75 L 290.43 197.77 L 316.75 184.75 L 423.67 184.75 L 450.00 197.77 L 476.33 184.75 L 583.25 184.75 L 609.57 197.77 L 635.90 184.75 L 742.82 184.75 L 770.90 198.63 L 767.40 205.72 L 740.98 192.66 L 637.75 192.66 L 609.57 206.58 L 581.40 192.66 L 478.17 192.66 L 450.00 206.58 L 421.83 192.66 L 318.60 192.66 L 290.43 206.58 L 262.25 192.66 L 159.02 192.66 L 132.60 205.72 L 129.10 198.63 L 157.18 184.75 Z" fill="#7c3aed" fill-opacity="0.70" stroke="#7c3aed" stroke-width="0.8" stroke-opacity="0.9"/>
  <path d="M 156.70 183.95 L 264.57 183.95 L 290.43 197.70 L 316.28 183.95 L 424.15 183.95 L 450.00 197.70 L 475.85 183.95 L 583.72 183.95 L 609.57 197.70 L 635.43 183.95 L 743.30 183.95 L 771.00 198.68 L 767.29 205.66 L 741.33 191.85 L 637.40 191.85 L 609.57 206.65 L 581.75 191.85 L 477.82 191.85 L 450.00 206.65 L 422.18 191.85 L 318.25 191.85 L 290.43 206.65 L 262.60 191.85 L 158.67 191.85 L 132.71 205.66 L 129.00 198.68 L 156.70 183.95 Z" fill="#7c3aed" fill-opacity="0.70" stroke="#7c3aed" stroke-width="0.8" stroke-opacity="0.9"/>
  <path d="M 155.96 182.80 L 265.31 182.80 L 290.43 197.59 L 315.54 182.80 L 424.89 182.80 L 450.00 197.59 L 475.11 182.80 L 584.46 182.80 L 609.57 197.59 L 634.69 182.80 L 744.04 182.80 L 771.15 198.77 L 767.14 205.58 L 741.88 190.70 L 636.84 190.70 L 609.57 206.76 L 582.31 190.70 L 477.27 190.70 L 450.00 206.76 L 422.73 190.70 L 317.69 190.70 L 290.43 206.76 L 263.16 190.70 L 158.12 190.70 L 132.86 205.58 L 128.85 198.77 L 155.96 182.80 Z" fill="#7c3aed" fill-opacity="0.70" stroke="#7c3aed" stroke-width="0.8" stroke-opacity="0.9"/>
  <path d="M 154.61 180.92 L 266.67 180.92 L 290.43 197.37 L 314.18 180.92 L 426.25 180.92 L 450.00 197.37 L 473.75 180.92 L 585.82 180.92 L 609.57 197.37 L 633.33 180.92 L 745.39 180.92 L 771.40 198.92 L 766.90 205.42 L 742.93 188.82 L 635.80 188.82 L 609.57 206.98 L 583.35 188.82 L 476.22 188.82 L 450.00 206.98 L 423.78 188.82 L 316.65 188.82 L 290.43 206.98 L 264.20 188.82 L 157.07 188.82 L 133.10 205.42 L 128.60 198.92 L 154.61 180.92 Z" fill="#6366f1" fill-opacity="0.80" stroke="#6366f1" stroke-width="0.8" stroke-opacity="0.9"/>
  <path d="M 152.54 178.52 L 268.73 178.52 L 290.43 196.98 L 312.12 178.52 L 428.31 178.52 L 450.00 196.98 L 471.69 178.52 L 587.88 178.52 L 609.57 196.98 L 631.27 178.52 L 747.46 178.52 L 771.71 199.16 L 766.59 205.18 L 744.55 186.42 L 634.18 186.42 L 609.57 207.36 L 584.97 186.42 L 474.60 186.42 L 450.00 207.36 L 425.40 186.42 L 315.03 186.42 L 290.43 207.36 L 265.82 186.42 L 155.45 186.42 L 133.41 205.18 L 128.29 199.16 L 152.54 178.52 Z" fill="#6366f1" fill-opacity="0.80" stroke="#6366f1" stroke-width="0.8" stroke-opacity="0.9"/>
  <path d="M 149.82 175.96 L 271.46 175.96 L 290.43 196.37 L 309.39 175.96 L 431.03 175.96 L 450.00 196.37 L 468.97 175.96 L 590.61 175.96 L 609.57 196.37 L 628.54 175.96 L 750.18 175.96 L 772.04 199.48 L 766.25 204.86 L 746.74 183.86 L 631.99 183.86 L 609.57 207.98 L 587.16 183.86 L 472.41 183.86 L 450.00 207.98 L 427.59 183.86 L 312.84 183.86 L 290.43 207.98 L 268.01 183.86 L 153.26 183.86 L 133.75 204.86 L 127.96 199.48 L 149.82 175.96 Z" fill="#6366f1" fill-opacity="0.80" stroke="#6366f1" stroke-width="0.8" stroke-opacity="0.9"/>
  <path d="M 146.47 173.48 L 274.81 173.48 L 290.43 195.37 L 306.04 173.48 L 434.38 173.48 L 450.00 195.37 L 465.62 173.48 L 593.96 173.48 L 609.57 195.37 L 625.19 173.48 L 753.53 173.48 L 772.37 199.88 L 765.93 204.47 L 749.46 181.38 L 629.26 181.38 L 609.57 208.98 L 589.89 181.38 L 469.69 181.38 L 450.00 208.98 L 430.31 181.38 L 310.11 181.38 L 290.43 208.98 L 270.74 181.38 L 150.54 181.38 L 134.07 204.47 L 127.63 199.88 L 146.47 173.48 Z" fill="#6366f1" fill-opacity="0.80" stroke="#6366f1" stroke-width="0.8" stroke-opacity="0.9"/>
  <path d="M 142.69 171.36 L 278.58 171.36 L 290.43 193.73 L 302.27 171.36 L 438.16 171.36 L 450.00 193.73 L 461.84 171.36 L 597.73 171.36 L 609.57 193.73 L 621.42 171.36 L 757.31 171.36 L 772.64 200.32 L 765.66 204.02 L 752.55 179.26 L 626.18 179.26 L 609.57 210.62 L 592.97 179.26 L 466.60 179.26 L 450.00 210.62 L 433.40 179.26 L 307.03 179.26 L 290.43 210.62 L 273.82 179.26 L 147.45 179.26 L 134.34 204.02 L 127.36 200.32 L 142.69 171.36 Z" fill="#6366f1" fill-opacity="0.80" stroke="#6366f1" stroke-width="0.8" stroke-opacity="0.9"/>
  <path d="M 138.70 169.73 L 282.58 169.73 L 290.43 190.84 L 298.27 169.73 L 442.15 169.73 L 450.00 190.84 L 457.85 169.73 L 601.73 169.73 L 609.57 190.84 L 617.42 169.73 L 761.30 169.73 L 772.85 200.80 L 765.45 203.55 L 755.81 177.64 L 622.92 177.64 L 609.57 213.51 L 596.23 177.64 L 463.34 177.64 L 450.00 213.51 L 436.66 177.64 L 303.77 177.64 L 290.43 213.51 L 277.08 177.64 L 144.19 177.64 L 134.55 203.55 L 127.15 200.80 L 138.70 169.73 Z" fill="#6366f1" fill-opacity="0.80" stroke="#6366f1" stroke-width="0.8" stroke-opacity="0.9"/>
  <path d="M 134.77 168.65 L 286.50 168.65 L 290.43 185.12 L 294.35 168.65 L 446.08 168.65 L 450.00 185.12 L 453.92 168.65 L 605.65 168.65 L 609.57 185.12 L 613.50 168.65 L 765.23 168.65 L 772.99 201.26 L 765.31 203.09 L 758.98 176.56 L 619.74 176.56 L 609.57 219.22 L 599.41 176.56 L 460.16 176.56 L 450.00 219.22 L 439.84 176.56 L 300.59 176.56 L 290.43 219.22 L 280.26 176.56 L 141.02 176.56 L 134.69 203.09 L 127.01 201.26 L 134.77 168.65 Z" fill="#6366f1" fill-opacity="0.80" stroke="#6366f1" stroke-width="0.8" stroke-opacity="0.9"/>
  <path d="M 131.18 168.07 L 290.10 168.07 L 290.43 170.65 L 290.75 168.07 L 449.67 168.07 L 450.00 170.65 L 450.33 168.07 L 609.25 168.07 L 609.57 170.65 L 609.90 168.07 L 768.82 168.07 L 773.07 201.68 L 765.23 202.67 L 761.86 175.97 L 616.87 175.97 L 611.06 221.93 L 608.09 221.93 L 602.28 175.97 L 457.29 175.97 L 451.49 221.93 L 448.51 221.93 L 442.71 175.97 L 297.72 175.97 L 291.91 221.93 L 288.94 221.93 L 283.13 175.97 L 138.14 175.97 L 134.77 202.67 L 126.93 201.68 L 131.18 168.07 Z" fill="#3b82f6" fill-opacity="0.90" stroke="#3b82f6" stroke-width="0.8" stroke-opacity="0.9"/>
  <path d="M 128.33 167.85 L 287.91 167.85 L 292.94 167.85 L 447.48 167.85 L 452.52 167.85 L 607.06 167.85 L 612.09 167.85 L 771.67 167.85 L 773.10 202.01 L 765.20 202.34 L 764.09 175.76 L 614.64 175.76 L 612.70 221.93 L 606.45 221.93 L 604.51 175.76 L 455.06 175.76 L 453.13 221.93 L 446.87 221.93 L 444.94 175.76 L 295.49 175.76 L 293.55 221.93 L 287.30 221.93 L 285.36 175.76 L 135.91 175.76 L 134.80 202.34 L 126.90 202.01 L 128.33 167.85 Z" fill="#3b82f6" fill-opacity="0.90" stroke="#3b82f6" stroke-width="0.8" stroke-opacity="0.9"/>
  <path d="M 126.90 167.83 L 286.47 167.83 L 294.38 167.83 L 446.05 167.83 L 453.95 167.83 L 605.62 167.83 L 613.53 167.83 L 773.10 167.83 L 773.10 202.17 L 765.20 202.17 L 765.20 175.73 L 613.53 175.73 L 613.53 202.17 L 605.62 202.17 L 605.62 175.73 L 453.95 175.73 L 453.95 221.93 L 446.05 221.93 L 446.05 202.17 L 446.05 175.73 L 294.38 175.73 L 294.38 202.17 L 286.47 202.17 L 286.47 175.73 L 134.80 175.73 L 134.80 202.17 L 126.90 202.17 L 126.90 167.83 Z" fill="#3b82f6" fill-opacity="0.90" stroke="#3b82f6" stroke-width="0.8" stroke-opacity="0.9"/>
  <path d="M 126.90 167.83 L 286.47 167.83 L 294.38 167.83 L 446.05 167.83 L 453.95 167.83 L 605.62 167.83 L 613.53 167.83 L 773.10 167.83 L 773.10 202.17 L 765.20 202.17 L 765.20 175.73 L 613.53 175.73 L 613.53 202.17 L 605.62 202.17 L 605.62 175.73 L 453.95 175.73 L 453.95 221.93 L 446.05 221.93 L 446.05 202.17 L 446.05 175.73 L 294.38 175.73 L 294.38 202.17 L 286.47 202.17 L 286.47 175.73 L 134.80 175.73 L 134.80 202.17 L 126.90 202.17 L 126.90 167.83 Z" fill="#3b82f6" fill-opacity="0.90" stroke="#3b82f6" stroke-width="0.8" stroke-opacity="0.9"/>
  <path d="M 126.90 167.83 L 286.47 167.83 L 294.38 167.83 L 446.05 167.83 L 453.95 167.83 L 605.62 167.83 L 613.53 167.83 L 773.10 167.83 L 773.10 202.17 L 765.20 202.17 L 765.20 175.73 L 613.53 175.73 L 613.53 202.17 L 605.62 202.17 L 605.62 175.73 L 453.95 175.73 L 453.95 221.93 L 446.05 221.93 L 446.05 202.17 L 446.05 175.73 L 294.38 175.73 L 294.38 202.17 L 286.47 202.17 L 286.47 175.73 L 134.80 175.73 L 134.80 202.17 L 126.90 202.17 L 126.90 167.83 Z" fill="#22c55e" fill-opacity="0.85" stroke="#22c55e" stroke-width="0.8" stroke-opacity="0.9"/>
  <line x1="-85.8" y1="220.2" x2="985.8" y2="220.2" stroke="#fbbf24" stroke-width="1.5" stroke-dasharray="5,3"/>
  <text x="450.0" y="234.2" text-anchor="middle" fill="#fbbf24" font-size="10" font-family="monospace">Flat strip = 352.6 mm</text>
  <rect x="50" y="308" width="12" height="8" fill="#6b7280" rx="2"/>
  <text x="66" y="316" fill="#94a3b8" font-size="10" font-family="monospace">Flat / pre-bend</text>
  <rect x="210" y="308" width="12" height="8" fill="#7c3aed" rx="2"/>
  <text x="226" y="316" fill="#94a3b8" font-size="10" font-family="monospace">Early forming</text>
  <rect x="370" y="308" width="12" height="8" fill="#6366f1" rx="2"/>
  <text x="386" y="316" fill="#94a3b8" font-size="10" font-family="monospace">Mid forming</text>
  <rect x="530" y="308" width="12" height="8" fill="#3b82f6" rx="2"/>
  <text x="546" y="316" fill="#94a3b8" font-size="10" font-family="monospace">Final form</text>
  <rect x="690" y="308" width="12" height="8" fill="#22c55e" rx="2"/>
  <text x="706" y="316" fill="#94a3b8" font-size="10" font-family="monospace">Calibration</text>
  <text x="50" y="62" fill="#f8fafc" font-size="11" font-family="monospace">Profile: shutter_slat</text>
  <text x="185" y="62" fill="#fbbf24" font-size="11" font-family="monospace">Web = 210 mm</text>
  <text x="320" y="62" fill="#4ade80" font-size="11" font-family="monospace">Flange = 20 mm</text>
  <text x="455" y="62" fill="#f87171" font-size="11" font-family="monospace">t = 2.6 mm</text>
  <text x="590" y="62" fill="#94a3b8" font-size="11" font-family="monospace">Material = HR</text>
  <text x="725" y="62" fill="#c084fc" font-size="11" font-family="monospace">Stations = 22</text>
</svg>