<svg xmlns="http://www.w3.org/2000/svg" width="900" height="340" viewBox="0 0 900 340">
  <rect width="100%" height="100%" fill="#0a0f1e"/>
  <text x="10" y="20" fill="#f8fafc" font-size="14" font-weight="bold" font-family="sans-serif">Flower Pattern — shutter_slat (220×14 mm) · 18 stations · shapely-computed 2D polygons</text>
  <path d="M 131.00 193.40 L 258.17 193.40 L 279.72 194.90 L 301.28 193.40 L 428.45 193.40 L 450.00 194.90 L 471.55 193.40 L 598.72 193.40 L 620.28 194.90 L 641.83 193.40 L 769.00 193.40 L 790.69 194.91 L 790.43 198.62 L 768.87 197.11 L 641.96 197.11 L 620.28 198.63 L 598.59 197.11 L 471.68 197.11 L 450.00 198.63 L 428.32 197.11 L 301.41 197.11 L 279.72 198.63 L 258.04 197.11 L 131.13 197.11 L 109.57 198.62 L 109.31 194.91 L 131.00 193.40 Z" fill="#6b7280" fill-opacity="0.55" stroke="#6b7280" stroke-width="0.8" stroke-opacity="0.9"/>
  <path d="M 130.77 191.85 L 258.40 191.85 L 279.72 194.89 L 301.05 191.85 L 428.68 191.85 L 450.00 194.89 L 471.32 191.85 L 598.95 191.85 L 620.28 194.89 L 641.60 191.85 L 769.23 191.85 L 790.82 194.93 L 790.30 198.60 L 768.97 195.57 L 641.87 195.57 L 620.28 198.64 L 598.69 195.57 L 471.59 195.57 L 450.00 198.64 L 428.41 195.57 L 301.31 195.57 L 279.72 198.64 L 258.13 195.57 L 131.03 195.57 L 109.70 198.60 L 109.18 194.93 L 130.77 191.85 Z" fill="#6b7280" fill-opacity="0.55" stroke="#6b7280" stroke-width="0.8" stroke-opacity="0.9"/>
  <path d="M 130.44 190.36 L 258.73 190.36 L 279.72 194.86 L 300.71 190.36 L 429.01 190.36 L 450.00 194.86 L 470.99 190.36 L 599.29 190.36 L 620.28 194.86 L 641.27 190.36 L 769.56 190.36 L 790.95 194.95 L 790.17 198.58 L 769.17 194.08 L 641.67 194.08 L 620.28 198.66 L 598.89 194.08 L 471.39 194.08 L 450.00 198.66 L 428.61 194.08 L 301.11 194.08 L 279.72 198.66 L 258.33 194.08 L 130.83 194.08 L 109.83 198.58 L 109.05 194.95 L 130.44 190.36 Z" fill="#6b7280" fill-opacity="0.55" stroke="#6b7280" stroke-width="0.8" stroke-opacity="0.9"/>
  <path d="M 130.00 188.90 L 259.16 188.90 L 279.72 194.83 L 300.28 188.90 L 429.44 188.90 L 450.00 194.83 L 470.56 188.90 L 599.72 188.90 L 620.28 194.83 L 640.84 188.90 L 770.00 188.90 L 791.07 194.98 L 790.04 198.55 L 769.47 192.61 L 641.36 192.61 L 620.28 198.70 L 599.19 192.61 L 471.08 192.61 L 450.00 198.70 L 428.92 192.61 L 300.81 192.61 L 279.72 198.70 L 258.64 192.61 L 130.53 192.61 L 109.96 198.55 L 108.93 194.98 L 130.00 188.90 Z" fill="#7c3aed" fill-opacity="0.70" stroke="#7c3aed" stroke-width="0.8" stroke-opacity="0.9"/>
  <path d="M 129.45 187.42 L 259.71 187.42 L 279.72 194.79 L 299.73 187.42 L 429.99 187.42 L 450.00 194.79 L 470.01 187.42 L 600.27 187.42 L 620.28 194.79 L 640.29 187.42 L 770.55 187.42 L 791.20 195.02 L 789.92 198.51 L 769.89 191.14 L 640.95 191.14 L 620.28 198.74 L 599.61 191.14 L 470.67 191.14 L 450.00 198.74 L 429.33 191.14 L 300.39 191.14 L 279.72 198.74 L 259.05 191.14 L 130.11 191.14 L 110.08 198.51 L 108.80 195.02 L 129.45 187.42 Z" fill="#7c3aed" fill-opacity="0.70" stroke="#7c3aed" stroke-width="0.8" stroke-opacity="0.9"/>
  <path d="M 128.81 186.02 L 260.35 186.02 L 279.72 194.73 L 299.09 186.02 L 430.63 186.02 L 450.00 194.73 L 469.37 186.02 L 600.91 186.02 L 620.28 194.73 L 639.65 186.02 L 771.19 186.02 L 791.32 195.07 L 789.80 198.46 L 770.39 189.74 L 640.44 189.74 L 620.28 198.80 L 600.11 189.74 L 470.17 189.74 L 450.00 198.80 L 429.83 189.74 L 299.89 189.74 L 279.72 198.80 L 259.56 189.74 L 129.61 189.74 L 110.20 198.46 L 108.68 195.07 L 128.81 186.02 Z" fill="#7c3aed" fill-opacity="0.70" stroke="#7c3aed" stroke-width="0.8" stroke-opacity="0.9"/>
  <path d="M 128.21 184.90 L 260.95 184.90 L 279.72 194.67 L 298.49 184.90 L 431.23 184.90 L 450.00 194.67 L 468.77 184.90 L 601.51 184.90 L 620.28 194.67 L 639.05 184.90 L 771.79 184.90 L 791.42 195.12 L 789.70 198.41 L 770.88 188.62 L 639.96 188.62 L 620.28 198.86 L 600.60 188.62 L 469.68 188.62 L 450.00 198.86 L 430.32 188.62 L 299.40 188.62 L 279.72 198.86 L 260.04 188.62 L 129.12 188.62 L 110.30 198.41 L 108.58 195.12 L 128.21 184.90 Z" fill="#7c3aed" fill-opacity="0.70" stroke="#7c3aed" stroke-width="0.8" stroke-opacity="0.9"/>
  <path d="M 127.73 184.10 L 261.43 184.10 L 279.72 194.62 L 298.01 184.10 L 431.71 184.10 L 450.00 194.62 L 468.29 184.10 L 601.99 184.10 L 620.28 194.62 L 638.57 184.10 L 772.27 184.10 L 791.48 195.15 L 789.63 198.38 L 771.27 187.82 L 639.56 187.82 L 620.28 198.91 L 601.00 187.82 L 469.28 187.82 L 450.00 198.91 L 430.72 187.82 L 299.00 187.82 L 279.72 198.91 L 260.44 187.82 L 128.73 187.82 L 110.37 198.38 L 108.52 195.15 L 127.73 184.10 Z" fill="#7c3aed" fill-opacity="0.70" stroke="#7c3aed" stroke-width="0.8" stroke-opacity="0.9"/>
  <path d="M 126.59 182.45 L 262.58 182.45 L 279.72 194.49 L 296.86 182.45 L 432.86 182.45 L 450.00 194.49 L 467.14 182.45 L 603.14 182.45 L 620.28 194.49 L 637.42 182.45 L 773.41 182.45 L 791.63 195.24 L 789.49 198.28 L 772.24 186.16 L 638.60 186.16 L 620.28 199.04 L 601.96 186.16 L 468.32 186.16 L 450.00 199.04 L 431.68 186.16 L 298.04 186.16 L 279.72 199.04 L 261.40 186.16 L 127.76 186.16 L 110.51 198.28 L 108.37 195.24 L 126.59 182.45 Z" fill="#6366f1" fill-opacity="0.80" stroke="#6366f1" stroke-width="0.8" stroke-opacity="0.9"/>
  <path d="M 124.73 180.29 L 264.44 180.29 L 279.72 194.25 L 295.00 180.29 L 434.72 180.29 L 450.00 194.25 L 465.28 180.29 L 605.00 180.29 L 620.28 194.25 L 635.56 180.29 L 775.27 180.29 L 791.81 195.39 L 789.30 198.14 L 773.83 184.01 L 637.00 184.01 L 620.28 199.28 L 603.55 184.01 L 466.72 184.01 L 450.00 199.28 L 433.28 184.01 L 296.45 184.01 L 279.72 199.28 L 263.00 184.01 L 126.17 184.01 L 110.70 198.14 L 108.19 195.39 L 124.73 180.29 Z" fill="#6366f1" fill-opacity="0.80" stroke="#6366f1" stroke-width="0.8" stroke-opacity="0.9"/>
  <path d="M 122.16 178.04 L 267.00 178.04 L 279.72 193.81 L 292.44 178.04 L 437.28 178.04 L 450.00 193.81 L 462.72 178.04 L 607.56 178.04 L 620.28 193.81 L 633.00 178.04 L 777.84 178.04 L 792.00 195.60 L 789.11 197.93 L 776.06 181.76 L 634.78 181.76 L 620.28 199.72 L 605.78 181.76 L 464.50 181.76 L 450.00 199.72 L 435.50 181.76 L 294.22 181.76 L 279.72 199.72 L 265.22 181.76 L 123.94 181.76 L 110.89 197.93 L 108.00 195.60 L 122.16 178.04 Z" fill="#6366f1" fill-opacity="0.80" stroke="#6366f1" stroke-width="0.8" stroke-opacity="0.9"/>
  <path d="M 119.07 176.06 L 270.10 176.06 L 279.72 193.00 L 289.34 176.06 L 440.38 176.06 L 450.00 193.00 L 459.62 176.06 L 610.66 176.06 L 620.28 193.00 L 629.90 176.06 L 780.93 176.06 L 792.17 195.85 L 788.94 197.68 L 778.77 179.78 L 632.06 179.78 L 620.28 200.53 L 608.49 179.78 L 461.79 179.78 L 450.00 200.53 L 438.21 179.78 L 291.51 179.78 L 279.72 200.53 L 267.94 179.78 L 121.23 179.78 L 111.06 197.68 L 107.83 195.85 L 119.07 176.06 Z" fill="#6366f1" fill-opacity="0.80" stroke="#6366f1" stroke-width="0.8" stroke-opacity="0.9"/>
  <path d="M 115.67 174.58 L 273.50 174.58 L 279.72 191.41 L 285.95 174.58 L 443.77 174.58 L 450.00 191.41 L 456.23 174.58 L 614.05 174.58 L 620.28 191.41 L 626.50 174.58 L 784.33 174.58 L 792.30 196.12 L 788.82 197.41 L 781.75 178.30 L 629.09 178.30 L 620.28 202.12 L 611.47 178.30 L 458.81 178.30 L 450.00 202.12 L 441.19 178.30 L 288.53 178.30 L 279.72 202.12 L 270.91 178.30 L 118.25 178.30 L 111.18 197.41 L 107.70 196.12 L 115.67 174.58 Z" fill="#6366f1" fill-opacity="0.80" stroke="#6366f1" stroke-width="0.8" stroke-opacity="0.9"/>
  <path d="M 112.40 173.70 L 276.76 173.70 L 279.72 187.76 L 282.68 173.70 L 447.04 173.70 L 450.00 187.76 L 452.96 173.70 L 617.32 173.70 L 620.28 187.76 L 623.24 173.70 L 787.60 173.70 L 792.37 196.38 L 788.74 197.15 L 784.58 177.42 L 626.25 177.42 L 620.28 205.77 L 614.30 177.42 L 455.98 177.42 L 450.00 205.77 L 444.02 177.42 L 285.70 177.42 L 279.72 205.77 L 273.75 177.42 L 115.42 177.42 L 111.26 197.15 L 107.63 196.38 L 112.40 173.70 Z" fill="#6366f1" fill-opacity="0.80" stroke="#6366f1" stroke-width="0.8" stroke-opacity="0.9"/>
  <path d="M 109.59 173.31 L 279.58 173.31 L 279.72 175.02 L 279.87 173.31 L 449.85 173.31 L 450.00 175.02 L 450.15 173.31 L 620.13 173.31 L 620.28 175.02 L 620.42 173.31 L 790.41 173.31 L 792.41 196.61 L 788.71 196.92 L 787.00 177.03 L 623.83 177.03 L 621.35 206.05 L 619.21 206.05 L 616.72 177.03 L 453.56 177.03 L 451.07 206.05 L 448.93 206.05 L 446.44 177.03 L 283.28 177.03 L 280.79 206.05 L 278.65 206.05 L 276.17 177.03 L 113.00 177.03 L 111.29 196.92 L 107.59 196.61 L 109.59 173.31 Z" fill="#3b82f6" fill-opacity="0.90" stroke="#3b82f6" stroke-width="0.8" stroke-opacity="0.9"/>
  <path d="M 107.67 173.24 L 277.95 173.24 L 281.50 173.24 L 448.22 173.24 L 451.78 173.24 L 618.50 173.24 L 622.05 173.24 L 792.33 173.24 L 792.41 196.76 L 788.70 196.77 L 788.63 176.95 L 622.21 176.95 L 622.10 206.05 L 618.45 206.05 L 618.35 176.95 L 451.93 176.95 L 451.83 206.05 L 448.17 206.05 L 448.07 176.95 L 281.65 176.95 L 281.55 206.05 L 277.90 206.05 L 277.79 176.95 L 111.37 176.95 L 111.30 196.77 L 107.59 196.76 L 107.67 173.24 Z" fill="#3b82f6" fill-opacity="0.90" stroke="#3b82f6" stroke-width="0.8" stroke-opacity="0.9"/>
  <path d="M 107.59 173.24 L 277.86 173.24 L 281.58 173.24 L 448.14 173.24 L 451.86 173.24 L 618.42 173.24 L 622.14 173.24 L 792.41 173.24 L 792.41 196.76 L 788.70 196.76 L 788.70 176.95 L 622.14 176.95 L 622.14 196.76 L 618.42 196.76 L 618.42 176.95 L 451.86 176.95 L 451.86 196.35 L 451.86 196.76 L 451.86 206.05 L 448.14 206.05 L 448.14 196.76 L 448.14 176.95 L 281.58 176.95 L 281.58 196.76 L 277.86 196.76 L 277.86 176.95 L 111.30 176.95 L 111.30 196.76 L 107.59 196.76 L 107.59 173.24 Z" fill="#3b82f6" fill-opacity="0.90" stroke="#3b82f6" stroke-width="0.8" stroke-opacity="0.9"/>
  <path d="M 107.59 173.24 L 277.86 173.24 L 281.58 173.24 L 448.14 173.24 L 451.86 173.24 L 618.42 173.24 L 622.14 173.24 L 792.41 173.24 L 792.41 196.76 L 788.70 196.76 L 788.70 176.95 L 622.14 176.95 L 622.14 196.76 L 618.42 196.76 L 618.42 176.95 L 451.86 176.95 L 451.86 196.35 L 451.86 196.76 L 451.86 206.05 L 448.14 206.05 L 448.14 196.76 L 448.14 176.95 L 281.58 176.95 L 281.58 196.76 L 277.86 196.76 L 277.86 176.95 L 111.30 176.95 L 111.30 196.76 L 107.59 196.76 L 107.59 173.24 Z" fill="#22c55e" fill-opacity="0.85" stroke="#22c55e" stroke-width="0.8" stroke-opacity="0.9"/>
  <line x1="-9.5" y1="214.8" x2="909.5" y2="214.8" stroke="#fbbf24" stroke-width="1.5" stroke-dasharray="5,3"/>
  <text x="450.0" y="228.8" text-anchor="middle" fill="#fbbf24" font-size="10" font-family="monospace">Flat strip = 296.8 mm</text>
  <rect x="50" y="308" width="12" height="8" fill="#6b7280" rx="2"/>
  <text x="66" y="316" fill="#94a3b8" font-size="10" font-family="monospace">Flat / pre-bend</text>
  <rect x="210" y="308" width="12" height="8" fill="#7c3aed" rx="2"/>
  <text x="226" y="316" fill="#94a3b8" font-size="10" font-family="monospace">Early forming</text>
  <rect x="370" y="308" width="12" height="8" fill="#6366f1" rx="2"/>
  <text x="386" y="316" fill="#94a3b8" font-size="10" font-family="monospace">Mid forming</text>
  <rect x="530" y="308" width="12" height="8" fill="#3b82f6" rx="2"/>
  <text x="546" y="316" fill="#94a3b8" font-size="10" font-family="monospace">Final form</text>
  <rect x="690" y="308" width="12" height="8" fill="#22c55e" rx="2"/>
  <text x="706" y="316" fill="#94a3b8" font-size="10" font-family="monospace">Calibration</text>
  <text x="50" y="62" fill="#f8fafc" font-size="11" font-family="monospace">Profile: shutter_slat</text>
  <text x="185" y="62" fill="#fbbf24" font-size="11" font-family="monospace">Web = 220 mm</text>
  <text x="320" y="62" fill="#4ade80" font-size="11" font-family="monospace">Flange = 14 mm</text>
  <text x="455" y="62" fill="#f87171" font-size="11" font-family="monospace">t = 1.2 mm</text>
  <text x="590" y="62" fill="#94a3b8" font-size="11" font-family="monospace">Material = GI</text>
  <text x="725" y="62" fill="#c084fc" font-size="11" font-family="monospace">Stations = 18</text>
</svg>