<svg xmlns="http://www.w3.org/2000/svg" width="900" height="340" viewBox="0 0 900 340">
  <rect width="100%" height="100%" fill="#0a0f1e"/>
  <text x="10" y="20" fill="#f8fafc" font-size="14" font-weight="bold" font-family="sans-serif">Flower Pattern — lipped_channel (150×80 mm) · 24 stations · shapely-computed 2D polygons</text>
  <path d="M 100.73 221.53 L 278.89 228.37 L 621.11 228.37 L 798.93 221.54 L 797.85 193.25 L 806.97 192.90 L 808.41 230.31 L 621.28 237.50 L 278.72 237.50 L 91.93 230.32 L 90.51 193.25 L 99.63 192.90 L 100.73 221.53 Z" fill="#6b7280" fill-opacity="0.55" stroke="#6b7280" stroke-width="0.8" stroke-opacity="0.9"/>
  <path d="M 101.98 203.79 L 279.12 228.37 L 620.88 228.37 L 796.92 203.94 L 793.03 175.91 L 802.08 174.65 L 807.22 211.73 L 621.51 237.50 L 278.49 237.50 L 93.88 211.88 L 88.89 175.91 L 97.93 174.65 L 101.98 203.79 Z" fill="#6b7280" fill-opacity="0.55" stroke="#6b7280" stroke-width="0.8" stroke-opacity="0.9"/>
  <path d="M 106.88 179.21 L 279.44 228.37 L 620.56 228.37 L 791.18 179.77 L 783.42 152.55 L 792.20 150.04 L 802.46 186.05 L 621.83 237.50 L 278.17 237.50 L 99.49 186.60 L 89.79 152.55 L 98.57 150.04 L 106.88 179.21 Z" fill="#6b7280" fill-opacity="0.55" stroke="#6b7280" stroke-width="0.8" stroke-opacity="0.9"/>
  <path d="M 117.01 151.75 L 279.82 228.37 L 620.18 228.37 L 780.35 153.00 L 768.30 127.39 L 776.56 123.50 L 792.50 157.37 L 622.22 237.50 L 277.78 237.50 L 110.14 158.61 L 95.45 127.39 L 103.71 123.50 L 117.01 151.75 Z" fill="#6b7280" fill-opacity="0.55" stroke="#6b7280" stroke-width="0.8" stroke-opacity="0.9"/>
  <path d="M 131.59 126.22 L 280.22 228.37 L 619.78 228.37 L 765.34 128.33 L 749.31 105.00 L 756.83 99.83 L 778.04 130.68 L 622.61 237.50 L 277.39 237.50 L 125.03 132.79 L 105.93 105.00 L 113.46 99.83 L 131.59 126.22 Z" fill="#7c3aed" fill-opacity="0.70" stroke="#7c3aed" stroke-width="0.8" stroke-opacity="0.9"/>
  <path d="M 147.83 105.87 L 280.59 228.37 L 619.41 228.37 L 748.95 108.84 L 729.75 88.04 L 736.46 81.84 L 761.85 109.36 L 622.98 237.50 L 277.02 237.50 L 141.37 112.33 L 118.96 88.04 L 125.67 81.84 L 147.83 105.87 Z" fill="#7c3aed" fill-opacity="0.70" stroke="#7c3aed" stroke-width="0.8" stroke-opacity="0.9"/>
  <path d="M 161.04 92.93 L 280.86 228.37 L 619.14 228.37 L 735.75 96.56 L 714.55 77.81 L 720.60 70.97 L 748.64 95.77 L 623.25 237.50 L 276.75 237.50 L 154.57 99.40 L 130.16 77.81 L 136.21 70.97 L 161.04 92.93 Z" fill="#7c3aed" fill-opacity="0.70" stroke="#7c3aed" stroke-width="0.8" stroke-opacity="0.9"/>
  <path d="M 166.88 87.98 L 280.98 228.37 L 619.02 228.37 L 729.94 91.89 L 707.98 74.03 L 713.73 66.95 L 742.78 90.56 L 623.37 237.50 L 276.63 237.50 L 160.39 94.47 L 135.25 74.03 L 141.01 66.95 L 166.88 87.98 Z" fill="#7c3aed" fill-opacity="0.70" stroke="#7c3aed" stroke-width="0.8" stroke-opacity="0.9"/>
  <path d="M 168.13 86.97 L 281.00 228.37 L 619.00 228.37 L 728.71 90.94 L 706.59 73.28 L 712.28 66.15 L 741.54 89.50 L 623.39 237.50 L 276.61 237.50 L 161.63 93.47 L 136.34 73.28 L 142.04 66.15 L 168.13 86.97 Z" fill="#7c3aed" fill-opacity="0.70" stroke="#7c3aed" stroke-width="0.8" stroke-opacity="0.9"/>
  <path d="M 171.66 84.22 L 281.07 228.37 L 618.93 228.37 L 725.20 88.36 L 702.66 71.24 L 708.18 63.97 L 738.00 86.61 L 623.46 237.50 L 276.54 237.50 L 165.14 90.74 L 139.46 71.24 L 144.98 63.97 L 171.66 84.22 Z" fill="#7c3aed" fill-opacity="0.70" stroke="#7c3aed" stroke-width="0.8" stroke-opacity="0.9"/>
  <path d="M 177.60 79.89 L 281.19 228.37 L 618.81 228.37 L 719.32 84.30 L 696.10 68.11 L 701.33 60.62 L 732.03 82.04 L 623.58 237.50 L 276.42 237.50 L 171.05 86.45 L 144.76 68.11 L 149.98 60.62 L 177.60 79.89 Z" fill="#7c3aed" fill-opacity="0.70" stroke="#7c3aed" stroke-width="0.8" stroke-opacity="0.9"/>
  <path d="M 185.62 74.59 L 281.34 228.37 L 618.66 228.37 L 711.40 79.37 L 687.38 64.41 L 692.20 56.66 L 723.98 76.44 L 623.73 237.50 L 276.27 237.50 L 178.99 81.22 L 151.99 64.41 L 156.81 56.66 L 185.62 74.59 Z" fill="#6366f1" fill-opacity="0.80" stroke="#6366f1" stroke-width="0.8" stroke-opacity="0.9"/>
  <path d="M 195.04 69.09 L 281.52 228.37 L 618.48 228.37 L 702.14 74.29 L 677.26 60.78 L 681.62 52.76 L 714.52 70.62 L 623.91 237.50 L 276.09 237.50 L 188.30 75.82 L 160.61 60.78 L 164.96 52.76 L 195.04 69.09 Z" fill="#6366f1" fill-opacity="0.80" stroke="#6366f1" stroke-width="0.8" stroke-opacity="0.9"/>
  <path d="M 206.23 63.46 L 281.74 228.37 L 618.26 228.37 L 691.16 69.15 L 665.43 57.37 L 669.23 49.07 L 703.26 64.65 L 624.13 237.50 L 275.87 237.50 L 199.34 70.34 L 171.00 57.37 L 174.80 49.07 L 206.23 63.46 Z" fill="#6366f1" fill-opacity="0.80" stroke="#6366f1" stroke-width="0.8" stroke-opacity="0.9"/>
  <path d="M 218.40 58.34 L 281.97 228.37 L 618.03 228.37 L 679.27 64.57 L 652.76 54.66 L 655.96 46.10 L 691.02 59.21 L 624.36 237.50 L 275.64 237.50 L 211.31 65.44 L 182.47 54.66 L 185.66 46.10 L 218.40 58.34 Z" fill="#6366f1" fill-opacity="0.80" stroke="#6366f1" stroke-width="0.8" stroke-opacity="0.9"/>
  <path d="M 231.23 53.99 L 282.23 228.37 L 617.77 228.37 L 666.78 60.77 L 639.62 52.82 L 642.18 44.06 L 678.11 54.57 L 624.62 237.50 L 275.38 237.50 L 223.87 61.35 L 194.72 52.82 L 197.29 44.06 L 231.23 53.99 Z" fill="#6366f1" fill-opacity="0.80" stroke="#6366f1" stroke-width="0.8" stroke-opacity="0.9"/>
  <path d="M 244.05 50.61 L 282.49 228.37 L 617.51 228.37 L 654.36 57.95 L 626.69 51.97 L 628.62 43.04 L 665.21 50.95 L 624.88 237.50 L 275.12 237.50 L 236.37 58.29 L 207.12 51.97 L 209.05 43.04 L 244.05 50.61 Z" fill="#6366f1" fill-opacity="0.80" stroke="#6366f1" stroke-width="0.8" stroke-opacity="0.9"/>
  <path d="M 256.15 48.26 L 282.74 228.37 L 617.26 228.37 L 642.69 56.13 L 614.69 52.00 L 616.02 42.97 L 653.05 48.44 L 625.14 237.50 L 274.86 237.50 L 248.11 56.31 L 218.94 52.00 L 220.28 42.97 L 256.15 48.26 Z" fill="#6366f1" fill-opacity="0.80" stroke="#6366f1" stroke-width="0.8" stroke-opacity="0.9"/>
  <path d="M 267.75 46.74 L 283.00 228.37 L 617.00 228.37 L 631.54 55.13 L 603.34 52.77 L 604.10 43.67 L 641.41 46.80 L 625.39 237.50 L 274.61 237.50 L 259.30 55.19 L 230.39 52.77 L 231.15 43.67 L 267.75 46.74 Z" fill="#6366f1" fill-opacity="0.80" stroke="#6366f1" stroke-width="0.8" stroke-opacity="0.9"/>
  <path d="M 277.17 46.01 L 283.22 228.37 L 616.78 228.37 L 622.54 54.84 L 594.25 53.90 L 594.55 44.77 L 631.96 46.02 L 625.61 237.50 L 274.39 237.50 L 268.33 54.85 L 239.75 53.90 L 240.05 44.77 L 277.17 46.01 Z" fill="#3b82f6" fill-opacity="0.90" stroke="#3b82f6" stroke-width="0.8" stroke-opacity="0.9"/>
  <path d="M 283.37 45.76 L 283.37 228.37 L 616.63 228.37 L 616.63 54.89 L 588.33 54.89 L 588.33 45.76 L 625.76 45.76 L 625.76 237.50 L 274.24 237.50 L 274.24 54.89 L 245.93 54.89 L 245.93 45.76 L 283.37 45.76 Z" fill="#3b82f6" fill-opacity="0.90" stroke="#3b82f6" stroke-width="0.8" stroke-opacity="0.9"/>
  <path d="M 283.37 45.76 L 283.37 228.37 L 616.63 228.37 L 616.63 54.89 L 588.33 54.89 L 588.33 45.76 L 625.76 45.76 L 625.76 237.50 L 274.24 237.50 L 274.24 54.89 L 245.93 54.89 L 245.93 45.76 L 283.37 45.76 Z" fill="#3b82f6" fill-opacity="0.90" stroke="#3b82f6" stroke-width="0.8" stroke-opacity="0.9"/>
  <path d="M 283.37 45.76 L 283.37 228.37 L 616.63 228.37 L 616.63 54.89 L 588.33 54.89 L 588.33 45.76 L 625.76 45.76 L 625.76 237.50 L 274.24 237.50 L 274.24 54.89 L 245.93 54.89 L 245.93 45.76 L 283.37 45.76 Z" fill="#3b82f6" fill-opacity="0.90" stroke="#3b82f6" stroke-width="0.8" stroke-opacity="0.9"/>
  <path d="M 283.37 45.76 L 283.37 228.37 L 616.63 228.37 L 616.63 54.89 L 588.33 54.89 L 588.33 45.76 L 625.76 45.76 L 625.76 237.50 L 274.24 237.50 L 274.24 54.89 L 245.93 54.89 L 245.93 45.76 L 283.37 45.76 Z" fill="#22c55e" fill-opacity="0.85" stroke="#22c55e" stroke-width="0.8" stroke-opacity="0.9"/>
  <line x1="-79.7" y1="250.9" x2="979.7" y2="250.9" stroke="#fbbf24" stroke-width="1.5" stroke-dasharray="5,3"/>
  <text x="450.0" y="264.9" text-anchor="middle" fill="#fbbf24" font-size="10" font-family="monospace">Flat strip = 464.1 mm</text>
  <rect x="50" y="308" width="12" height="8" fill="#6b7280" rx="2"/>
  <text x="66" y="316" fill="#94a3b8" font-size="10" font-family="monospace">Flat / pre-bend</text>
  <rect x="210" y="308" width="12" height="8" fill="#7c3aed" rx="2"/>
  <text x="226" y="316" fill="#94a3b8" font-size="10" font-family="monospace">Early forming</text>
  <rect x="370" y="308" width="12" height="8" fill="#6366f1" rx="2"/>
  <text x="386" y="316" fill="#94a3b8" font-size="10" font-family="monospace">Mid forming</text>
  <rect x="530" y="308" width="12" height="8" fill="#3b82f6" rx="2"/>
  <text x="546" y="316" fill="#94a3b8" font-size="10" font-family="monospace">Final form</text>
  <rect x="690" y="308" width="12" height="8" fill="#22c55e" rx="2"/>
  <text x="706" y="316" fill="#94a3b8" font-size="10" font-family="monospace">Calibration</text>
  <text x="50" y="62" fill="#f8fafc" font-size="11" font-family="monospace">Profile: lipped_channel</text>
  <text x="185" y="62" fill="#fbbf24" font-size="11" font-family="monospace">Web = 150 mm</text>
  <text x="320" y="62" fill="#4ade80" font-size="11" font-family="monospace">Flange = 80 mm</text>
  <text x="455" y="62" fill="#f87171" font-size="11" font-family="monospace">t = 4.0 mm</text>
  <text x="590" y="62" fill="#94a3b8" font-size="11" font-family="monospace">Material = MS</text>
  <text x="725" y="62" fill="#c084fc" font-size="11" font-family="monospace">Stations = 24</text>
</svg>