<svg xmlns="http://www.w3.org/2000/svg" width="280" height="220" viewBox="0 0 280 220">
  <rect width="100%" height="100%" fill="#0a0f1e"/>
  <path d="M 21.25 -8.36 L 21.25 -47.49 L 258.75 -47.49 L 258.75 -8.36 L 252.22 -8.36 L 252.22 78.49 L 27.78 78.49 L 27.78 -8.36 L 21.25 -8.36 Z" fill="#1e3a5f" fill-opacity="0.7" stroke="#60a5fa" stroke-width="1.8"/>
  <path d="M 258.75 78.49 L 258.75 117.62 L 252.22 117.62 L 252.22 162.62 L 249.51 162.62 L 249.51 117.62 L 30.49 117.62 L 30.49 162.62 L 27.78 162.62 L 27.78 117.62 L 21.25 117.62 L 21.25 78.49 L 27.78 78.49 L 27.78 75.78 L 252.22 75.78 L 252.22 78.49 L 258.75 78.49 Z" fill="#14532d" fill-opacity="0.5" stroke="#4ade80" stroke-width="1.5" stroke-dasharray="4,2"/>
  <line x1="18.7" y1="76.4" x2="261.3" y2="76.4" stroke="#fbbf24" stroke-width="1" stroke-dasharray="3,2"/>
  <line x1="260.8695652173913" y1="77.1" x2="260.8695652173913" y2="75.7" stroke="#f59e0b" stroke-width="1.2"/>
  <text x="264.8695652173913" y="76.4" fill="#f59e0b" font-size="9" font-family="monospace">gap=1.08mm</text>
  <text x="140" y="14" text-anchor="middle" fill="#22c55e" font-size="10" font-weight="bold" font-family="monospace">Stn 20 (Calibration)</text>
  <text x="140" y="26" text-anchor="middle" fill="#a78bfa" font-size="10" font-family="monospace">90.0° · calibration</text>
  <text x="6" y="172" fill="#60a5fa" font-size="9" font-family="monospace">Upper Ø 288mm (r=144.0mm)</text>
  <text x="6" y="184" fill="#4ade80" font-size="9" font-family="monospace">Lower Ø 156mm (r=78.0mm)</text>
  <text x="6" y="196" fill="#94a3b8" font-size="9" font-family="monospace">Roll W=196.5mm  Depth=65.0mm</text>
</svg>