<svg xmlns="http://www.w3.org/2000/svg" width="280" height="220" viewBox="0 0 280 220">
  <rect width="100%" height="100%" fill="#0a0f1e"/>
  <path d="M 43.52 -21.74 L 43.52 -56.19 L 236.48 -56.19 L 236.48 -21.74 L 230.74 -21.74 L 230.74 77.07 L 49.26 77.07 L 49.26 -21.74 L 43.52 -21.74 Z" fill="#1e3a5f" fill-opacity="0.7" stroke="#60a5fa" stroke-width="1.8"/>
  <path d="M 236.48 77.07 L 236.48 111.52 L 230.74 111.52 L 230.74 166.63 L 221.48 166.63 L 221.48 111.52 L 58.52 111.52 L 58.52 166.63 L 49.26 166.63 L 49.26 111.52 L 43.52 111.52 L 43.52 77.07 L 49.26 77.07 L 49.26 67.81 L 230.74 67.81 L 230.74 77.07 L 236.48 77.07 Z" fill="#14532d" fill-opacity="0.5" stroke="#4ade80" stroke-width="1.5" stroke-dasharray="4,2"/>
  <line x1="44.7" y1="70.1" x2="235.3" y2="70.1" stroke="#fbbf24" stroke-width="1" stroke-dasharray="3,2"/>
  <line x1="236.10966656986363" y1="72.4" x2="236.10966656986363" y2="67.8" stroke="#f59e0b" stroke-width="1.2"/>
  <text x="240.10966656986363" y="70.1" fill="#f59e0b" font-size="9" font-family="monospace">gap=4.07mm</text>
  <text x="140" y="14" text-anchor="middle" fill="#22c55e" font-size="10" font-weight="bold" font-family="monospace">Stn 24 (Calibration)</text>
  <text x="140" y="26" text-anchor="middle" fill="#a78bfa" font-size="10" font-family="monospace">90.0° · calibration</text>
  <text x="6" y="172" fill="#60a5fa" font-size="9" font-family="monospace">Upper Ø 384mm (r=192.0mm)</text>
  <text x="6" y="184" fill="#4ade80" font-size="9" font-family="monospace">Lower Ø 216mm (r=108.0mm)</text>
  <text x="6" y="196" fill="#94a3b8" font-size="9" font-family="monospace">Roll W=190.0mm  Depth=80.0mm</text>
</svg>