<svg xmlns="http://www.w3.org/2000/svg" width="900" height="340" viewBox="0 0 900 340">
  <rect width="100%" height="100%" fill="#0a0f1e"/>
  <text x="10" y="20" fill="#f8fafc" font-size="14" font-weight="bold" font-family="sans-serif">Flower Pattern — u_channel (180×50 mm) · 10 stations · shapely-computed 2D polygons</text>
  <path d="M 202.11 218.61 L 697.89 218.61 L 835.37 210.92 L 835.55 214.22 L 697.98 221.91 L 202.02 221.91 L 64.45 214.22 L 64.63 210.92 L 202.11 218.61 Z" fill="#6b7280" fill-opacity="0.55" stroke="#6b7280" stroke-width="0.8" stroke-opacity="0.9"/>
  <path d="M 202.23 218.61 L 697.77 218.61 L 832.53 190.95 L 833.19 194.18 L 698.10 221.91 L 201.90 221.91 L 66.81 194.18 L 67.47 190.95 L 202.23 218.61 Z" fill="#6b7280" fill-opacity="0.55" stroke="#6b7280" stroke-width="0.8" stroke-opacity="0.9"/>
  <path d="M 202.42 218.61 L 697.58 218.61 L 823.19 162.95 L 824.53 165.97 L 698.28 221.91 L 201.72 221.91 L 75.47 165.97 L 76.81 162.95 L 202.42 218.61 Z" fill="#7c3aed" fill-opacity="0.70" stroke="#7c3aed" stroke-width="0.8" stroke-opacity="0.9"/>
  <path d="M 202.64 218.61 L 697.36 218.61 L 804.85 133.41 L 806.91 136.00 L 698.51 221.91 L 201.49 221.91 L 93.09 136.00 L 95.15 133.41 L 202.64 218.61 Z" fill="#7c3aed" fill-opacity="0.70" stroke="#7c3aed" stroke-width="0.8" stroke-opacity="0.9"/>
  <path d="M 202.90 218.61 L 697.10 218.61 L 778.34 108.41 L 781.00 110.38 L 698.77 221.91 L 201.23 221.91 L 119.00 110.38 L 121.66 108.41 L 202.90 218.61 Z" fill="#7c3aed" fill-opacity="0.70" stroke="#7c3aed" stroke-width="0.8" stroke-opacity="0.9"/>
  <path d="M 203.18 218.61 L 696.82 218.61 L 747.78 91.84 L 750.84 93.08 L 699.05 221.91 L 200.95 221.91 L 149.16 93.08 L 152.22 91.84 L 203.18 218.61 Z" fill="#6366f1" fill-opacity="0.80" stroke="#6366f1" stroke-width="0.8" stroke-opacity="0.9"/>
  <path d="M 203.46 218.61 L 696.54 218.61 L 719.28 84.17 L 722.53 84.73 L 699.33 221.91 L 200.67 221.91 L 177.47 84.73 L 180.72 84.17 L 203.46 218.61 Z" fill="#6366f1" fill-opacity="0.80" stroke="#6366f1" stroke-width="0.8" stroke-opacity="0.9"/>
  <path d="M 203.68 218.61 L 696.32 218.61 L 699.17 82.52 L 702.47 82.59 L 699.55 221.91 L 200.45 221.91 L 197.53 82.59 L 200.83 82.52 L 203.68 218.61 Z" fill="#6366f1" fill-opacity="0.80" stroke="#6366f1" stroke-width="0.8" stroke-opacity="0.9"/>
  <path d="M 203.72 218.61 L 696.28 218.61 L 696.28 82.52 L 699.59 82.52 L 699.59 221.91 L 200.41 221.91 L 200.41 82.52 L 203.72 82.52 L 203.72 218.61 Z" fill="#3b82f6" fill-opacity="0.90" stroke="#3b82f6" stroke-width="0.8" stroke-opacity="0.9"/>
  <path d="M 203.72 218.61 L 696.28 218.61 L 696.28 82.52 L 699.59 82.52 L 699.59 221.91 L 200.41 221.91 L 200.41 82.52 L 203.72 82.52 L 203.72 218.61 Z" fill="#22c55e" fill-opacity="0.85" stroke="#22c55e" stroke-width="0.8" stroke-opacity="0.9"/>
  <line x1="54.4" y1="238.3" x2="845.6" y2="238.3" stroke="#fbbf24" stroke-width="1.5" stroke-dasharray="5,3"/>
  <text x="450.0" y="252.3" text-anchor="middle" fill="#fbbf24" font-size="10" font-family="monospace">Flat strip = 287.2 mm</text>
  <rect x="50" y="308" width="12" height="8" fill="#6b7280" rx="2"/>
  <text x="66" y="316" fill="#94a3b8" font-size="10" font-family="monospace">Flat / pre-bend</text>
  <rect x="210" y="308" width="12" height="8" fill="#7c3aed" rx="2"/>
  <text x="226" y="316" fill="#94a3b8" font-size="10" font-family="monospace">Early forming</text>
  <rect x="370" y="308" width="12" height="8" fill="#6366f1" rx="2"/>
  <text x="386" y="316" fill="#94a3b8" font-size="10" font-family="monospace">Mid forming</text>
  <rect x="530" y="308" width="12" height="8" fill="#3b82f6" rx="2"/>
  <text x="546" y="316" fill="#94a3b8" font-size="10" font-family="monospace">Final form</text>
  <rect x="690" y="308" width="12" height="8" fill="#22c55e" rx="2"/>
  <text x="706" y="316" fill="#94a3b8" font-size="10" font-family="monospace">Calibration</text>
  <text x="50" y="62" fill="#f8fafc" font-size="11" font-family="monospace">Profile: u_channel</text>
  <text x="185" y="62" fill="#fbbf24" font-size="11" font-family="monospace">Web = 180 mm</text>
  <text x="320" y="62" fill="#4ade80" font-size="11" font-family="monospace">Flange = 50 mm</text>
  <text x="455" y="62" fill="#f87171" font-size="11" font-family="monospace">t = 1.2 mm</text>
  <text x="590" y="62" fill="#94a3b8" font-size="11" font-family="monospace">Material = CU</text>
  <text x="725" y="62" fill="#c084fc" font-size="11" font-family="monospace">Stations = 10</text>
</svg>