<svg xmlns="http://www.w3.org/2000/svg" width="280" height="220" viewBox="0 0 280 220">
  <rect width="100%" height="100%" fill="#0a0f1e"/>
  <path d="M 49.28 7.29 L 49.28 -36.73 L 230.72 -36.73 L 230.72 7.29 L 223.39 7.29 L 223.39 84.70 L 56.61 84.70 L 56.61 7.29 L 49.28 7.29 Z" fill="#1e3a5f" fill-opacity="0.7" stroke="#60a5fa" stroke-width="1.8"/>
  <path d="M 230.72 84.70 L 230.72 128.72 L 223.39 128.72 L 223.39 156.75 L 218.01 156.75 L 218.01 128.72 L 61.99 128.72 L 61.99 156.75 L 56.61 156.75 L 56.61 128.72 L 49.28 128.72 L 49.28 84.70 L 56.61 84.70 L 56.61 79.33 L 223.39 79.33 L 223.39 84.70 L 230.72 84.70 Z" fill="#14532d" fill-opacity="0.5" stroke="#4ade80" stroke-width="1.5" stroke-dasharray="4,2"/>
  <line x1="47.6" y1="80.7" x2="232.4" y2="80.7" stroke="#fbbf24" stroke-width="1" stroke-dasharray="3,2"/>
  <line x1="230.69945279729336" y1="82.0" x2="230.69945279729336" y2="79.3" stroke="#f59e0b" stroke-width="1.2"/>
  <text x="234.69945279729336" y="80.7" fill="#f59e0b" font-size="9" font-family="monospace">gap=1.86mm</text>
  <text x="140" y="14" text-anchor="middle" fill="#22c55e" font-size="10" font-weight="bold" font-family="monospace">Stn 18 (Calibration)</text>
  <text x="140" y="26" text-anchor="middle" fill="#a78bfa" font-size="10" font-family="monospace">90.0° · calibration</text>
  <text x="6" y="172" fill="#60a5fa" font-size="9" font-family="monospace">Upper Ø 238mm (r=118.8mm)</text>
  <text x="6" y="184" fill="#4ade80" font-size="9" font-family="monospace">Lower Ø 134mm (r=67.0mm)</text>
  <text x="6" y="196" fill="#94a3b8" font-size="9" font-family="monospace">Roll W=141.9mm  Depth=50.0mm</text>
</svg>