<svg xmlns="http://www.w3.org/2000/svg" width="280" height="220" viewBox="0 0 280 220">
  <rect width="100%" height="100%" fill="#0a0f1e"/>
  <path d="M 35.60 -4.19 L 35.60 -44.32 L 244.40 -44.32 L 244.40 -4.19 L 237.71 -4.19 L 237.71 82.20 L 42.29 82.20 L 42.29 -4.19 L 35.60 -4.19 Z" fill="#1e3a5f" fill-opacity="0.7" stroke="#60a5fa" stroke-width="1.8"/>
  <path d="M 244.40 82.20 L 244.40 122.33 L 237.71 122.33 L 237.71 160.45 L 229.57 160.45 L 229.57 122.33 L 50.43 122.33 L 50.43 160.45 L 42.29 160.45 L 42.29 122.33 L 35.60 122.33 L 35.60 82.20 L 42.29 82.20 L 42.29 74.06 L 237.71 74.06 L 237.71 82.20 L 244.40 82.20 Z" fill="#14532d" fill-opacity="0.5" stroke="#4ade80" stroke-width="1.5" stroke-dasharray="4,2"/>
  <line x1="35.7" y1="76.1" x2="244.3" y2="76.1" stroke="#fbbf24" stroke-width="1" stroke-dasharray="3,2"/>
  <line x1="243.63664261490158" y1="78.1" x2="243.63664261490158" y2="74.0" stroke="#f59e0b" stroke-width="1.2"/>
  <text x="247.63664261490158" y="76.1" fill="#f59e0b" font-size="9" font-family="monospace">gap=3.09mm</text>
  <text x="140" y="14" text-anchor="middle" fill="#22c55e" font-size="10" font-weight="bold" font-family="monospace">Stn 22 (Calibration)</text>
  <text x="140" y="26" text-anchor="middle" fill="#a78bfa" font-size="10" font-family="monospace">90.0° · calibration</text>
  <text x="6" y="172" fill="#60a5fa" font-size="9" font-family="monospace">Upper Ø 292mm (r=146.0mm)</text>
  <text x="6" y="184" fill="#4ade80" font-size="9" font-family="monospace">Lower Ø 166mm (r=83.0mm)</text>
  <text x="6" y="196" fill="#94a3b8" font-size="9" font-family="monospace">Roll W=177.5mm  Depth=60.0mm</text>
</svg>