<svg xmlns="http://www.w3.org/2000/svg" width="900" height="340" viewBox="0 0 900 340">
  <rect width="100%" height="100%" fill="#0a0f1e"/>
  <text x="10" y="20" fill="#f8fafc" font-size="14" font-weight="bold" font-family="sans-serif">Flower Pattern — door_frame (95×68 mm) · 14 stations · shapely-computed 2D polygons</text>
  <path d="M 145.81 209.23 L 323.11 228.81 L 576.89 228.81 L 754.19 209.23 L 749.57 167.35 L 756.22 166.62 L 761.57 215.14 L 577.25 235.49 L 322.75 235.49 L 138.43 215.14 L 143.78 166.62 L 150.43 167.35 L 145.81 209.23 Z" fill="#6b7280" fill-opacity="0.55" stroke="#6b7280" stroke-width="0.8" stroke-opacity="0.9"/>
  <path d="M 157.19 165.61 L 323.54 228.81 L 576.46 228.81 L 742.81 165.61 L 727.85 126.23 L 734.10 123.85 L 751.44 169.49 L 577.68 235.49 L 322.32 235.49 L 148.56 169.49 L 165.90 123.85 L 172.15 126.23 L 157.19 165.61 Z" fill="#6b7280" fill-opacity="0.55" stroke="#6b7280" stroke-width="0.8" stroke-opacity="0.9"/>
  <path d="M 182.72 121.52 L 324.06 228.81 L 575.94 228.81 L 717.28 121.52 L 691.81 87.96 L 697.14 83.92 L 726.65 122.81 L 578.20 235.49 L 321.80 235.49 L 173.35 122.81 L 202.86 83.92 L 208.19 87.96 L 182.72 121.52 Z" fill="#7c3aed" fill-opacity="0.70" stroke="#7c3aed" stroke-width="0.8" stroke-opacity="0.9"/>
  <path d="M 207.83 95.59 L 324.45 228.81 L 575.55 228.81 L 692.17 95.59 L 660.47 67.84 L 664.88 62.81 L 701.61 94.96 L 578.59 235.49 L 321.41 235.49 L 198.39 94.96 L 235.12 62.81 L 239.53 67.84 L 207.83 95.59 Z" fill="#7c3aed" fill-opacity="0.70" stroke="#7c3aed" stroke-width="0.8" stroke-opacity="0.9"/>
  <path d="M 213.65 90.89 L 324.53 228.81 L 575.47 228.81 L 686.35 90.89 L 653.52 64.49 L 657.71 59.28 L 695.76 89.87 L 578.67 235.49 L 321.33 235.49 L 204.24 89.87 L 242.29 59.28 L 246.48 64.49 L 213.65 90.89 Z" fill="#7c3aed" fill-opacity="0.70" stroke="#7c3aed" stroke-width="0.8" stroke-opacity="0.9"/>
  <path d="M 220.93 85.54 L 324.64 228.81 L 575.36 228.81 L 679.07 85.54 L 644.94 60.84 L 648.86 55.42 L 688.41 84.05 L 578.78 235.49 L 321.22 235.49 L 211.59 84.05 L 251.14 55.42 L 255.06 60.84 L 220.93 85.54 Z" fill="#7c3aed" fill-opacity="0.70" stroke="#7c3aed" stroke-width="0.8" stroke-opacity="0.9"/>
  <path d="M 234.64 76.90 L 324.83 228.81 L 575.17 228.81 L 665.36 76.90 L 629.13 55.39 L 632.55 49.64 L 674.53 74.57 L 578.97 235.49 L 321.03 235.49 L 225.47 74.57 L 267.45 49.64 L 270.87 55.39 L 234.64 76.90 Z" fill="#6366f1" fill-opacity="0.80" stroke="#6366f1" stroke-width="0.8" stroke-opacity="0.9"/>
  <path d="M 253.36 67.66 L 325.10 228.81 L 574.90 228.81 L 646.64 67.66 L 608.15 50.52 L 610.87 44.41 L 655.47 64.27 L 579.24 235.49 L 320.76 235.49 L 244.53 64.27 L 289.13 44.41 L 291.85 50.52 L 253.36 67.66 Z" fill="#6366f1" fill-opacity="0.80" stroke="#6366f1" stroke-width="0.8" stroke-opacity="0.9"/>
  <path d="M 274.82 60.15 L 325.42 228.81 L 574.58 228.81 L 625.18 60.15 L 584.82 48.05 L 586.75 41.64 L 633.51 55.67 L 579.56 235.49 L 320.44 235.49 L 266.49 55.67 L 313.25 41.64 L 315.18 48.05 L 274.82 60.15 Z" fill="#6366f1" fill-opacity="0.80" stroke="#6366f1" stroke-width="0.8" stroke-opacity="0.9"/>
  <path d="M 296.76 55.48 L 325.76 228.81 L 574.24 228.81 L 603.24 55.48 L 561.69 48.53 L 562.79 41.93 L 610.94 49.99 L 579.90 235.49 L 320.10 235.49 L 289.06 49.99 L 337.21 41.93 L 338.31 48.53 L 296.76 55.48 Z" fill="#6366f1" fill-opacity="0.80" stroke="#6366f1" stroke-width="0.8" stroke-opacity="0.9"/>
  <path d="M 315.68 53.70 L 326.08 228.81 L 573.92 228.81 L 584.32 53.70 L 542.26 51.20 L 542.66 44.52 L 591.39 47.42 L 580.22 235.49 L 319.78 235.49 L 308.61 47.42 L 357.34 44.52 L 357.74 51.20 L 315.68 53.70 Z" fill="#6366f1" fill-opacity="0.80" stroke="#6366f1" stroke-width="0.8" stroke-opacity="0.9"/>
  <path d="M 326.27 53.58 L 326.27 228.81 L 573.73 228.81 L 573.73 53.58 L 531.59 53.58 L 531.59 46.89 L 580.41 46.89 L 580.41 235.49 L 319.59 235.49 L 319.59 46.89 L 368.41 46.89 L 368.41 53.58 L 326.27 53.58 Z" fill="#3b82f6" fill-opacity="0.90" stroke="#3b82f6" stroke-width="0.8" stroke-opacity="0.9"/>
  <path d="M 326.27 53.58 L 326.27 228.81 L 573.73 228.81 L 573.73 53.58 L 531.59 53.58 L 531.59 46.89 L 580.41 46.89 L 580.41 235.49 L 319.59 235.49 L 319.59 46.89 L 368.41 46.89 L 368.41 53.58 L 326.27 53.58 Z" fill="#3b82f6" fill-opacity="0.90" stroke="#3b82f6" stroke-width="0.8" stroke-opacity="0.9"/>
  <path d="M 326.27 53.58 L 326.27 228.81 L 573.73 228.81 L 573.73 53.58 L 531.59 53.58 L 531.59 46.89 L 580.41 46.89 L 580.41 235.49 L 319.59 235.49 L 319.59 46.89 L 368.41 46.89 L 368.41 53.58 L 326.27 53.58 Z" fill="#22c55e" fill-opacity="0.85" stroke="#22c55e" stroke-width="0.8" stroke-opacity="0.9"/>
  <line x1="66.9" y1="250.1" x2="833.1" y2="250.1" stroke="#fbbf24" stroke-width="1.5" stroke-dasharray="5,3"/>
  <text x="450.0" y="264.1" text-anchor="middle" fill="#fbbf24" font-size="10" font-family="monospace">Flat strip = 286.4 mm</text>
  <rect x="50" y="308" width="12" height="8" fill="#6b7280" rx="2"/>
  <text x="66" y="316" fill="#94a3b8" font-size="10" font-family="monospace">Flat / pre-bend</text>
  <rect x="210" y="308" width="12" height="8" fill="#7c3aed" rx="2"/>
  <text x="226" y="316" fill="#94a3b8" font-size="10" font-family="monospace">Early forming</text>
  <rect x="370" y="308" width="12" height="8" fill="#6366f1" rx="2"/>
  <text x="386" y="316" fill="#94a3b8" font-size="10" font-family="monospace">Mid forming</text>
  <rect x="530" y="308" width="12" height="8" fill="#3b82f6" rx="2"/>
  <text x="546" y="316" fill="#94a3b8" font-size="10" font-family="monospace">Final form</text>
  <rect x="690" y="308" width="12" height="8" fill="#22c55e" rx="2"/>
  <text x="706" y="316" fill="#94a3b8" font-size="10" font-family="monospace">Calibration</text>
  <text x="50" y="62" fill="#f8fafc" font-size="11" font-family="monospace">Profile: door_frame</text>
  <text x="185" y="62" fill="#fbbf24" font-size="11" font-family="monospace">Web = 95 mm</text>
  <text x="320" y="62" fill="#4ade80" font-size="11" font-family="monospace">Flange = 68 mm</text>
  <text x="455" y="62" fill="#f87171" font-size="11" font-family="monospace">t = 2.5 mm</text>
  <text x="590" y="62" fill="#94a3b8" font-size="11" font-family="monospace">Material = MS</text>
  <text x="725" y="62" fill="#c084fc" font-size="11" font-family="monospace">Stations = 14</text>
</svg>