0
SECTION
2
HEADER
9
$ACADVER
1
AC1015
0
ENDSEC
0
SECTION
2
ENTITIES
0
CIRCLE
8
OUTLINE
62
7
10
0.0000
20
-200.0000
30
0.0
40
55.0000
0
CIRCLE
8
BORE
62
6
10
0.0000
20
-200.0000
30
0.0
40
12.5000
0
LINE
8
CENTER
62
3
10
-5.0000
20
-200.0000
30
0.0
11
5.0000
21
-200.0000
31
0.0
0
LINE
8
CENTER
62
3
10
0.0000
20
-205.0000
30
0.0
11
0.0000
21
-195.0000
31
0.0
0
LINE
8
GROOVE
62
5
10
-43.4778
20
-137.2354
30
0.0
11
-14.5000
21
-145.0000
31
0.0
0
LINE
8
GROOVE
62
5
10
-14.5000
20
-145.0000
30
0.0
11
14.5000
21
-145.0000
31
0.0
0
LINE
8
GROOVE
62
5
10
14.5000
20
-145.0000
30
0.0
11
43.4778
21
-137.2354
31
0.0
0
TEXT
8
TEXT
62
5
10
-30.0000
20
-137.0000
30
0.0
40
4.0000
1
S1 LOWER ROLL
72
1
0
TEXT
8
TEXT
62
7
10
-30.0000
20
-142.0000
30
0.0
40
3.0000
1
OD=110mm
72
1
0
TEXT
8
TEXT
62
1
10
-30.0000
20
-265.0000
30
0.0
40
3.0000
1
FlatW=29mm
72
1
0
TEXT
8
TEXT
62
1
10
-30.0000
20
-270.0000
30
0.0
40
3.0000
1
Angle=15deg
72
1
0
TEXT
8
TEXT
62
6
10
-20.0000
20
-203.0000
30
0.0
40
3.0000
1
Bore=25mm
72
1
0
CIRCLE
8
OUTLINE
62
7
10
200.0000
20
-200.0000
30
0.0
40
55.0000
0
CIRCLE
8
BORE
62
6
10
200.0000
20
-200.0000
30
0.0
40
12.5000
0
LINE
8
CENTER
62
3
10
195.0000
20
-200.0000
30
0.0
11
205.0000
21
-200.0000
31
0.0
0
LINE
8
CENTER
62
3
10
200.0000
20
-205.0000
30
0.0
11
200.0000
21
-195.0000
31
0.0
0
LINE
8
GROOVE
62
5
10
159.5192
20
-130.0000
30
0.0
11
185.5000
21
-145.0000
31
0.0
0
LINE
8
GROOVE
62
5
10
185.5000
20
-145.0000
30
0.0
11
214.5000
21
-145.0000
31
0.0
0
LINE
8
GROOVE
62
5
10
214.5000
20
-145.0000
30
0.0
11
240.4808
21
-130.0000
31
0.0
0
TEXT
8
TEXT
62
5
10
170.0000
20
-137.0000
30
0.0
40
4.0000
1
S2 LOWER ROLL
72
1
0
TEXT
8
TEXT
62
7
10
170.0000
20
-142.0000
30
0.0
40
3.0000
1
OD=110mm
72
1
0
TEXT
8
TEXT
62
1
10
170.0000
20
-265.0000
30
0.0
40
3.0000
1
FlatW=29mm
72
1
0
TEXT
8
TEXT
62
1
10
170.0000
20
-270.0000
30
0.0
40
3.0000
1
Angle=30deg
72
1
0
TEXT
8
TEXT
62
6
10
180.0000
20
-203.0000
30
0.0
40
3.0000
1
Bore=25mm
72
1
0
CIRCLE
8
OUTLINE
62
7
10
400.0000
20
-200.0000
30
0.0
40
55.0000
0
CIRCLE
8
BORE
62
6
10
400.0000
20
-200.0000
30
0.0
40
12.5000
0
LINE
8
CENTER
62
3
10
395.0000
20
-200.0000
30
0.0
11
405.0000
21
-200.0000
31
0.0
0
LINE
8
CENTER
62
3
10
400.0000
20
-205.0000
30
0.0
11
400.0000
21
-195.0000
31
0.0
0
LINE
8
GROOVE
62
5
10
364.2868
20
-123.7868
30
0.0
11
385.5000
21
-145.0000
31
0.0
0
LINE
8
GROOVE
62
5
10
385.5000
20
-145.0000
30
0.0
11
414.5000
21
-145.0000
31
0.0
0
LINE
8
GROOVE
62
5
10
414.5000
20
-145.0000
30
0.0
11
435.7132
21
-123.7868
31
0.0
0
TEXT
8
TEXT
62
5
10
370.0000
20
-137.0000
30
0.0
40
4.0000
1
S3 LOWER ROLL
72
1
0
TEXT
8
TEXT
62
7
10
370.0000
20
-142.0000
30
0.0
40
3.0000
1
OD=110mm
72
1
0
TEXT
8
TEXT
62
1
10
370.0000
20
-265.0000
30
0.0
40
3.0000
1
FlatW=29mm
72
1
0
TEXT
8
TEXT
62
1
10
370.0000
20
-270.0000
30
0.0
40
3.0000
1
Angle=45deg
72
1
0
TEXT
8
TEXT
62
6
10
380.0000
20
-203.0000
30
0.0
40
3.0000
1
Bore=25mm
72
1
0
CIRCLE
8
OUTLINE
62
7
10
600.0000
20
-200.0000
30
0.0
40
55.0000
0
CIRCLE
8
BORE
62
6
10
600.0000
20
-200.0000
30
0.0
40
12.5000
0
LINE
8
CENTER
62
3
10
595.0000
20
-200.0000
30
0.0
11
605.0000
21
-200.0000
31
0.0
0
LINE
8
CENTER
62
3
10
600.0000
20
-205.0000
30
0.0
11
600.0000
21
-195.0000
31
0.0
0
LINE
8
GROOVE
62
5
10
570.5000
20
-119.0192
30
0.0
11
585.5000
21
-145.0000
31
0.0
0
LINE
8
GROOVE
62
5
10
585.5000
20
-145.0000
30
0.0
11
614.5000
21
-145.0000
31
0.0
0
LINE
8
GROOVE
62
5
10
614.5000
20
-145.0000
30
0.0
11
629.5000
21
-119.0192
31
0.0
0
TEXT
8
TEXT
62
5
10
570.0000
20
-137.0000
30
0.0
40
4.0000
1
S4 LOWER ROLL
72
1
0
TEXT
8
TEXT
62
7
10
570.0000
20
-142.0000
30
0.0
40
3.0000
1
OD=110mm
72
1
0
TEXT
8
TEXT
62
1
10
570.0000
20
-265.0000
30
0.0
40
3.0000
1
FlatW=29mm
72
1
0
TEXT
8
TEXT
62
1
10
570.0000
20
-270.0000
30
0.0
40
3.0000
1
Angle=60deg
72
1
0
TEXT
8
TEXT
62
6
10
580.0000
20
-203.0000
30
0.0
40
3.0000
1
Bore=25mm
72
1
0
CIRCLE
8
OUTLINE
62
7
10
800.0000
20
-200.0000
30
0.0
40
55.0000
0
CIRCLE
8
BORE
62
6
10
800.0000
20
-200.0000
30
0.0
40
12.5000
0
LINE
8
CENTER
62
3
10
795.0000
20
-200.0000
30
0.0
11
805.0000
21
-200.0000
31
0.0
0
LINE
8
CENTER
62
3
10
800.0000
20
-205.0000
30
0.0
11
800.0000
21
-195.0000
31
0.0
0
LINE
8
GROOVE
62
5
10
777.7354
20
-116.0222
30
0.0
11
785.5000
21
-145.0000
31
0.0
0
LINE
8
GROOVE
62
5
10
785.5000
20
-145.0000
30
0.0
11
814.5000
21
-145.0000
31
0.0
0
LINE
8
GROOVE
62
5
10
814.5000
20
-145.0000
30
0.0
11
822.2646
21
-116.0222
31
0.0
0
TEXT
8
TEXT
62
5
10
770.0000
20
-137.0000
30
0.0
40
4.0000
1
S5 LOWER ROLL
72
1
0
TEXT
8
TEXT
62
7
10
770.0000
20
-142.0000
30
0.0
40
3.0000
1
OD=110mm
72
1
0
TEXT
8
TEXT
62
1
10
770.0000
20
-265.0000
30
0.0
40
3.0000
1
FlatW=29mm
72
1
0
TEXT
8
TEXT
62
1
10
770.0000
20
-270.0000
30
0.0
40
3.0000
1
Angle=75deg
72
1
0
TEXT
8
TEXT
62
6
10
780.0000
20
-203.0000
30
0.0
40
3.0000
1
Bore=25mm
72
1
0
CIRCLE
8
OUTLINE
62
7
10
1000.0000
20
-200.0000
30
0.0
40
57.0000
0
CIRCLE
8
BORE
62
6
10
1000.0000
20
-200.0000
30
0.0
40
12.5000
0
LINE
8
CENTER
62
3
10
995.0000
20
-200.0000
30
0.0
11
1005.0000
21
-200.0000
31
0.0
0
LINE
8
CENTER
62
3
10
1000.0000
20
-205.0000
30
0.0
11
1000.0000
21
-195.0000
31
0.0
0
LINE
8
GROOVE
62
5
10
985.5000
20
-113.0000
30
0.0
11
985.5000
21
-143.0000
31
0.0
0
LINE
8
GROOVE
62
5
10
985.5000
20
-143.0000
30
0.0
11
1014.5000
21
-143.0000
31
0.0
0
LINE
8
GROOVE
62
5
10
1014.5000
20
-143.0000
30
0.0
11
1014.5000
21
-113.0000
31
0.0
0
TEXT
8
TEXT
62
5
10
970.0000
20
-135.0000
30
0.0
40
4.0000
1
S6 LOWER ROLL
72
1
0
TEXT
8
TEXT
62
7
10
970.0000
20
-140.0000
30
0.0
40
3.0000
1
OD=114mm
72
1
0
TEXT
8
TEXT
62
1
10
970.0000
20
-267.0000
30
0.0
40
3.0000
1
FlatW=29mm
72
1
0
TEXT
8
TEXT
62
1
10
970.0000
20
-272.0000
30
0.0
40
3.0000
1
Angle=90deg
72
1
0
TEXT
8
TEXT
62
6
10
980.0000
20
-203.0000
30
0.0
40
3.0000
1
Bore=25mm
72
1
0
ENDSEC
0
EOF