<svg xmlns="http://www.w3.org/2000/svg" width="976" height="205"><rect width="100%" height="100%" fill="#0a0f1e"/><text x="10" y="18" fill="#f8fafc" font-size="14" font-weight="bold" font-family="sans-serif">Q2 — Flower Pattern: Flat Strip → Progressive Forming → Final Section</text><text x="10" y="32" fill="#64748b" font-size="11" font-family="monospace">Source: roll_contour_engine.py angle_schedule() | 2D cross-section computed from angle data</text><text x="10" y="46" fill="#f59e0b" font-size="11" font-family="monospace">⚠ advanced_flower_engine returns text labels + angle arrays only. 2D profile shape computed separately from angles.</text><rect x="28" y="58" width="130" height="110" rx="6" fill="#0f172a" stroke="#1e293b" stroke-width="1"/><polyline points="48.0,65.1 51.0,121.0 135.0,121.0 138.0,65.1" fill="none" stroke="#7c3aed" stroke-width="3" stroke-linecap="round" stroke-linejoin="round"/><polyline points="49.0,66.1 52.0,122.0 133.9,122.0 137.0,66.1" fill="none" stroke="#7c3aed" stroke-width="1.5" opacity="0.35"/><path d="M 135.0,121.0 a 18,18 0 0,0 -17.0,-0.0" fill="none" stroke="#60a5fa" stroke-width="1" stroke-dasharray="3,2"/><text x="93.0" y="71" text-anchor="middle" fill="#94a3b8" font-size="9" font-family="monospace">Stn 1</text><text x="93.0" y="82" text-anchor="middle" fill="#7c3aed" font-size="11" font-weight="bold" font-family="monospace">3.1°</text><text x="93.0" y="156" text-anchor="middle" fill="#4ade80" font-size="9" font-family="monospace">pre_bend</text><text x="93.0" y="166" text-anchor="middle" fill="#475569" font-size="9" font-family="monospace">65.2mm</text><text x="172.0" y="126.0" text-anchor="middle" fill="#334155" font-size="20">→</text><rect x="186" y="58" width="130" height="110" rx="6" fill="#0f172a" stroke="#1e293b" stroke-width="1"/><polyline points="186.5,69.7 209.0,121.0 293.0,121.0 315.5,69.7" fill="none" stroke="#7c3aed" stroke-width="3" stroke-linecap="round" stroke-linejoin="round"/><polyline points="187.5,70.8 210.1,122.0 291.9,122.0 314.5,70.8" fill="none" stroke="#7c3aed" stroke-width="1.5" opacity="0.35"/><path d="M 293.0,121.0 a 18,18 0 0,0 -10.8,-1.5" fill="none" stroke="#60a5fa" stroke-width="1" stroke-dasharray="3,2"/><text x="251.0" y="71" text-anchor="middle" fill="#94a3b8" font-size="9" font-family="monospace">Stn 3</text><text x="251.0" y="82" text-anchor="middle" fill="#7c3aed" font-size="11" font-weight="bold" font-family="monospace">23.7°</text><text x="251.0" y="156" text-anchor="middle" fill="#4ade80" font-size="9" font-family="monospace">progressive_forming</text><text x="251.0" y="166" text-anchor="middle" fill="#475569" font-size="9" font-family="monospace">63.9mm</text><text x="330.0" y="126.0" text-anchor="middle" fill="#334155" font-size="20">→</text><rect x="344" y="58" width="130" height="110" rx="6" fill="#0f172a" stroke="#1e293b" stroke-width="1"/><polyline points="315.2,99.8 367.0,121.0 451.0,121.0 502.8,99.8" fill="none" stroke="#7c3aed" stroke-width="3" stroke-linecap="round" stroke-linejoin="round"/><polyline points="316.2,100.9 368.1,122.0 449.9,122.0 501.8,100.9" fill="none" stroke="#7c3aed" stroke-width="1.5" opacity="0.35"/><path d="M 451.0,121.0 a 18,18 0 0,0 -1.3,-11.2" fill="none" stroke="#60a5fa" stroke-width="1" stroke-dasharray="3,2"/><text x="409.0" y="71" text-anchor="middle" fill="#94a3b8" font-size="9" font-family="monospace">Stn 6</text><text x="409.0" y="82" text-anchor="middle" fill="#7c3aed" font-size="11" font-weight="bold" font-family="monospace">67.8°</text><text x="409.0" y="156" text-anchor="middle" fill="#4ade80" font-size="9" font-family="monospace">progressive_forming</text><text x="409.0" y="166" text-anchor="middle" fill="#475569" font-size="9" font-family="monospace">62.0mm</text><text x="488.0" y="126.0" text-anchor="middle" fill="#334155" font-size="20">→</text><rect x="502" y="58" width="130" height="110" rx="6" fill="#0f172a" stroke="#1e293b" stroke-width="1"/><polyline points="469.0,119.4 525.0,121.0 609.0,121.0 665.0,119.4" fill="none" stroke="#7c3aed" stroke-width="3" stroke-linecap="round" stroke-linejoin="round"/><polyline points="470.1,120.5 526.0,122.0 608.0,122.0 663.9,120.5" fill="none" stroke="#7c3aed" stroke-width="1.5" opacity="0.35"/><path d="M 609.0,121.0 a 18,18 0 0,0 -0.0,-17.5" fill="none" stroke="#60a5fa" stroke-width="1" stroke-dasharray="3,2"/><text x="567.0" y="71" text-anchor="middle" fill="#94a3b8" font-size="9" font-family="monospace">Stn 8</text><text x="567.0" y="82" text-anchor="middle" fill="#7c3aed" font-size="11" font-weight="bold" font-family="monospace">88.4°</text><text x="567.0" y="156" text-anchor="middle" fill="#4ade80" font-size="9" font-family="monospace">progressive_forming</text><text x="567.0" y="166" text-anchor="middle" fill="#475569" font-size="9" font-family="monospace">60.6mm</text><text x="646.0" y="126.0" text-anchor="middle" fill="#334155" font-size="20">→</text><rect x="660" y="58" width="130" height="110" rx="6" fill="#0f172a" stroke="#1e293b" stroke-width="1"/><polyline points="627.0,121.0 683.0,121.0 767.0,121.0 823.0,121.0" fill="none" stroke="#7c3aed" stroke-width="3" stroke-linecap="round" stroke-linejoin="round"/><polyline points="628.0,122.0 684.0,122.0 766.0,122.0 822.0,122.0" fill="none" stroke="#7c3aed" stroke-width="1.5" opacity="0.35"/><path d="M 767.0,121.0 a 18,18 0 0,0 0.0,-18.0" fill="none" stroke="#60a5fa" stroke-width="1" stroke-dasharray="3,2"/><text x="725.0" y="71" text-anchor="middle" fill="#94a3b8" font-size="9" font-family="monospace">Stn 9</text><text x="725.0" y="82" text-anchor="middle" fill="#7c3aed" font-size="11" font-weight="bold" font-family="monospace">91.5°</text><text x="725.0" y="156" text-anchor="middle" fill="#4ade80" font-size="9" font-family="monospace">final_form</text><text x="725.0" y="166" text-anchor="middle" fill="#475569" font-size="9" font-family="monospace">60.0mm</text><text x="804.0" y="126.0" text-anchor="middle" fill="#334155" font-size="20">→</text><rect x="818" y="58" width="130" height="110" rx="6" fill="#0f172a" stroke="#22c55e" stroke-width="1"/><polyline points="785.0,121.0 841.0,121.0 925.0,121.0 981.0,121.0" fill="none" stroke="#22c55e" stroke-width="3" stroke-linecap="round" stroke-linejoin="round"/><polyline points="786.0,122.0 842.0,122.0 924.0,122.0 980.0,122.0" fill="none" stroke="#22c55e" stroke-width="1.5" opacity="0.35"/><path d="M 925.0,121.0 a 18,18 0 0,0 0.0,-18.0" fill="none" stroke="#60a5fa" stroke-width="1" stroke-dasharray="3,2"/><text x="883.0" y="71" text-anchor="middle" fill="#94a3b8" font-size="9" font-family="monospace">Stn 10 (Calibration)</text><text x="883.0" y="82" text-anchor="middle" fill="#22c55e" font-size="11" font-weight="bold" font-family="monospace">90.0°</text><text x="883.0" y="156" text-anchor="middle" fill="#4ade80" font-size="9" font-family="monospace">calibration</text><text x="883.0" y="166" text-anchor="middle" fill="#475569" font-size="9" font-family="monospace">60.0mm</text><text x="10" y="197" fill="#475569" font-size="10" font-family="monospace">Files: roll_contour_engine.py · advanced_flower_engine.py · FlowerPatternView.tsx</text></svg>