<svg xmlns="http://www.w3.org/2000/svg" width="884" height="220"><rect width="100%" height="100%" fill="#0a0f1e"/><text x="10" y="18" fill="#f8fafc" font-size="14" font-weight="bold" font-family="sans-serif">Q3 — Roll Shape: Upper Roll (blue filled) vs Lower Roll (green dashed) per Station</text><text x="10" y="32" fill="#64748b" font-size="11" font-family="monospace">Source: roll_contour_engine.py _upper_lower_roll_contour() | 6-point simplified model</text><text x="10" y="46" fill="#f59e0b" font-size="11" font-family="monospace">⚠ PARTIAL: Trapezoidal heuristic. upper_roll_radius=None, roll_width_mm=None. Real tooling geometry not computed.</text><rect x="14" y="52" width="160" height="140" rx="6" fill="#0f172a" stroke="#1e293b" stroke-width="1"/><path d="M 38.2,120.7 L 46.2,120.7 L 49.4,113.7 L 138.6,113.7 L 141.8,120.7 L 149.8,120.7" fill="#1e3a5f" fill-opacity="0.4" stroke="#60a5fa" stroke-width="2.5" stroke-linejoin="round"/><path d="M 38.2,123.3 L 46.2,123.3 L 49.4,130.3 L 138.6,130.3 L 141.8,123.3 L 149.8,123.3" fill="#14532d" fill-opacity="0.3" stroke="#4ade80" stroke-width="2" stroke-linejoin="round" stroke-dasharray="5,3"/><text x="94.0" y="65" text-anchor="middle" fill="#94a3b8" font-size="9" font-family="monospace">Stn 1</text><text x="94.0" y="76" text-anchor="middle" fill="#60a5fa" font-size="11" font-weight="bold" font-family="monospace">3.1°</text><text x="19" y="174" fill="#60a5fa" font-size="9" font-family="monospace">▬ upper (6 pts)</text><text x="19" y="184" fill="#4ade80" font-size="9" font-family="monospace">╌ lower  gap=1.6mm</text><text x="169" y="184" text-anchor="end" fill="#475569" font-size="9" font-family="monospace">depth=4.4mm</text><rect x="188" y="52" width="160" height="140" rx="6" fill="#0f172a" stroke="#1e293b" stroke-width="1"/><path d="M 212.2,120.7 L 220.2,120.7 L 223.4,99.5 L 312.6,99.5 L 315.8,120.7 L 323.8,120.7" fill="#1e3a5f" fill-opacity="0.4" stroke="#60a5fa" stroke-width="2.5" stroke-linejoin="round"/><path d="M 212.2,123.3 L 220.2,123.3 L 223.4,144.5 L 312.6,144.5 L 315.8,123.3 L 323.8,123.3" fill="#14532d" fill-opacity="0.3" stroke="#4ade80" stroke-width="2" stroke-linejoin="round" stroke-dasharray="5,3"/><text x="268.0" y="65" text-anchor="middle" fill="#94a3b8" font-size="9" font-family="monospace">Stn 3</text><text x="268.0" y="76" text-anchor="middle" fill="#60a5fa" font-size="11" font-weight="bold" font-family="monospace">23.7°</text><text x="193" y="174" fill="#60a5fa" font-size="9" font-family="monospace">▬ upper (6 pts)</text><text x="193" y="184" fill="#4ade80" font-size="9" font-family="monospace">╌ lower  gap=1.6mm</text><text x="343" y="184" text-anchor="end" fill="#475569" font-size="9" font-family="monospace">depth=13.3mm</text><rect x="362" y="52" width="160" height="140" rx="6" fill="#0f172a" stroke="#1e293b" stroke-width="1"/><path d="M 387.7,120.8 L 395.4,120.8 L 398.5,79.4 L 485.5,79.4 L 488.6,120.8 L 496.3,120.8" fill="#1e3a5f" fill-opacity="0.4" stroke="#60a5fa" stroke-width="2.5" stroke-linejoin="round"/><path d="M 387.7,123.2 L 395.4,123.2 L 398.5,164.6 L 485.5,164.6 L 488.6,123.2 L 496.3,123.2" fill="#14532d" fill-opacity="0.3" stroke="#4ade80" stroke-width="2" stroke-linejoin="round" stroke-dasharray="5,3"/><text x="442.0" y="65" text-anchor="middle" fill="#94a3b8" font-size="9" font-family="monospace">Stn 6</text><text x="442.0" y="76" text-anchor="middle" fill="#60a5fa" font-size="11" font-weight="bold" font-family="monospace">67.8°</text><text x="367" y="174" fill="#60a5fa" font-size="9" font-family="monospace">▬ upper (6 pts)</text><text x="367" y="184" fill="#4ade80" font-size="9" font-family="monospace">╌ lower  gap=1.6mm</text><text x="517" y="184" text-anchor="end" fill="#475569" font-size="9" font-family="monospace">depth=26.7mm</text><rect x="536" y="52" width="160" height="140" rx="6" fill="#0f172a" stroke="#1e293b" stroke-width="1"/><path d="M 579.4,121.2 L 584.6,121.2 L 586.7,79.4 L 645.3,79.4 L 647.4,121.2 L 652.6,121.2" fill="#1e3a5f" fill-opacity="0.4" stroke="#60a5fa" stroke-width="2.5" stroke-linejoin="round"/><path d="M 579.4,122.8 L 584.6,122.8 L 586.7,164.6 L 645.3,164.6 L 647.4,122.8 L 652.6,122.8" fill="#14532d" fill-opacity="0.3" stroke="#4ade80" stroke-width="2" stroke-linejoin="round" stroke-dasharray="5,3"/><text x="616.0" y="65" text-anchor="middle" fill="#94a3b8" font-size="9" font-family="monospace">Stn 9</text><text x="616.0" y="76" text-anchor="middle" fill="#60a5fa" font-size="11" font-weight="bold" font-family="monospace">91.5°</text><text x="541" y="174" fill="#60a5fa" font-size="9" font-family="monospace">▬ upper (6 pts)</text><text x="541" y="184" fill="#4ade80" font-size="9" font-family="monospace">╌ lower  gap=1.6mm</text><text x="691" y="184" text-anchor="end" fill="#475569" font-size="9" font-family="monospace">depth=40.0mm</text><rect x="710" y="52" width="160" height="140" rx="6" fill="#0f172a" stroke="#22c55e" stroke-width="1"/><path d="M 753.4,121.2 L 758.6,121.2 L 760.7,79.4 L 819.3,79.4 L 821.4,121.2 L 826.6,121.2" fill="#1e3a5f" fill-opacity="0.4" stroke="#60a5fa" stroke-width="2.5" stroke-linejoin="round"/><path d="M 753.4,122.8 L 758.6,122.8 L 760.7,164.6 L 819.3,164.6 L 821.4,122.8 L 826.6,122.8" fill="#14532d" fill-opacity="0.3" stroke="#4ade80" stroke-width="2" stroke-linejoin="round" stroke-dasharray="5,3"/><text x="790.0" y="65" text-anchor="middle" fill="#22c55e" font-size="9" font-family="monospace">Stn 10 (Calibration)</text><text x="790.0" y="76" text-anchor="middle" fill="#22c55e" font-size="11" font-weight="bold" font-family="monospace">90.0°</text><text x="715" y="174" fill="#60a5fa" font-size="9" font-family="monospace">▬ upper (6 pts)</text><text x="715" y="184" fill="#4ade80" font-size="9" font-family="monospace">╌ lower  gap=1.568mm</text><text x="865" y="184" text-anchor="end" fill="#475569" font-size="9" font-family="monospace">depth=40.0mm</text><text x="10" y="212" fill="#475569" font-size="10" font-family="monospace">Files: roll_contour_engine.py · RollContourPanel.tsx renders via MiniContourSvg | roll OD/radius: not calculated</text></svg>